<?xml version="1.0" standalone="no"?>
<!DOCTYPE svg PUBLIC "-//W3C//DTD SVG 1.1//EN" "http://www.w3.org/Graphics/SVG/1.1/DTD/svg11.dtd" >
<svg xmlns="http://www.w3.org/2000/svg" xmlns:xlink="http://www.w3.org/1999/xlink" version="1.1">
<metadata>
Created by FontForge 20190801 at Thu Sep  2 06:50:30 2021
 By Unknown
</metadata>
<defs>
<font id="IIVorkursBold" horiz-adv-x="1284" >
  <font-face 
    font-family="II Vorkurs"
    font-weight="700"
    font-stretch="normal"
    units-per-em="2048"
    panose-1="0 0 0 0 0 0 0 0 0 0"
    ascent="1638"
    descent="-410"
    x-height="1000"
    cap-height="1413"
    bbox="-176 -432 2311 1885"
    underline-thickness="102"
    underline-position="-307"
    unicode-range="U+000A-F012"
  />
<missing-glyph horiz-adv-x="1079" 
d="M102 1434h875v-1434h-875v1434zM160 1393l379 -633l381 633h-760zM514 717l-369 614v-1231zM541 674l-379 -631h758zM565 717l371 -621v1239z" />
    <glyph glyph-name=".notdef" horiz-adv-x="1079" 
d="M102 1434h875v-1434h-875v1434zM160 1393l379 -633l381 633h-760zM514 717l-369 614v-1231zM541 674l-379 -631h758zM565 717l371 -621v1239z" />
    <glyph glyph-name=".null" horiz-adv-x="0" 
 />
    <glyph glyph-name=".null" horiz-adv-x="0" 
 />
    <glyph glyph-name="nonmarkingreturn" horiz-adv-x="682" 
 />
    <glyph glyph-name="controlLF" unicode="&#xa;" horiz-adv-x="0" 
 />
    <glyph glyph-name="controlCR" unicode="&#xd;" horiz-adv-x="0" 
 />
    <glyph glyph-name="space" unicode=" " horiz-adv-x="573" 
 />
    <glyph glyph-name="exclam" unicode="!" horiz-adv-x="538" 
d="M387 1412l-2 -1000h-233l2 1000h233zM387 0h-235v236h235v-236z" />
    <glyph glyph-name="quotedbl" unicode="&#x22;" horiz-adv-x="1032" 
d="M484 1412l-177 -529h-235l235 529h177zM954 1412l-176 -529h-235l235 529h176z" />
    <glyph glyph-name="numbersign" unicode="#" horiz-adv-x="1171" 
d="M1056 942v-157h-187l-37 -275h165v-157h-187l-48 -353h-157l48 353h-196l-48 -353h-157l48 353h-185v157h207l37 275h-185v157h206l49 353h157l-49 -353h197l48 353h157l-49 -353h166zM675 510l37 275h-196l-38 -275h197z" />
    <glyph glyph-name="dollar" unicode="$" horiz-adv-x="1177" 
d="M1052 402q5 -135 -75 -243q-66 -88 -173 -136q-43 -20 -99 -31v-227h-235v230q-127 29 -222 113q-70 61 -109 144q-6 13 -16 39l218 91q16 -57 63 -98q28 -26 66 -42q60 -26 129 -26q54 0 106 21q50 21 82 62q31 42 29.5 96t-35.5 95q-28 34 -76 64l-27 15
q-30 16 -62.5 29.5t-81 31t-64.5 23.5q-65 24 -112 50q-108 60 -159 148q-74 128 -31 277q23 80 77.5 146.5t127.5 104.5q45 23 97 37v232h235v-228q103 -23 185 -85t121 -154q-8 -3 -63.5 -26.5t-105 -44t-49.5 -19.5q-26 54 -88 82q-57 26 -126 23q-62 -3 -109 -34
q-22 -14 -42 -37q-33 -39 -37 -89t29 -89q22 -22 50 -39q41 -25 130.5 -55t98.5 -34q1 -1 3 -1t3 -1q174 -73 259 -179q83 -102 88 -236z" />
    <glyph glyph-name="percent" unicode="%" horiz-adv-x="1857" 
d="M693 0h-177l648 1412h176zM477 1432q155 0 264 -109t109 -264q0 -154 -109 -263t-264 -109t-264 109t-109 263q0 155 109 264t264 109zM477 855q85 0 144.5 59.5t59.5 144.5t-59.5 144.5t-144.5 59.5t-144.5 -59.5t-59.5 -144.5t59.5 -144.5t144.5 -59.5zM1380 726
q154 0 263 -109t109 -264t-109 -264t-263 -109t-263.5 109t-109.5 264t109.5 264t263.5 109zM1380 149q85 0 144.5 59.5t59.5 144.5t-59.5 144.5t-144.5 59.5t-144.5 -59.5t-59.5 -144.5t59.5 -144.5t144.5 -59.5z" />
    <glyph glyph-name="ampersand" unicode="&#x26;" horiz-adv-x="1394" 
d="M1168 271l124 -124l-166 -167l-122 122q-172 -122 -374 -122q-203 0 -350 125q-72 62 -112 141q-43 88 -43 181t43 181q41 80 112 141q23 20 43 33q-38 47 -59 98q-31 72 -31 155q0 82 31 154q31 73 85 127q55 55 126 85q72 31 155 31t155 -31q71 -30 126 -85
q54 -54 85 -127q31 -72 31 -154q0 -83 -31 -155q-30 -71 -85 -126t-126 -85q-2 -1 -6 -2.5t-6 -2.5l222 -221q32 67 32 146h236q0 -129 -56 -247q-24 -48 -39 -71zM630 1197q-67 0 -114.5 -47.5t-47.5 -114.5q0 -64 45 -111l6 -7q43 -40 98 -44h13q67 0 114.5 47.5
t47.5 114.5t-47.5 114.5t-114.5 47.5zM630 216q107 0 203 56l-339 337q-36 -17 -62 -39q-72 -61 -72 -143t72 -143q80 -68 198 -68z" />
    <glyph glyph-name="quotesingle" unicode="'" horiz-adv-x="561" 
d="M484 1412l-177 -529h-235l235 529h177z" />
    <glyph glyph-name="parenleft" unicode="(" horiz-adv-x="727" 
d="M648 -268l-186 -144q-150 194 -234 446q-85 260 -85 538t85 538q84 252 234 446l186 -144q-127 -165 -196 -376q-73 -224 -73 -464t73 -464q69 -211 196 -376z" />
    <glyph glyph-name="parenright" unicode=")" horiz-adv-x="727" 
d="M498 34q-84 -252 -234 -446l-186 144q127 165 196 376q73 224 73 464t-73 464q-69 211 -196 376l186 144q150 -194 234 -446q85 -260 85 -538t-85 -538z" />
    <glyph glyph-name="asterisk" unicode="*" horiz-adv-x="892" 
d="M803 1122l-237 -98l156 -229l-130 -89l-146 214l-145 -214l-130 89l156 229l-237 98l60 145l218 -90v236h157v-236l218 90z" />
    <glyph glyph-name="plus" unicode="+" horiz-adv-x="1210" 
d="M1114 383h-392v-383h-235v383h-393v235h393v382h235v-382h392v-235z" />
    <glyph glyph-name="comma" unicode="," horiz-adv-x="430" 
d="M-39 -294l177 529h235l-235 -529h-177z" />
    <glyph glyph-name="hyphen" unicode="-" horiz-adv-x="731" 
d="M664 618v-235h-598v235h598z" />
    <glyph glyph-name="period" unicode="." horiz-adv-x="366" 
d="M301 235v-235h-235v235h235z" />
    <glyph glyph-name="slash" unicode="/" horiz-adv-x="1030" 
d="M309 0h-235l647 1412h235z" />
    <glyph glyph-name="zero" unicode="0" horiz-adv-x="1259" 
d="M630 1430q132 0 229 -56t153 -157.5t82 -228t26 -283.5q0 -124 -16 -230t-52.5 -198.5t-92 -157.5t-139.5 -102.5t-190 -37.5q-132 0 -229 56t-153 157.5t-82.5 229t-26.5 283.5t26.5 283.5t82.5 228.5t153 157t229 56zM865 704v1q0 106 -12 191.5t-38.5 154.5
t-73.5 106.5t-111 37.5t-111 -37.5t-73.5 -106.5t-39 -154.5t-12.5 -191.5v-1q0 -106 12.5 -191.5t39 -154.5t73.5 -106.5t111 -37.5t111 37.5t73.5 106.5t38.5 154.5t12 191.5z" />
    <glyph glyph-name="one" unicode="1" horiz-adv-x="681" 
d="M104 1412h412v-1412h-235v1197h-177v215z" />
    <glyph glyph-name="two" unicode="2" horiz-adv-x="1202" 
d="M1056 870q-9 -34 -23.5 -65t-42 -67t-40 -51.5t-49.5 -58.5l-339 -393h486v-235h-942v116l604 670q65 67 83.5 146.5t-18 147.5t-121.5 100q-49 18 -104.5 11.5t-97.5 -37.5q-32 -23 -64 -63t-39 -71q-10 3 -63.5 23t-104 41.5t-49.5 24.5q50 143 174.5 233t279.5 90
q34 0 62 -4q112 -14 206 -79t150 -164q92 -163 52 -315z" />
    <glyph glyph-name="three" unicode="3" horiz-adv-x="1224" 
d="M798 970q133 -64 214.5 -190.5t81.5 -279.5q0 -141 -69.5 -261t-189 -189.5t-260.5 -69.5q-160 0 -291 89t-190 232l218 90q33 -78 104 -126.5t159 -48.5q118 0 201 83t83 201t-83 201.5t-201 83.5q-73 0 -118 -20v137l206 295h-461v215h824v-117z" />
    <glyph glyph-name="four" unicode="4" horiz-adv-x="1308" 
d="M973 510h235v-216h-235v-294h-236v294h-647v118l765 1000h118v-902zM737 510v364l-274 -364h274z" />
    <glyph glyph-name="five" unicode="5" horiz-adv-x="1249" 
d="M601 1020q106 0 202 -41t166 -111t111 -166t41 -202t-41 -202t-111 -166t-166 -111t-202 -41q-160 0 -290.5 89t-189.5 232l217 90q33 -78 104 -126.5t159 -48.5q118 0 201.5 83t83.5 201t-83.5 201.5t-201.5 83.5q-91 0 -166 -54q-22 -18 -27 -22l-219 27l30 676h794
v-215h-559l-8 -200q75 23 155 23z" />
    <glyph glyph-name="six" unicode="6" horiz-adv-x="1269" 
d="M939 922q100 -72 157.5 -182.5t57.5 -239.5q0 -141 -69.5 -261t-189 -189.5t-260.5 -69.5q-106 0 -202 41t-166 111t-111 166t-41 202q0 35 6 70t13 62.5t24.5 64t27.5 56.5t35.5 59t35.5 53.5t41 57.5t39 54l317 435h275l-305 -421h1q6 2 16 4.5t43.5 4.5t68 -2.5
t85.5 -23.5t101 -52zM635 216q118 0 201 83t83 201t-83 201.5t-201 83.5t-201.5 -83.5t-83.5 -201.5t83.5 -201t201.5 -83z" />
    <glyph glyph-name="seven" unicode="7" horiz-adv-x="1067" 
d="M94 1412h883v-117l-540 -1295h-255l501 1197h-589v215z" />
    <glyph glyph-name="eight" unicode="8" horiz-adv-x="1273" 
d="M953 797q92 -64 144 -158t52 -202q0 -93 -40.5 -177.5t-109.5 -146t-164 -97.5t-199 -36t-199 36t-164 97.5t-109.5 146t-40.5 177.5q0 108 52.5 202t144.5 158q-80 106 -80 239q0 164 116 280t280 116t280.5 -116t116.5 -280q0 -133 -80 -239zM473 1036q0 -47 25 -86
t66 -60q34 -17 72 -17t72 17q41 21 66 60t25 86q0 67 -47.5 114.5t-115.5 47.5t-115.5 -47.5t-47.5 -114.5zM636 216q104 0 177 65t73 156q0 72 -47.5 129.5t-122.5 80.5q-43 12 -80 12t-80 -12q-75 -23 -122.5 -80.5t-47.5 -129.5q0 -91 73 -156t177 -65z" />
    <glyph glyph-name="nine" unicode="9" horiz-adv-x="1269" 
d="M330 491q-100 72 -157.5 182.5t-57.5 238.5q0 106 41 202t111 166t166 111t202 41q141 0 260.5 -69.5t189 -189.5t69.5 -261q0 -35 -6 -70t-13 -62.5t-24.5 -64t-27.5 -56.5t-35.5 -59t-35.5 -53.5t-41 -57.5t-39 -54l-317 -435h-275l305 422h-1q-6 -2 -16 -4.5t-43.5 -5
t-68 2t-85.5 23.5t-101 52v1zM635 1197q-118 0 -201.5 -83.5t-83.5 -201.5t83.5 -201t201.5 -83t201 83t83 201t-83 201.5t-201 83.5z" />
    <glyph glyph-name="colon" unicode=":" horiz-adv-x="423" 
d="M330 235v-235h-236v235h236zM330 1000v-235h-236v235h236z" />
    <glyph glyph-name="semicolon" unicode=";" horiz-adv-x="483" 
d="M394 1000v-235h-236v235h236zM-18 -294l176 529h236l-236 -529h-176z" />
    <glyph glyph-name="less" unicode="&#x3c;" horiz-adv-x="743" 
d="M628 912v-235l-318 -177l318 -176v-236l-530 295v235z" />
    <glyph glyph-name="equal" unicode="=" horiz-adv-x="1150" 
d="M1055 853v-235h-961v235h961zM1055 383v-236h-961v236h961z" />
    <glyph glyph-name="greater" unicode="&#x3e;" horiz-adv-x="743" 
d="M115 677v235l529 -294v-235l-529 -295v236l317 176z" />
    <glyph glyph-name="question" unicode="?" horiz-adv-x="1110" 
d="M586 235v-235h-235v235h235zM961 1145q37 -86 37 -184q0 -97 -37 -183t-101 -150q-65 -65 -149 -101q-60 -25 -125 -33v-82h-235v314q7 1 29.5 0.5t56 -1.5t34.5 -1q96 -2 159 27q60 28 96.5 86t36.5 124q0 97 -69.5 166.5t-166.5 69.5q-81 0 -144.5 -50.5t-83.5 -128.5
l-219 90q6 17 14 37q37 86 100 149q64 64 150 101t183 37q98 0 184 -37q84 -36 149 -101t101 -149z" />
    <glyph glyph-name="at" unicode="@" horiz-adv-x="1701" 
d="M1016 1041h158v-669h-158v58q-75 -72 -190 -72q-144 0 -246 102t-102 246t102 246t246 102q115 0 190 -72v59zM826 515q79 0 134.5 56t55.5 135t-55.5 134.5t-134.5 55.5t-135 -55.5t-56 -134.5t56 -135t135 -56zM1133 37q-133 -57 -283 -57q-148 0 -282 57
q-132 57 -231 156q-98 98 -155 230q-57 133 -57 283q0 148 57 282q57 133 155 231t231 155q134 57 282 57q150 0 283 -57q132 -57 230 -155q99 -99 156 -231q57 -133 57 -282q0 -150 -57 -283q-56 -130 -156 -230t-230 -156zM1080 1249q-108 46 -230 46q-121 0 -229 -46
q-105 -45 -187 -127q-80 -80 -126 -187q-47 -111 -47 -229t47 -229q46 -109 126 -188q80 -80 187 -126q108 -46 229 -46q122 0 230 46q107 46 187 126q79 80 126 188q46 108 46 229t-46 229q-46 107 -126 187q-82 82 -187 127z" />
    <glyph glyph-name="A" unicode="A" horiz-adv-x="1427" 
d="M831 1412l559 -1412h-235l-128 324h-627l-128 -324h-235l559 1412h235zM494 559h440l-220 556z" />
    <glyph glyph-name="B" unicode="B" horiz-adv-x="1323" 
d="M1049 748q80 -57 127 -145.5t47 -190.5q0 -170 -121 -291t-291 -121h-412h-235v1412h559q171 0 291.5 -120.5t120.5 -291.5q0 -141 -86 -252zM399 1177v-363h319q75 0 128 53.5t53 128.5t-53 128t-128 53h-319zM806 235q75 0 128 53.5t53 128.5t-53 128t-128 53h-407
v-363h407z" />
    <glyph glyph-name="C" unicode="C" horiz-adv-x="1499" 
d="M820 217q125 0 232.5 58.5t174.5 158.5l197 -131q-99 -149 -258.5 -236t-345.5 -87q-148 0 -282.5 57.5t-231.5 154.5t-154.5 231.5t-57.5 282.5t57.5 282.5t154.5 231.5t231.5 154.5t282.5 57.5q186 0 345.5 -87t258.5 -235l-197 -132q-67 100 -174.5 159t-232.5 59
q-133 0 -245.5 -65.5t-178 -178.5t-65.5 -246q0 -202 143.5 -345.5t345.5 -143.5z" />
    <glyph glyph-name="D" unicode="D" horiz-adv-x="1492" 
d="M694 1412q144 0 274.5 -56t225 -150.5t150.5 -225t56 -274.5t-56 -274.5t-150.5 -225t-225 -150.5t-274.5 -56h-530v1412h530zM694 236q194 0 331.5 138t137.5 332t-137.5 332t-331.5 138h-295v-942z" />
    <glyph glyph-name="E" unicode="E" horiz-adv-x="1265" 
d="M1164 1197h-765v-383h648v-216h-648v-382h765v-216h-1000v1412h1000v-215z" />
    <glyph glyph-name="F" unicode="F" horiz-adv-x="1228" 
d="M1164 1197h-765v-432h648v-216h-648v-549h-235v1412h1000v-215z" />
    <glyph glyph-name="G" unicode="G" horiz-adv-x="1626" 
d="M1544 764q2 -19 2 -59q0 -78 -17 -157q-55 -246 -253 -407.5t-456 -161.5q-148 0 -282.5 57.5t-231.5 154.5t-154.5 231.5t-57.5 282.5t57.5 282.5t154.5 231.5t231.5 154.5t282.5 57.5q185 0 344.5 -87t258.5 -235l-196 -131q-67 100 -174.5 158.5t-232.5 58.5
q-203 0 -346.5 -143.5t-143.5 -346.5t143.5 -346.5t346.5 -143.5q160 0 288 93t177 240h-465v216h724z" />
    <glyph glyph-name="H" unicode="H" horiz-adv-x="1505" 
d="M399 1412v-598h706v598h236v-1412h-236v598h-706v-598h-235v1412h235z" />
    <glyph glyph-name="I" unicode="I" horiz-adv-x="559" 
d="M397 0h-235v1413h235v-1413z" />
    <glyph glyph-name="J" unicode="J" horiz-adv-x="1007" 
d="M620 1412h235v-1020q0 -171 -120.5 -291.5t-291.5 -120.5q-149 0 -262.5 94.5t-141.5 237.5l231 46q12 -61 60.5 -101.5t112.5 -40.5q73 0 125 51.5t52 124.5v1020z" />
    <glyph glyph-name="K" unicode="K" horiz-adv-x="1314" 
d="M605 706l677 -706h-324l-559 583v-583h-235v1412h235v-608l530 608h294z" />
    <glyph glyph-name="L" unicode="L" horiz-adv-x="1028" 
d="M988 216v-216h-824v1412h235v-1196h589z" />
    <glyph glyph-name="M" unicode="M" horiz-adv-x="1740" 
d="M1341 1412h235v-1412h-235v942l-383 -707h-176l-383 707v-942h-235v1412h235l471 -814z" />
    <glyph glyph-name="N" unicode="N" horiz-adv-x="1564" 
d="M1164 1412h236v-1412h-236v-1l-765 1011v-1010h-235v1412h235l765 -1010v1010z" />
    <glyph glyph-name="O" unicode="O" horiz-adv-x="1640" 
d="M820 1432q148 0 282.5 -57.5t231.5 -154.5t154.5 -231.5t57.5 -282.5t-57.5 -282.5t-154.5 -231.5t-231.5 -154.5t-282.5 -57.5t-282.5 57.5t-231.5 154.5t-154.5 231.5t-57.5 282.5t57.5 282.5t154.5 231.5t231.5 154.5t282.5 57.5zM820 217q202 0 345.5 143.5
t143.5 345.5q0 133 -65.5 246t-178 178.5t-245.5 65.5t-245.5 -65.5t-178 -178.5t-65.5 -246q0 -202 143.5 -345.5t345.5 -143.5z" />
    <glyph glyph-name="P" unicode="P" horiz-adv-x="1241" 
d="M694 1412q195 0 332.5 -137.5t137.5 -332.5t-137.5 -333t-332.5 -138h-295v-471h-235v1412h530zM694 706q97 0 166 69t69 167t-68.5 166.5t-166.5 68.5h-295v-471h295z" />
    <glyph glyph-name="Q" unicode="Q" horiz-adv-x="1656" 
d="M1309 706q0 133 -65.5 246t-178 178.5t-245.5 65.5t-245.5 -65.5t-178 -178.5t-65.5 -246q0 -202 143.5 -345.5t345.5 -143.5q138 0 253 70l-252 252l166 166l252 -252q70 115 70 253zM1410 283l136 -136l-167 -167l-136 137q-190 -137 -423 -137q-148 0 -282.5 57.5
t-231.5 154.5t-154.5 231.5t-57.5 282.5t57.5 282.5t154.5 231.5t231.5 154.5t282.5 57.5t282.5 -57.5t231.5 -154.5t154.5 -231.5t57.5 -282.5q0 -235 -136 -423z" />
    <glyph glyph-name="R" unicode="R" horiz-adv-x="1282" 
d="M1194 0h-275l-310 471h-210v-471h-235v1412h530q195 0 332.5 -137.5t137.5 -332.5q0 -148 -83.5 -268t-217.5 -172zM399 1177v-471h295q97 0 166 69t69 167t-68.5 166.5t-166.5 68.5h-295z" />
    <glyph glyph-name="S" unicode="S" horiz-adv-x="1118" 
d="M933 638q83 -102 88 -237q5 -134 -75 -242q-66 -88 -173 -136q-97 -43 -205 -43q-206 0 -351 128q-68 60 -109 144q-6 13 -16 39l218 90q15 -56 63 -97q77 -68 195 -68q59 0 109.5 22.5t79.5 60.5q31 42 29.5 96t-35.5 95q-33 41 -104 79q-49 26 -158 65t-162 69
q-106 59 -158 148q-74 128 -31 277q23 80 77 146t127 104q114 59 248 53q127 -6 234.5 -72t155.5 -178q-8 -3 -63.5 -26.5t-105 -44t-49.5 -19.5q-25 55 -86 81.5t-128 23.5q-96 -5 -151 -71q-33 -39 -37 -89t29 -89q31 -33 76.5 -54.5t112 -42.5t90.5 -31q177 -73 265 -181
z" />
    <glyph glyph-name="T" unicode="T" horiz-adv-x="1015" 
d="M625 0h-235v1197h-353v215h942v-215h-354v-1197z" />
    <glyph glyph-name="U" unicode="U" horiz-adv-x="1347" 
d="M1203 1412v-902q0 -144 -71 -266t-193 -193t-266 -71t-266 71t-193 193t-71 266v902h236v-902q0 -122 86 -208t208 -86t208 86t86 208v902h236z" />
    <glyph glyph-name="V" unicode="V" horiz-adv-x="1370" 
d="M1067 1412h265l-530 -1412h-235l-530 1412h265l382 -1020z" />
    <glyph glyph-name="W" unicode="W" horiz-adv-x="1910" 
d="M1626 1412h236l-398 -1362l-14 -50h-216l-15 50l-265 931l-265 -931l-14 -50h-216l-14 50l-398 1362h236l284 -980l270 931l14 49h206l15 -49l270 -931z" />
    <glyph glyph-name="X" unicode="X" horiz-adv-x="1335" 
d="M1285 1412l-471 -706l471 -706h-294l-324 486l-324 -486h-294l471 706l-471 706h294l324 -485l324 485h294z" />
    <glyph glyph-name="Y" unicode="Y" horiz-adv-x="1222" 
d="M905 1412h295l-471 -706v-706h-236v706l-470 706h294l294 -441z" />
    <glyph glyph-name="Z" unicode="Z" horiz-adv-x="1243" 
d="M1174 216v-216h-1108v98l78 118l651 981h-671v215h1021v-98l-79 -117l-651 -981h759z" />
    <glyph glyph-name="bracketleft" unicode="[" horiz-adv-x="681" 
d="M164 -412v1824h412v-215h-177v-1393h177v-216h-412z" />
    <glyph glyph-name="backslash" unicode="\" horiz-adv-x="1030" 
d="M954 0h-235l-647 1412h235z" />
    <glyph glyph-name="bracketright" unicode="]" horiz-adv-x="681" 
d="M516 1412v-1824h-412v216h177v1393h-177v215h412z" />
    <glyph glyph-name="underscore" unicode="_" horiz-adv-x="1093" 
d="M1027 235v-235h-961v235h961z" />
    <glyph glyph-name="grave" unicode="`" horiz-adv-x="485" 
d="M261 1148l-255 323h294l128 -323h-167z" />
    <glyph glyph-name="a" unicode="a" 
d="M901 999h235v-999h-235v87q-111 -108 -285 -108q-106 0 -202 41t-166 111t-111 166t-41 202t41 202t111 166t166 111t202 41q173 0 285 -109v89zM616 214q118 0 201.5 83.5t83.5 201.5t-83.5 201t-201.5 83t-201 -83t-83 -201t83 -201.5t201 -83.5z" />
    <glyph glyph-name="b" unicode="b" 
d="M1187 500q0 -106 -41 -202t-111 -166t-166 -111t-202 -41q-172 0 -284 109v-89h-236v1412h236v-500q111 108 284 108q106 0 202 -41t166 -111t111 -166t41 -202zM952 500q0 118 -83.5 201.5t-201.5 83.5t-201 -83.5t-83 -201.5t83 -201t201 -83t201.5 83t83.5 201z" />
    <glyph glyph-name="c" unicode="c" horiz-adv-x="1128" 
d="M616 214q73 0 135.5 34t101.5 92l195 -131q-71 -106 -185 -168.5t-247 -62.5q-106 0 -202 41t-166 111t-111 166t-41 202t41 202t111 166t166 111t202 41q133 0 247 -62.5t185 -168.5l-195 -131q-39 58 -101.5 92.5t-135.5 34.5q-118 0 -201 -83.5t-83 -201.5t83 -201
t201 -83z" />
    <glyph glyph-name="d" unicode="d" 
d="M616 -20q-106 0 -202 41t-166 111t-111 166t-41 202t41 202t111 166t166 111t202 41q174 0 285 -108v500h235v-1412h-235v89q-112 -109 -285 -109zM616 785q-118 0 -201 -83.5t-83 -201.5t83 -201t201 -83t201.5 83t83.5 201t-83.5 201.5t-201.5 83.5z" />
    <glyph glyph-name="e" unicode="e" horiz-adv-x="1222" 
d="M1129 412h-783q28 -87 102.5 -141.5t167.5 -54.5q128 0 212 94l196 -132q-73 -92 -179.5 -145t-228.5 -53q-191 0 -335.5 123.5t-176.5 308.5q-8 46 -8 88q0 50 9 98q35 182 178.5 302t332.5 120t332.5 -120t178.5 -302q9 -48 9 -98q0 -47 -7 -88zM349 598h534
q-30 83 -103 135t-164 52t-164 -52t-103 -135z" />
    <glyph glyph-name="f" unicode="f" horiz-adv-x="860" 
d="M800 785h-280v-785h-235v785h-226v215h226v54v1q0 99 47.5 183t127.5 135q94 59 203 59q63 0 123 -20l-47 -225q-30 16 -68.5 13.5t-69.5 -17.5q-32 -15 -53 -43t-26 -62q-2 -16 -2 -23v-55h280v-215z" />
    <glyph glyph-name="g" unicode="g" 
d="M1136 999v-911q0 -106 -41 -202t-111 -166t-166 -111t-202 -41q-124 0 -231.5 54.5t-180.5 149.5l197 131q86 -99 215 -99q113 0 194.5 77t89.5 188l1 19q-111 -108 -285 -108q-106 0 -202 41t-166 111t-111 166t-41 202t41 202t111 166t166 111t202 41q173 0 285 -109
v88h235zM616 215q118 0 201.5 83.5t83.5 201.5t-83.5 201t-201.5 83t-201 -83t-83 -201t83 -201.5t201 -83.5z" />
    <glyph glyph-name="h" unicode="h" horiz-adv-x="1177" 
d="M814 0v569q0 89 -63 152.5t-152 63.5t-152.5 -63.5t-63.5 -152.5v-569h-236v1412h236v-462q88 70 216 70q122 0 226 -60.5t164.5 -164.5t60.5 -226v-569h-236z" />
    <glyph glyph-name="i" unicode="i" horiz-adv-x="526" 
d="M145 0l3 1000h233l-2 -1000h-234zM145 1412h236v-235h-236v235z" />
    <glyph glyph-name="j" unicode="j" horiz-adv-x="532" 
d="M148 -54v1054h236v-1054q0 -99 -47.5 -183.5t-127.5 -135.5q-94 -59 -203 -59q-60 0 -123 21l47 225q28 -18 91 -9q54 7 90.5 47t36.5 94zM148 1412h236v-235h-236v235z" />
    <glyph glyph-name="k" unicode="k" horiz-adv-x="1173" 
d="M1128 0h-323l-422 422v-422h-236v1412h236v-800l353 388h324l-452 -480z" />
    <glyph glyph-name="l" unicode="l" horiz-adv-x="528" 
d="M150 1412h233l-2 -1412h-234z" />
    <glyph glyph-name="m" unicode="m" horiz-adv-x="1796" 
d="M1668 0h-236v569q0 89 -63 152.5t-152 63.5q-56 0 -104.5 -27t-77.5 -73q15 -55 15 -116v-569h-236v569q0 89 -63 152.5t-152 63.5t-152.5 -63.5t-63.5 -152.5v-569h-236v999h236v-72q67 69 164 86.5t187 -13.5q54 -16 110 -53q19 -13 55 -41t33 -33q96 147 285 147
q122 0 226 -60.5t164.5 -164.5t60.5 -226v-569z" />
    <glyph glyph-name="n" unicode="n" horiz-adv-x="1177" 
d="M814 0v569q0 89 -63 152.5t-152 63.5t-152.5 -63.5t-63.5 -152.5v-569h-236v1000h236v-76q89 96 216 96q122 0 226 -60.5t164.5 -164.5t60.5 -226v-569h-236z" />
    <glyph glyph-name="o" unicode="o" horiz-adv-x="1232" 
d="M616 1020q141 0 261 -69.5t189.5 -189t69.5 -260.5q0 -106 -41 -202t-111 -166t-166 -111t-202 -41t-202 41t-166 111t-111 166t-41 202q0 141 69.5 260.5t189.5 189t261 69.5zM616 216q118 0 201.5 83.5t83.5 201.5t-83.5 201t-201.5 83t-201 -83t-83 -201t83 -201.5
t201 -83.5z" />
    <glyph glyph-name="p" unicode="p" 
d="M667 1020q106 0 202 -41t166 -111t111 -166t41 -202t-41 -202t-111 -166t-166 -111t-202 -41q-172 0 -284 109v-501h-236v1412h236v-88q111 108 284 108zM667 216q118 0 201.5 83t83.5 201t-83.5 201.5t-201.5 83.5t-201 -83.5t-83 -201.5t83 -201t201 -83z" />
    <glyph glyph-name="q" unicode="q" 
d="M96 500q0 106 41 202t111 166t166 111t202 41q174 0 285 -108v88h235v-1412h-235v501q-112 -109 -285 -109q-106 0 -202 41t-166 111t-111 166t-41 202zM332 500q0 -118 83 -201t201 -83t201.5 83t83.5 201t-83.5 201.5t-201.5 83.5t-201 -83.5t-83 -201.5z" />
    <glyph glyph-name="r" unicode="r" horiz-adv-x="829" 
d="M638 1020q70 0 138 -20l-46 -232q-45 17 -92 17q-106 0 -180.5 -74.5t-74.5 -180.5v-530h-236v1000h236v-71q100 91 255 91z" />
    <glyph glyph-name="s" unicode="s" horiz-adv-x="974" 
d="M839 444q34 -66 34 -137q0 -77 -38.5 -147t-105.5 -115q-82 -55 -201 -63q-26 -2 -38 -2q-75 0 -150 20q-165 44 -256 178l196 128q41 -58 119 -79q53 -14 113 -11q54 3 86 24q40 27 40 67q0 34 -32 60q-30 25 -132 28q-129 5 -223 74q-121 90 -121 238q0 66 29 127
q44 93 139.5 140.5t206.5 45.5q170 -3 289 -110q33 -29 62 -71l-195 -130q-14 18 -24 27q-41 37 -105.5 48.5t-115.5 -10.5q-32 -14 -45 -44t7 -60q13 -18 40.5 -27.5t41.5 -10.5t50 -3q240 -11 329 -185z" />
    <glyph glyph-name="t" unicode="t" horiz-adv-x="888" 
d="M800 1000v-215h-280v-427q0 -54 37 -94t91 -47q63 -9 91 9l47 -225q-63 -21 -123 -21q-109 0 -203 59q-80 51 -127.5 135.5t-47.5 183.5v427h-226v215h226v295h235v-295h280z" />
    <glyph glyph-name="u" unicode="u" horiz-adv-x="1177" 
d="M794 1000h235v-1000h-235v76q-89 -96 -216 -96q-122 0 -226 60.5t-164.5 165t-60.5 226.5v568h235v-568q0 -89 63.5 -152.5t152.5 -63.5t152.5 63.5t63.5 152.5v568z" />
    <glyph glyph-name="v" unicode="v" horiz-adv-x="1148" 
d="M853 1000h246l-402 -1000h-246l-402 1000h245l280 -695z" />
    <glyph glyph-name="w" unicode="w" horiz-adv-x="1572" 
d="M1272 1000h245l-324 -1000h-235l-172 531l-172 -531h-235l-324 1000h246l196 -606l196 606h186l196 -606z" />
    <glyph glyph-name="x" unicode="x" horiz-adv-x="1120" 
d="M1060 1000l-353 -500l353 -500h-294l-206 292l-206 -292h-295l354 500l-354 500h295l206 -291l206 291h294z" />
    <glyph glyph-name="y" unicode="y" horiz-adv-x="1148" 
d="M697 0l-166 -412h-245l165 412l-402 1000h245l280 -695l279 695h246z" />
    <glyph glyph-name="z" unicode="z" horiz-adv-x="1048" 
d="M443 216h520v-216h-883v118l490 667h-431v215h794v-118z" />
    <glyph glyph-name="braceleft" unicode="{" horiz-adv-x="768" 
d="M540 1171q-45 -12 -64 -54q-23 -46 -10 -106q7 -32 23 -73q24 -62 33 -106q19 -88 0 -174.5t-71 -151.5l-3 -3t-2 -3t2 -2.5t3 -2.5q52 -65 71 -151.5t0 -174.5q-9 -44 -33 -106q-16 -41 -23 -73q-13 -60 10 -106q20 -43 64 -55q23 -6 71 -5q5 0 18 0.5t20 0.5v-236h-32
q-5 0 -15 -0.5t-16 -0.5q-56 0 -111 15q-70 20 -124.5 66t-86.5 112q-58 119 -28 259q7 34 32 104q18 47 24 74q16 78 -26 131q-17 21 -43 29q-18 6 -68 4q-5 0 -16.5 -0.5t-17.5 -0.5v238q6 0 17.5 -0.5t16.5 -0.5q50 -2 68 4q25 7 43 30q42 53 26 131q-6 27 -24 74
q-25 70 -32 104q-30 140 28 259q66 135 211 177q58 17 142 15q5 0 15.5 -0.5t16.5 -0.5v-235q-7 0 -20 0.5t-18 0.5q-44 1 -71 -6z" />
    <glyph glyph-name="verticalbar" unicode="|" horiz-adv-x="563" 
d="M399 1648v-1883h-235v1883h235z" />
    <glyph glyph-name="braceright" unicode="}" horiz-adv-x="768" 
d="M290 1117q-19 42 -64 54q-27 7 -71 6q-5 0 -18 -0.5t-20 -0.5v235q6 0 16.5 0.5t15.5 0.5q84 2 142 -15q145 -42 211 -177q59 -120 29 -259q-6 -27 -33 -104q-18 -46 -24 -75q-16 -77 26 -130q18 -23 43 -30q18 -6 68 -4q5 0 16.5 0.5t17.5 0.5v-238q-6 0 -17.5 0.5
t-16.5 0.5q-50 2 -68 -4q-25 -7 -43 -30q-42 -53 -26 -130q6 -27 24 -74q27 -75 33 -105q29 -138 -29 -258q-32 -66 -86.5 -112t-124.5 -66q-55 -15 -111 -15q-6 0 -16 0.5t-15 0.5h-32v236q7 0 20 -0.5t18 -0.5q48 -1 71 5q44 12 64 55q24 47 11 106q-6 26 -24 73
q-27 75 -33 106q-19 88 0 174.5t71 151.5q1 1 3 2.5t2 2.5t-2 3l-3 3q-52 65 -71 151.5t0 174.5q6 28 33 105q18 46 24 74q13 59 -11 106z" />
    <glyph glyph-name="nonbreakingspace" unicode="&#xa0;" horiz-adv-x="573" 
 />
    <glyph glyph-name="exclamdown" unicode="&#xa1;" horiz-adv-x="485" 
d="M125 -412l2 1000h233l-2 -1000h-233zM125 1000h235v-235h-235v235z" />
    <glyph glyph-name="cent" unicode="&#xa2;" horiz-adv-x="1173" 
d="M635 214q73 0 135 34.5t101 92.5l196 -131q-55 -82 -136.5 -139t-178.5 -79v-227h-235v227q-174 40 -288 181.5t-114 325.5q0 183 114 324.5t288 181.5v231h235v-231q98 -22 179.5 -78.5t135.5 -138.5l-196 -131q-39 58 -101 92t-135 34q-118 0 -201.5 -83t-83.5 -201
t83.5 -201.5t201.5 -83.5z" />
    <glyph glyph-name="sterling" unicode="&#xa3;" horiz-adv-x="1230" 
d="M588 235h537v-235h-1000v235h29q91 0 157.5 40.5t91.5 123.5q28 94 12 189h-261v236h150q-32 82 -32 173q0 155 93.5 277t244.5 151q102 19 204 -13.5t176 -107.5q45 -45 76 -104l-198 -132q-23 61 -76 94t-108.5 31.5t-105 -38t-64.5 -102.5q-5 -20 -5.5 -40.5t3 -40.5
t8.5 -37.5t14.5 -38.5t16.5 -35.5t19 -36.5h291v-236h-210q4 -29 4 -67q2 -159 -67 -286z" />
    <glyph glyph-name="yen" unicode="&#xa5;" horiz-adv-x="1406" 
d="M1292 1412l-236 -353h177v-235h-334l-78 -118h412v-235h-412v-471h-235v471h-412v235h412l-79 118h-333v235h176l-235 353h294l294 -441l294 441h295z" />
    <glyph glyph-name="section" unicode="&#xa7;" horiz-adv-x="1234" 
d="M1106 401q5 -134 -75 -242q-11 -15 -37 -43q24 -63 25 -126q5 -135 -75 -243q-66 -88 -173 -136q-95 -42 -205 -42q-207 0 -351 127q-68 60 -109 144q-6 13 -16 39l218 91q16 -57 63 -98q77 -68 195 -68q59 0 109.5 22.5t79.5 60.5q36 50 28 110q-6 45 -35 81
q-34 42 -103 79q-49 26 -158 65t-162 69q-32 19 -58 37q-61 45 -100 111q-75 130 -32 277q29 98 100 172q-50 115 -13 240q23 80 77.5 146t127.5 104q114 59 248 53q127 -6 234.5 -72t155.5 -178q-8 -3 -63.5 -26.5t-105 -44t-49.5 -19.5q-25 55 -86 81.5t-128 23.5
q-96 -5 -151 -71q-46 -54 -36 -119q5 -34 28 -59q31 -33 76.5 -54.5t112 -42.5t90.5 -31q87 -36 153 -80q67 -45 112 -101q83 -102 88 -237zM847 307q26 41 23 92.5t-35 90.5q-34 42 -103 79q-49 26 -158 65t-162 69q-3 2 -8.5 5.5t-8.5 4.5q-33 -39 -37 -89t29 -89
q31 -33 76.5 -54.5t112 -42.5t90.5 -31q107 -43 181 -100z" />
    <glyph glyph-name="dieresis" unicode="&#xa8;" horiz-adv-x="720" 
d="M301 1412v-235h-235v235h235zM654 1412v-235h-235v235h235z" />
    <glyph glyph-name="copyright" unicode="&#xa9;" horiz-adv-x="1701" 
d="M1133 37q-133 -57 -283 -57q-148 0 -282 57q-132 57 -231 156q-98 98 -155 230q-57 133 -57 283q0 148 57 282q57 133 155 231t231 155q134 57 282 57q150 0 283 -57q132 -57 230 -155q99 -99 156 -231q57 -133 57 -282q0 -150 -57 -283q-56 -130 -156 -230t-230 -156z
M1080 1249q-108 46 -230 46q-121 0 -229 -46q-105 -45 -187 -127q-80 -80 -126 -187q-47 -111 -47 -229t47 -229q46 -109 126 -188q80 -80 187 -126q108 -46 229 -46q122 0 230 46q107 46 187 126q79 80 126 188q46 108 46 229t-46 229q-46 107 -126 187q-82 82 -187 127z
M851 412q75 0 139 35.5t105 95.5l118 -79q-60 -89 -155.5 -141.5t-206.5 -52.5q-181 0 -308 127.5t-127 308.5t127 308t308 127q112 0 207.5 -52t154.5 -141l-118 -79q-40 60 -104.5 95t-139.5 35q-122 0 -208 -86t-86 -207q0 -122 86.5 -208t207.5 -86z" />
    <glyph glyph-name="ordfeminine" unicode="&#xaa;" horiz-adv-x="706" 
d="M490 1412h117v-499h-117v44q-56 -54 -142 -54q-107 0 -183.5 76.5t-76.5 183.5t76.5 183t183.5 76q86 0 142 -54v44zM348 1021q58 0 100 41.5t42 100.5t-42 100.5t-100 41.5t-100 -41.5t-42 -100.5t42 -100.5t100 -41.5z" />
    <glyph glyph-name="guillemotleft" unicode="&#xab;" horiz-adv-x="1361" 
d="M628 912v-235l-318 -177l318 -176v-236l-530 295v235zM1246 912v-235l-318 -177l318 -176v-236l-530 295v235z" />
    <glyph glyph-name="softhyphen" unicode="&#xad;" horiz-adv-x="0" 
 />
    <glyph glyph-name="registered" unicode="&#xae;" horiz-adv-x="1701" 
d="M1133 38q-133 -57 -283 -57q-148 0 -282 57q-132 57 -231 156q-98 98 -155 230q-57 134 -57 283t57 282t155 231t231 155q134 57 282 57q150 0 283 -57q132 -57 230 -155q99 -99 156 -231q57 -133 57 -282t-57 -283q-56 -130 -156 -230t-230 -156zM1080 1249
q-111 47 -230 47q-118 0 -229 -47q-107 -46 -187 -126t-126 -187q-47 -111 -47 -229q0 -119 47 -230q46 -107 126 -187t187 -126q108 -46 229 -46q122 0 230 46q107 46 187 126t126 187q46 108 46 230q0 121 -46 229q-46 107 -126 187t-187 126zM1184 283h-165l-186 282
h-126v-282h-141v847h318q117 0 199.5 -82.5t82.5 -199.5q0 -89 -50 -161t-131 -103zM707 989v-282h177q58 0 99.5 41.5t41.5 99.5t-41.5 99.5t-99.5 41.5h-177z" />
    <glyph glyph-name="degree" unicode="&#xb0;" horiz-adv-x="696" 
d="M348 1422q107 0 183 -76.5t76 -183.5t-76 -183.5t-183 -76.5t-183.5 76.5t-76.5 183.5t76.5 183.5t183.5 76.5zM348 1020q58 0 100 42t42 100t-42 100t-100 42t-100 -42t-42 -100t42 -100t100 -42z" />
    <glyph glyph-name="twosuperior" unicode="&#xb2;" horiz-adv-x="684" 
d="M574 1147q-6 -22 -21 -46.5t-24 -36t-34 -39.5q-29 -33 -86.5 -99.5t-85.5 -99.5h246v-120h-477v59l306 339q52 51 44.5 113.5t-72.5 86.5q-57 20 -103 -13q-16 -12 -32 -32.5t-20 -35.5q-11 3 -61 23t-49 22q25 72 88 118t142 46q12 0 32 -2q57 -7 104.5 -40t75.5 -83
q47 -83 27 -160z" />
    <glyph glyph-name="threesuperior" unicode="&#xb3;" horiz-adv-x="698" 
d="M445 1188q68 -32 109 -96t41 -142q0 -110 -76.5 -186.5t-186.5 -76.5q-81 0 -147.5 45t-96.5 117l110 46q17 -40 53.5 -64.5t80.5 -24.5q60 0 102 42t42 102t-42 102t-102 42q-38 0 -60 -10v70l104 149h-233v109h417v-59z" />
    <glyph glyph-name="acute" unicode="&#xb4;" horiz-adv-x="485" 
d="M479 1471l-255 -323h-167l128 323h294z" />
    <glyph glyph-name="mu" unicode="&#xb5;" horiz-adv-x="1177" 
d="M804 1000h236v-998h-236v74q-89 -96 -216 -96q-114 0 -215 55v-447h-236v1412h236v-568q0 -89 63 -152.5t152 -63.5t152.5 63.5t63.5 152.5v568z" />
    <glyph glyph-name="paragraph" unicode="&#xb6;" horiz-adv-x="1499" 
d="M1391 1412v-235h-177v-1589h-235v1589h-177v-1589h-235v912q-94 0 -178 36q-82 35 -145 98t-98 145t-35 177q0 96 35 178t98 145t145 98t178 35h824zM567 736v441q-91 0 -156 -64.5t-65 -156.5q0 -91 64.5 -155.5t156.5 -64.5z" />
    <glyph glyph-name="periodcentered" unicode="&#xb7;" horiz-adv-x="366" 
d="M301 618v-235h-235v235h235z" />
    <glyph glyph-name="cedilla" unicode="&#xb8;" horiz-adv-x="0" 
d="M-176 -294l116 294h235l-116 -294h-235z" />
    <glyph glyph-name="onesuperior" unicode="&#xb9;" horiz-adv-x="413" 
d="M92 1412h206v-706h-118v599h-88v107z" />
    <glyph glyph-name="ordmasculine" unicode="&#xba;" horiz-adv-x="696" 
d="M348 1422q107 0 183 -76.5t76 -183.5t-76 -183.5t-183 -76.5t-183.5 76.5t-76.5 183.5t76.5 183.5t183.5 76.5zM348 1020q58 0 100 42t42 100t-42 100t-100 42t-100 -42t-42 -100t42 -100t100 -42z" />
    <glyph glyph-name="guillemotright" unicode="&#xbb;" horiz-adv-x="1361" 
d="M733 677v235l529 -294v-235l-529 -295v236l317 176zM115 677v235l529 -294v-235l-529 -295v236l317 176z" />
    <glyph glyph-name="onequarter" unicode="&#xbc;" horiz-adv-x="1255" 
d="M841 1412h117l-647 -1412h-118zM1037 255h117v-108h-117v-147h-118v147h-324v59l383 500h59v-451zM782 255h137v182zM203 706v599h-88v107h206v-706h-118z" />
    <glyph glyph-name="onehalf" unicode="&#xbd;" horiz-adv-x="1343" 
d="M311 0h-118l648 1412h117zM115 1412h206v-706h-118v599h-88v107zM1226 441q-12 -46 -79 -123q-29 -33 -86 -99.5t-86 -99.5h246v-119h-477v59l306 339q52 51 44.5 113.5t-72.5 86.5q-57 20 -103 -13q-16 -12 -32 -32.5t-20 -35.5q-11 3 -61 23t-49 22q25 72 88 118
t142 46q12 0 32 -2q57 -7 104.5 -40t75.5 -83q47 -83 27 -160z" />
    <glyph glyph-name="threequarters" unicode="&#xbe;" horiz-adv-x="1458" 
d="M1239 255h117v-108h-117v-147h-118v147h-324v59l383 500h59v-451zM1121 255v182l-137 -182h137zM451 1188q68 -32 109 -96t41 -142q0 -110 -76.5 -186.5t-186.5 -76.5q-81 0 -147.5 45t-96.5 117l110 46q17 -40 53.5 -64.5t80.5 -24.5q60 0 102 42t42 102t-42 102
t-102 42q-38 0 -60 -10v70l104 149h-233v109h417v-59zM513 0h-118l648 1412h117z" />
    <glyph glyph-name="questiondown" unicode="&#xbf;" horiz-adv-x="843" 
d="M496 765v235h235v-235h-235zM121 -144q-37 86 -37 183t37 183t101 150q65 65 149 101q60 25 125 33v82h235v-314q-7 -1 -29.5 -0.5t-56 1.5t-34.5 1q-99 2 -159 -26t-96.5 -86.5t-36.5 -124.5q0 -97 69 -166t167 -69q82 0 145 50.5t83 127.5l219 -90q-8 -24 -13 -36
q-37 -86 -101 -150t-150 -101t-183 -37q-98 0 -184 37q-84 36 -149 101q-64 64 -101 150z" />
    <glyph glyph-name="Agrave" unicode="&#xc0;" horiz-adv-x="1427" 
d="M831 1412l559 -1412h-235l-128 324h-627l-128 -324h-235l559 1412h235zM494 559h440l-220 556zM625 1560l-255 323h295l127 -323h-167z" />
    <glyph glyph-name="Aacute" unicode="&#xc1;" horiz-adv-x="1427" 
d="M831 1412l559 -1412h-235l-128 324h-627l-128 -324h-235l559 1412h235zM494 559h440l-220 556zM1067 1883l-255 -323h-167l128 323h294z" />
    <glyph glyph-name="Acircumflex" unicode="&#xc2;" horiz-adv-x="1427" 
d="M1052 1560h-172l-166 215l-167 -215h-172l157 323h363zM831 1412l559 -1412h-235l-128 324h-627l-128 -324h-235l559 1412h235zM494 559h440l-220 556z" />
    <glyph glyph-name="Atilde" unicode="&#xc3;" horiz-adv-x="1427" 
d="M901 1822l146 -22q-8 -73 -9 -79q-8 -45 -25 -79q-43 -86 -133 -99q-51 -7 -103 10q-18 6 -37.5 16t-41.5 23.5t-36 20.5q-120 63 -131 -25l-5 -55l-146 21q9 73 10 79q9 48 24 79q43 87 133 100q51 7 103 -10q18 -6 37 -16t41.5 -23.5t35.5 -20.5q122 -64 133 24z
M831 1412l559 -1412h-235l-128 324h-627l-128 -324h-235l559 1412h235zM494 559h440l-220 556z" />
    <glyph glyph-name="Adieresis" unicode="&#xc4;" horiz-adv-x="1427" 
d="M655 1795v-235h-236v235h236zM1008 1795v-235h-235v235h235zM831 1412l559 -1412h-235l-128 324h-627l-128 -324h-235l559 1412h235zM494 559h440l-220 556z" />
    <glyph glyph-name="Aring" unicode="&#xc5;" horiz-adv-x="1427" 
d="M833 1409l557 -1409h-235l-128 324h-627l-128 -324h-235l558 1409q-44 30 -70.5 77.5t-26.5 102.5q0 89 63.5 152.5t152.5 63.5t152 -63.5t63 -152.5q0 -55 -26 -102.5t-70 -77.5zM714 1687q-40 0 -69 -28.5t-29 -69.5t29 -69.5t69 -28.5t69 28.5t29 69.5t-29 69.5
t-69 28.5zM494 559h440l-220 556z" />
    <glyph glyph-name="AE" unicode="&#xc6;" horiz-adv-x="1933" 
d="M596 1414l1236 -2v-215h-765v-378l2 -5h645v-216h-647l3 -382h762v-216h-1001v325h-431l-128 -323h-235zM494 561h337v637h-88z" />
    <glyph glyph-name="Ccedilla" unicode="&#xc7;" horiz-adv-x="1499" 
d="M1424 303q-87 -129 -220 -213t-290 -104l-111 -280h-235l113 288q-253 49 -420 249t-167 463q0 148 57.5 282.5t154.5 231.5t231.5 154.5t282.5 57.5q186 0 345.5 -87t258.5 -235l-197 -132q-67 100 -174.5 159t-232.5 59q-133 0 -245.5 -65.5t-178 -178.5t-65.5 -246
q0 -202 143.5 -345.5t345.5 -143.5q125 0 232.5 58.5t174.5 158.5z" />
    <glyph glyph-name="Egrave" unicode="&#xc8;" horiz-adv-x="1265" 
d="M399 1197v-382h648v-216h-648v-383h765v-216h-1000v1413h1000v-216h-765zM708 1562l-255 323h294l128 -323h-167z" />
    <glyph glyph-name="Eacute" unicode="&#xc9;" horiz-adv-x="1265" 
d="M399 1197v-382h648v-216h-648v-383h765v-216h-1000v1413h1000v-216h-765zM875 1885l-255 -323h-167l128 323h294z" />
    <glyph glyph-name="Ecircumflex" unicode="&#xca;" horiz-adv-x="1265" 
d="M399 1197v-382h648v-216h-648v-383h765v-216h-1000v1413h1000v-216h-765zM1002 1562h-171l-167 215l-167 -215h-171l157 323h363z" />
    <glyph glyph-name="Edieresis" unicode="&#xcb;" horiz-adv-x="1265" 
d="M399 1197v-383h648v-216h-648v-382h765v-216h-1000v1412h1000v-215h-765zM605 1795v-235h-235v235h235zM958 1795v-235h-235v235h235z" />
    <glyph glyph-name="Igrave" unicode="&#xcc;" horiz-adv-x="563" 
d="M399 0h-235v1413h235v-1413zM232 1562l-255 323h295l127 -323h-167z" />
    <glyph glyph-name="Iacute" unicode="&#xcd;" horiz-adv-x="563" 
d="M399 0h-235v1413h235v-1413zM586 1885l-255 -323h-167l127 323h295z" />
    <glyph glyph-name="Icircumflex" unicode="&#xce;" horiz-adv-x="563" 
d="M399 0h-236v1413h236v-1413zM619 1562h-171l-167 215l-167 -215h-171l157 323h363z" />
    <glyph glyph-name="Idieresis" unicode="&#xcf;" horiz-adv-x="565" 
d="M400 0h-236v1412h236v-1412zM223 1795v-235h-235v235h235zM576 1795v-235h-235v235h235z" />
    <glyph glyph-name="Eth" unicode="&#xd0;" horiz-adv-x="1605" 
d="M805 1412q144 0 274.5 -56t225.5 -150.5t151 -225t56 -274.5t-56 -274.5t-151 -225t-225.5 -150.5t-274.5 -56h-529v589h-206v235h206v588h529zM805 236q194 0 332 138t138 332t-138 332t-332 138h-294v-352h441v-235h-441v-355z" />
    <glyph glyph-name="Ntilde" unicode="&#xd1;" horiz-adv-x="1564" 
d="M1164 1413h236v-1412h-236v-1l-765 1011v-1010h-235v1412h235l765 -1010v1010zM970 1822l145 -22q-8 -73 -9 -79q-8 -45 -25 -79q-43 -86 -133 -99q-51 -7 -103 10q-18 6 -37.5 16t-41.5 23.5t-36 20.5q-120 63 -131 -25l-5 -55l-146 21q9 73 10 79q9 48 24 79
q43 87 133 100q51 7 103 -10q18 -6 37 -16t41.5 -23.5t35.5 -20.5q122 -64 133 24z" />
    <glyph glyph-name="Ograve" unicode="&#xd2;" horiz-adv-x="1640" 
d="M820 1432q148 0 282.5 -57.5t231.5 -154.5t154.5 -231.5t57.5 -282.5t-57.5 -282.5t-154.5 -231.5t-231.5 -154.5t-282.5 -57.5t-282.5 57.5t-231.5 154.5t-154.5 231.5t-57.5 282.5t57.5 282.5t154.5 231.5t231.5 154.5t282.5 57.5zM820 217q202 0 345.5 143.5
t143.5 345.5q0 133 -65.5 246t-178 178.5t-245.5 65.5t-245.5 -65.5t-178 -178.5t-65.5 -246q0 -202 143.5 -345.5t345.5 -143.5zM864 1560l-255 323h294l128 -323h-167z" />
    <glyph glyph-name="Oacute" unicode="&#xd3;" horiz-adv-x="1640" 
d="M820 1432q148 0 282.5 -57.5t231.5 -154.5t154.5 -231.5t57.5 -282.5t-57.5 -282.5t-154.5 -231.5t-231.5 -154.5t-282.5 -57.5t-282.5 57.5t-231.5 154.5t-154.5 231.5t-57.5 282.5t57.5 282.5t154.5 231.5t231.5 154.5t282.5 57.5zM820 217q202 0 345.5 143.5
t143.5 345.5q0 133 -65.5 246t-178 178.5t-245.5 65.5t-245.5 -65.5t-178 -178.5t-65.5 -246q0 -202 143.5 -345.5t345.5 -143.5zM1031 1883l-255 -323h-167l128 323h294z" />
    <glyph glyph-name="Ocircumflex" unicode="&#xd4;" horiz-adv-x="1640" 
d="M820 1432q148 0 282.5 -57.5t231.5 -154.5t154.5 -231.5t57.5 -282.5t-57.5 -282.5t-154.5 -231.5t-231.5 -154.5t-282.5 -57.5t-282.5 57.5t-231.5 154.5t-154.5 231.5t-57.5 282.5t57.5 282.5t154.5 231.5t231.5 154.5t282.5 57.5zM820 217q202 0 345.5 143.5
t143.5 345.5q0 133 -65.5 246t-178 178.5t-245.5 65.5t-245.5 -65.5t-178 -178.5t-65.5 -246q0 -202 143.5 -345.5t345.5 -143.5zM1158 1558h-171l-167 216l-167 -216h-171l157 324h363z" />
    <glyph glyph-name="Otilde" unicode="&#xd5;" horiz-adv-x="1640" 
d="M820 1432q148 0 282.5 -57.5t231.5 -154.5t154.5 -231.5t57.5 -282.5t-57.5 -282.5t-154.5 -231.5t-231.5 -154.5t-282.5 -57.5t-282.5 57.5t-231.5 154.5t-154.5 231.5t-57.5 282.5t57.5 282.5t154.5 231.5t231.5 154.5t282.5 57.5zM820 217q202 0 345.5 143.5
t143.5 345.5q0 133 -65.5 246t-178 178.5t-245.5 65.5t-245.5 -65.5t-178 -178.5t-65.5 -246q0 -202 143.5 -345.5t345.5 -143.5zM1008 1822l146 -22q-9 -73 -10 -79q-9 -48 -24 -79q-43 -86 -133 -99q-51 -8 -104 10q-24 8 -66 32.5t-48 27.5q-121 64 -132 -25l-5 -55
l-146 21q9 73 10 79q9 48 24 79q43 87 134 100q50 7 102 -10q18 -6 37 -16t41.5 -23.5t35.5 -20.5q122 -64 133 24z" />
    <glyph glyph-name="Odieresis" unicode="&#xd6;" horiz-adv-x="1640" 
d="M820 1432q148 0 282.5 -57.5t231.5 -154.5t154.5 -231.5t57.5 -282.5t-57.5 -282.5t-154.5 -231.5t-231.5 -154.5t-282.5 -57.5t-282.5 57.5t-231.5 154.5t-154.5 231.5t-57.5 282.5t57.5 282.5t154.5 231.5t231.5 154.5t282.5 57.5zM820 217q202 0 345.5 143.5
t143.5 345.5q0 133 -65.5 246t-178 178.5t-245.5 65.5t-245.5 -65.5t-178 -178.5t-65.5 -246q0 -202 143.5 -345.5t345.5 -143.5zM761 1793v-235h-235v235h235zM1114 1793v-235h-235v235h235z" />
    <glyph glyph-name="multiply" unicode="&#xd7;" horiz-adv-x="1089" 
d="M988 223l-166 -167l-278 278l-270 -271l-167 167l271 270l-278 278l167 166l277 -277l271 270l166 -166l-270 -271z" />
    <glyph glyph-name="Oslash" unicode="&#xd8;" horiz-adv-x="1652" 
d="M1355 1203q93 -99 145 -227.5t52 -269.5q0 -148 -57.5 -282.5t-154.5 -231.5t-231.5 -154.5t-282.5 -57.5q-213 0 -393 116l-97 -116l-135 113l96 116q-93 99 -145 227.5t-52 269.5q0 148 57.5 282.5t154.5 231.5t231.5 154.5t282.5 57.5q214 0 394 -116l96 116l136 -113
zM337 706q0 -178 113 -313l617 740q-112 63 -241 63q-133 0 -245.5 -65.5t-178 -178.5t-65.5 -246zM826 217q133 0 246 65.5t178.5 178t65.5 245.5q0 178 -114 314l-616 -740q112 -63 240 -63z" />
    <glyph glyph-name="Ugrave" unicode="&#xd9;" horiz-adv-x="1347" 
d="M717 1560l-255 323h294l128 -323h-167zM1203 1412v-902q0 -144 -71 -266t-193 -193t-266 -71t-266 71t-193 193t-71 266v902h236v-902q0 -122 86 -208t208 -86t208 86t86 208v902h236z" />
    <glyph glyph-name="Uacute" unicode="&#xda;" horiz-adv-x="1347" 
d="M1203 1412v-902q0 -144 -71 -266t-193 -193t-266 -71t-266 71t-193 193t-71 266v902h236v-902q0 -122 86 -208t208 -86t208 86t86 208v902h236zM1016 1883l-255 -323h-166l127 323h294z" />
    <glyph glyph-name="Ucircumflex" unicode="&#xdb;" horiz-adv-x="1347" 
d="M1011 1558h-171l-167 216l-167 -216h-171l157 324h363zM1203 1412v-902q0 -144 -71 -266t-193 -193t-266 -71t-266 71t-193 193t-71 266v902h236v-902q0 -122 86 -208t208 -86t208 86t86 208v902h236z" />
    <glyph glyph-name="Udieresis" unicode="&#xdc;" horiz-adv-x="1347" 
d="M614 1793v-235h-235v235h235zM967 1793v-235h-235v235h235zM1203 1412v-902q0 -144 -71 -266t-193 -193t-266 -71t-266 71t-193 193t-71 266v902h236v-902q0 -122 86 -208t208 -86t208 86t86 208v902h236z" />
    <glyph glyph-name="Yacute" unicode="&#xdd;" horiz-adv-x="1222" 
d="M905 1412h295l-471 -706v-706h-236v706l-470 706h294l294 -441zM915 1883l-255 -323h-167l128 323h294z" />
    <glyph glyph-name="Thorn" unicode="&#xde;" horiz-adv-x="1243" 
d="M694 1177q195 0 332.5 -138t137.5 -333t-137.5 -333t-332.5 -138h-295v-235h-235v1412h235v-235h295zM694 471q98 0 166.5 68.5t68.5 166.5t-69 167t-166 69h-295v-471h295z" />
    <glyph glyph-name="germandbls" unicode="&#xdf;" horiz-adv-x="1177" 
d="M899 748q83 -58 131.5 -149t48.5 -197q0 -175 -123 -298.5t-298 -123.5q-129 0 -235 71l131 196q46 -31 104 -31q77 0 131.5 54.5t54.5 131.5t-54.5 132t-131.5 55h-104v235h15q77 0 132 54.5t55 131.5t-55 132t-132 55t-131.5 -55t-54.5 -132v-1010h-236v1010
q0 175 123.5 298.5t298.5 123.5t298.5 -123.5t123.5 -298.5q0 -146 -92 -262z" />
    <glyph glyph-name="agrave" unicode="&#xe0;" 
d="M901 1000h235v-998h-235v87q-112 -109 -285 -109q-106 0 -202 41t-166 111t-111 166t-41 202t41 202t111 166t166 111t202 41q174 0 285 -108v88zM616 216q118 0 201.5 83t83.5 201t-83.5 201.5t-201.5 83.5t-201 -83.5t-83 -201.5t83 -201t201 -83zM636 1146l-255 324
h294l128 -324h-167z" />
    <glyph glyph-name="aacute" unicode="&#xe1;" 
d="M901 1000h235v-998h-235v87q-112 -109 -285 -109q-106 0 -202 41t-166 111t-111 166t-41 202t41 202t111 166t166 111t202 41q174 0 285 -108v88zM616 216q118 0 201.5 83t83.5 201t-83.5 201.5t-201.5 83.5t-201 -83.5t-83 -201.5t83 -201t201 -83zM999 1470l-255 -324
h-167l127 324h295z" />
    <glyph glyph-name="acircumflex" unicode="&#xe2;" 
d="M901 1000h235v-998h-235v87q-112 -109 -285 -109q-106 0 -202 41t-166 111t-111 166t-41 202t41 202t111 166t166 111t202 41q174 0 285 -108v88zM616 216q118 0 201.5 83t83.5 201t-83.5 201.5t-201.5 83.5t-201 -83.5t-83 -201.5t83 -201t201 -83zM955 1146h-172
l-167 216l-167 -216h-171l157 324h363z" />
    <glyph glyph-name="atilde" unicode="&#xe3;" 
d="M901 1000h235v-998h-235v87q-112 -109 -285 -109q-106 0 -202 41t-166 111t-111 166t-41 202t41 202t111 166t166 111t202 41q174 0 285 -108v88zM616 216q118 0 201.5 83t83.5 201t-83.5 201.5t-201.5 83.5t-201 -83.5t-83 -201.5t83 -201t201 -83zM804 1439l146 -21
q-9 -73 -10 -79q-9 -48 -24 -79q-43 -86 -133 -99q-53 -8 -103 9q-24 8 -66 33t-49 28q-121 64 -132 -25l-5 -56l-145 22q8 73 9 79q8 45 25 79q43 86 133 99q51 7 103 -10q18 -6 37 -15.5t41.5 -23t34.5 -20.5q122 -64 133 24z" />
    <glyph glyph-name="adieresis" unicode="&#xe4;" 
d="M587 1412v-235h-236v235h236zM940 1412v-235h-236v235h236zM901 1000h235v-998h-235v87q-112 -109 -285 -109q-106 0 -202 41t-166 111t-111 166t-41 202t41 202t111 166t166 111t202 41q174 0 285 -108v88zM616 216q118 0 201.5 83t83.5 201t-83.5 201.5t-201.5 83.5
t-201 -83.5t-83 -201.5t83 -201t201 -83z" />
    <glyph glyph-name="aring" unicode="&#xe5;" 
d="M901 1000h235v-998h-235v87q-112 -109 -285 -109q-106 0 -202 41t-166 111t-111 166t-41 202t41 202t111 166t166 111t202 41q174 0 285 -108v88zM616 216q118 0 201.5 83t83.5 201t-83.5 201.5t-201.5 83.5t-201 -83.5t-83 -201.5t83 -201t201 -83zM832 1354
q0 -89 -63.5 -152.5t-152.5 -63.5t-152.5 63.5t-63.5 152.5t63.5 152t152.5 63t152.5 -63t63.5 -152zM714 1354q0 40 -29 69t-69 29t-69 -29t-29 -69t29 -69t69 -29t69 29t29 69z" />
    <glyph glyph-name="ae" unicode="&#xe6;" horiz-adv-x="1908" 
d="M1815 413h-783q14 -45 45 -85q40 -52 99 -81.5t127 -29.5q127 0 211 94l197 -131q-73 -92 -179.5 -145t-228.5 -53q-121 0 -226 51v-32h-235v88q-32 -31 -40 -38.5t-33.5 -27.5t-42.5 -25.5t-46 -11.5t-64 -6q-106 0 -202 41t-166 111t-111 166t-41 202q0 70 18 136
q25 93 82.5 171.5t138.5 130.5q80 52 178 72q133 28 226 -7q46 -18 103 -60v57h235v-30q105 51 226 51q189 0 332 -119.5t178 -301.5q10 -53 10 -98q0 -43 -8 -89zM822 304q79 82 79 196q0 115 -80 198q-84 87 -205 87q-118 0 -201 -83.5t-83 -201.5t83 -201t201 -83
q121 0 206 88zM1077 675q-27 -36 -41 -75h534q-30 83 -103 134.5t-164 51.5q-68 0 -127 -29.5t-99 -81.5z" />
    <glyph glyph-name="ccedilla" unicode="&#xe7;" horiz-adv-x="1126" 
d="M616 216q73 0 135.5 34t101.5 92l195 -131q-55 -82 -137.5 -139t-180.5 -79l-114 -287h-235l114 289q-174 42 -286.5 182.5t-112.5 322.5q0 106 41 202t111 166t166 111t202 41q133 0 247 -62.5t185 -168.5l-195 -131q-39 58 -101.5 92.5t-135.5 34.5q-118 0 -201 -83.5
t-83 -201.5t83 -201t201 -83z" />
    <glyph glyph-name="egrave" unicode="&#xe8;" horiz-adv-x="1222" 
d="M636 1146l-255 324h294l127 -324h-166zM1129 412h-783q28 -87 102.5 -141.5t167.5 -54.5q128 0 212 94l196 -132q-73 -92 -179.5 -145t-228.5 -53q-191 0 -335.5 123.5t-176.5 308.5q-8 46 -8 88q0 50 9 98q35 182 178.5 302t332.5 120t332.5 -120t178.5 -302
q9 -48 9 -98q0 -47 -7 -88zM349 598h534q-30 83 -103 135t-164 52t-164 -52t-103 -135z" />
    <glyph glyph-name="eacute" unicode="&#xe9;" horiz-adv-x="1222" 
d="M999 1470l-255 -324h-167l127 324h295zM1129 412h-783q28 -87 102.5 -141.5t167.5 -54.5q128 0 212 94l196 -132q-73 -92 -179.5 -145t-228.5 -53q-191 0 -335.5 123.5t-176.5 308.5q-8 46 -8 88q0 50 9 98q35 182 178.5 302t332.5 120t332.5 -120t178.5 -302
q9 -48 9 -98q0 -47 -7 -88zM349 598h534q-30 83 -103 135t-164 52t-164 -52t-103 -135z" />
    <glyph glyph-name="ecircumflex" unicode="&#xea;" horiz-adv-x="1222" 
d="M955 1148h-172l-167 215l-167 -215h-171l157 323h363zM1129 412h-783q28 -87 102.5 -141.5t167.5 -54.5q128 0 212 94l196 -132q-73 -92 -179.5 -145t-228.5 -53q-191 0 -335.5 123.5t-176.5 308.5q-8 46 -8 88q0 50 9 98q35 182 178.5 302t332.5 120t332.5 -120
t178.5 -302q9 -48 9 -98q0 -47 -7 -88zM349 598h534q-30 83 -103 135t-164 52t-164 -52t-103 -135z" />
    <glyph glyph-name="edieresis" unicode="&#xeb;" horiz-adv-x="1222" 
d="M557 1412v-235h-235v235h235zM910 1412v-235h-235v235h235zM1129 412h-783q28 -87 102.5 -141.5t167.5 -54.5q128 0 212 94l196 -132q-73 -92 -179.5 -145t-228.5 -53q-191 0 -335.5 123.5t-176.5 308.5q-8 46 -8 88q0 50 9 98q35 182 178.5 302t332.5 120t332.5 -120
t178.5 -302q9 -48 9 -98q0 -47 -7 -88zM349 598h534q-30 83 -103 135t-164 52t-164 -52t-103 -135z" />
    <glyph glyph-name="igrave" unicode="&#xec;" horiz-adv-x="526" 
d="M145 0l3 1000h233l-2 -1000h-234zM214 1148l-255 323h294l128 -323h-167z" />
    <glyph glyph-name="iacute" unicode="&#xed;" horiz-adv-x="526" 
d="M145 0l3 1000h233l-2 -1000h-234zM567 1471l-255 -323h-167l128 323h294z" />
    <glyph glyph-name="icircumflex" unicode="&#xee;" horiz-adv-x="530" 
d="M147 0l2 1000h233l-2 -1000h-233zM603 1147h-172l-166 216l-167 -216h-172l157 324h363z" />
    <glyph glyph-name="idieresis" unicode="&#xef;" horiz-adv-x="528" 
d="M146 0l2 1000h233l-2 -1000h-233zM205 1412v-235h-236v235h236zM558 1412v-235h-236v235h236z" />
    <glyph glyph-name="eth" unicode="&#xf0;" horiz-adv-x="1230" 
d="M914 977q8 -11 39 -54t41 -57.5t35.5 -53.5t35.5 -59t27.5 -56.5t24.5 -64t13 -62.5t6 -70q0 -106 -41 -202t-111 -166t-166 -111t-202 -41t-202 41t-166 111t-111 166t-41 202q0 128 58 239t158 183q50 33 100.5 52.5t87 23t66.5 3t45 -4.5l15 -5h1l-77 106l-145 -77
l-83 156l123 66l-123 170h274q19 -26 48 -65l122 65l83 -156l-99 -53q32 -45 91.5 -126.5t72.5 -99.5zM616 216q118 0 201.5 83t83.5 201t-83.5 201.5t-201.5 83.5t-201 -83.5t-83 -201.5t83 -201t201 -83z" />
    <glyph glyph-name="ntilde" unicode="&#xf1;" horiz-adv-x="1177" 
d="M786 1446l146 -21q-8 -73 -9 -79q-8 -45 -25 -79q-43 -86 -133 -99q-53 -8 -103 9q-24 8 -66 33t-49 28q-120 63 -131 -25l-5 -56l-146 22q9 73 10 79q9 48 24 79q43 86 133 99q51 7 103 -10q18 -6 37 -15.5t42 -23.5t35 -20q122 -64 133 24zM1050 569v-569h-236v569
q0 89 -63 152.5t-152 63.5t-152.5 -63.5t-63.5 -152.5v-569h-236v1000h236v-76q89 96 216 96q122 0 226 -60.5t164.5 -164.5t60.5 -226z" />
    <glyph glyph-name="ograve" unicode="&#xf2;" horiz-adv-x="1232" 
d="M616 1020q106 0 202 -41t166 -111t111 -166t41 -202t-41 -202t-111 -166t-166 -111t-202 -41t-202 41t-166 111t-111 166t-41 202t41 202t111 166t166 111t202 41zM616 216q118 0 201.5 83t83.5 201t-83.5 201.5t-201.5 83.5t-201 -83.5t-83 -201.5t83 -201t201 -83z
M636 1146l-255 324h294l128 -324h-167z" />
    <glyph glyph-name="oacute" unicode="&#xf3;" horiz-adv-x="1232" 
d="M616 1020q106 0 202 -41t166 -111t111 -166t41 -202t-41 -202t-111 -166t-166 -111t-202 -41t-202 41t-166 111t-111 166t-41 202t41 202t111 166t166 111t202 41zM616 216q118 0 201.5 83t83.5 201t-83.5 201.5t-201.5 83.5t-201 -83.5t-83 -201.5t83 -201t201 -83z
M999 1470l-255 -324h-167l127 324h295z" />
    <glyph glyph-name="ocircumflex" unicode="&#xf4;" horiz-adv-x="1232" 
d="M616 1020q106 0 202 -41t166 -111t111 -166t41 -202t-41 -202t-111 -166t-166 -111t-202 -41t-202 41t-166 111t-111 166t-41 202t41 202t111 166t166 111t202 41zM616 216q118 0 201.5 83t83.5 201t-83.5 201.5t-201.5 83.5t-201 -83.5t-83 -201.5t83 -201t201 -83z
M955 1146h-172l-167 216l-167 -216h-171l157 324h363z" />
    <glyph glyph-name="otilde" unicode="&#xf5;" horiz-adv-x="1232" 
d="M616 1020q106 0 202 -41t166 -111t111 -166t41 -202t-41 -202t-111 -166t-166 -111t-202 -41t-202 41t-166 111t-111 166t-41 202t41 202t111 166t166 111t202 41zM616 216q118 0 201.5 83t83.5 201t-83.5 201.5t-201.5 83.5t-201 -83.5t-83 -201.5t83 -201t201 -83z
M804 1446l146 -21q-9 -73 -10 -79q-9 -48 -24 -79q-43 -86 -133 -99q-53 -8 -103 9q-24 8 -66 33t-49 28q-121 64 -132 -25l-5 -56l-145 22q8 73 9 79q8 45 25 79q43 86 133 99q51 7 103 -10q18 -6 37 -15.5t41.5 -23t34.5 -20.5q122 -64 133 24z" />
    <glyph glyph-name="odieresis" unicode="&#xf6;" horiz-adv-x="1232" 
d="M616 1020q106 0 202 -41t166 -111t111 -166t41 -202t-41 -202t-111 -166t-166 -111t-202 -41t-202 41t-166 111t-111 166t-41 202t41 202t111 166t166 111t202 41zM616 216q118 0 201.5 83t83.5 201t-83.5 201.5t-201.5 83.5t-201 -83.5t-83 -201.5t83 -201t201 -83z
M557 1411v-236h-235v236h235zM910 1411v-236h-235v236h235z" />
    <glyph glyph-name="divide" unicode="&#xf7;" horiz-adv-x="1110" 
d="M1035 618v-235h-961v235h961zM672 235v-235h-235v235h235zM672 1000v-235h-235v235h235z" />
    <glyph glyph-name="oslash" unicode="&#xf8;" horiz-adv-x="1236" 
d="M991 863q147 -152 147 -363q0 -106 -41 -202t-111 -166t-166 -111t-202 -41q-152 0 -281 83l-52 -64l-91 75l52 63q-148 153 -148 363q0 106 41 202t111 166t166 111t202 41q153 0 281 -82l53 63l91 -74zM334 500q0 -99 63 -178l352 431q-62 32 -131 32
q-118 0 -201 -83.5t-83 -201.5zM618 216q118 0 201.5 83t83.5 201q0 100 -63 179l-352 -432q60 -31 130 -31z" />
    <glyph glyph-name="ugrave" unicode="&#xf9;" horiz-adv-x="1177" 
d="M598 1148l-255 323h294l128 -323h-167zM794 1000h235v-1000h-235v76q-89 -96 -216 -96q-122 0 -226 60.5t-164.5 165t-60.5 226.5v568h235v-568q0 -89 63.5 -152.5t152.5 -63.5t152.5 63.5t63.5 152.5v568z" />
    <glyph glyph-name="uacute" unicode="&#xfa;" horiz-adv-x="1177" 
d="M961 1471l-255 -323h-167l127 323h295zM794 1000h235v-1000h-235v76q-89 -96 -216 -96q-122 0 -226 60.5t-164.5 165t-60.5 226.5v568h235v-568q0 -89 63.5 -152.5t152.5 -63.5t152.5 63.5t63.5 152.5v568z" />
    <glyph glyph-name="ucircumflex" unicode="&#xfb;" horiz-adv-x="1177" 
d="M917 1148h-172l-167 215l-167 -215h-171l157 323h363zM794 1000h235v-1000h-235v76q-89 -96 -216 -96q-122 0 -226 60.5t-164.5 165t-60.5 226.5v568h235v-568q0 -89 63.5 -152.5t152.5 -63.5t152.5 63.5t63.5 152.5v568z" />
    <glyph glyph-name="udieresis" unicode="&#xfc;" horiz-adv-x="1177" 
d="M519 1412v-235h-235v235h235zM872 1412v-235h-235v235h235zM794 1000h235v-1000h-235v76q-89 -96 -216 -96q-122 0 -226 60.5t-164.5 165t-60.5 226.5v568h235v-568q0 -89 63.5 -152.5t152.5 -63.5t152.5 63.5t63.5 152.5v568z" />
    <glyph glyph-name="yacute" unicode="&#xfd;" horiz-adv-x="1148" 
d="M697 0l-166 -412h-245l165 412l-402 1000h245l280 -695l279 695h246zM893 1470l-255 -324h-167l127 324h295z" />
    <glyph glyph-name="thorn" unicode="&#xfe;" 
d="M667 1020q106 0 202 -41t166 -111t111 -166t41 -202t-41 -202t-111 -166t-166 -111t-202 -41q-172 0 -284 109v-501h-236v1824h236v-500q111 108 284 108zM667 216q118 0 201.5 83t83.5 201t-83.5 201.5t-201.5 83.5t-201 -83.5t-83 -201.5t83 -201t201 -83z" />
    <glyph glyph-name="ydieresis" unicode="&#xff;" horiz-adv-x="1148" 
d="M697 0l-166 -412h-245l165 412l-402 1000h245l280 -695l279 695h246zM510 1411v-236h-235v236h235zM863 1411v-236h-235v236h235z" />
    <glyph glyph-name="dotlessi" unicode="&#x131;" horiz-adv-x="526" 
d="M145 0l3 1000h233l-2 -1000h-234z" />
    <glyph glyph-name="Lslash" unicode="&#x141;" horiz-adv-x="1142" 
d="M1102 216v-216h-824v539l-206 -127v235l206 127v638h235v-493l324 199v-235l-324 -199v-468h589z" />
    <glyph glyph-name="lslash" unicode="&#x142;" horiz-adv-x="788" 
d="M723 1002v-235l-207 -128l-1 -639h-233l1 496l-207 -128v236l207 127l1 681h233l-1 -537z" />
    <glyph glyph-name="OE" unicode="&#x152;" horiz-adv-x="2414" 
d="M2311 1195h-765v-383h647v-215h-647v-383h765v-216h-1001v173q-99 -90 -225 -140.5t-265 -50.5q-148 0 -282.5 57.5t-231.5 154.5t-154.5 231.5t-57.5 282.5t57.5 282.5t154.5 231.5t231.5 154.5t282.5 57.5q139 0 265 -50.5t225 -140.5v170h1001v-216zM820 217
q202 0 345.5 143.5t143.5 345.5q0 133 -65.5 246t-178 178.5t-245.5 65.5t-245.5 -65.5t-178 -178.5t-65.5 -246q0 -202 143.5 -345.5t345.5 -143.5z" />
    <glyph glyph-name="oe" unicode="&#x153;" horiz-adv-x="1910" 
d="M1815 414h-783q18 -58 66 -109q84 -87 205 -87q127 0 211 94l197 -132q-73 -92 -179.5 -145t-228.5 -53q-196 0 -343 129q-148 -130 -344 -130q-106 0 -202 41t-166 111t-111 166t-41 202t41 202t111 166t166 111t202 41q196 0 343 -129q148 130 344 130q189 0 332 -120
t178 -302q10 -53 10 -98q0 -42 -8 -88zM616 216q121 0 206 88q79 82 79 197q0 114 -80 197q-84 87 -205 87q-118 0 -201 -83t-83 -201t83 -201.5t201 -83.5zM1036 600h534q-30 83 -103 135t-164 52q-121 0 -206 -88q-39 -40 -61 -99z" />
    <glyph glyph-name="Scaron" unicode="&#x160;" horiz-adv-x="1118" 
d="M933 638q83 -102 88 -237q5 -134 -75 -242q-66 -88 -173 -136q-97 -43 -205 -43q-206 0 -351 128q-68 60 -109 144q-6 13 -16 39l218 90q15 -56 63 -97q77 -68 195 -68q59 0 109.5 22.5t79.5 60.5q31 42 29.5 96t-35.5 95q-33 41 -104 79q-49 26 -158 65t-162 69
q-106 59 -158 148q-74 128 -31 277q23 80 77 146t127 104q114 59 248 53q127 -6 234.5 -72t155.5 -178q-8 -3 -63.5 -26.5t-105 -44t-49.5 -19.5q-25 55 -86 81.5t-128 23.5q-96 -5 -151 -71q-33 -39 -37 -89t29 -89q31 -33 76.5 -54.5t112 -42.5t90.5 -31q177 -73 265 -181
zM218 1882h172l167 -216l166 216h172l-157 -324h-363z" />
    <glyph glyph-name="scaron" unicode="&#x161;" horiz-adv-x="974" 
d="M839 444q34 -66 34 -137q0 -77 -38.5 -147t-105.5 -115q-82 -55 -201 -63q-26 -2 -38 -2q-75 0 -150 20q-165 44 -256 178l196 128q41 -58 119 -79q53 -14 113 -11q54 3 86 24q40 27 40 67q0 34 -32 60q-30 25 -132 28q-129 5 -223 74q-121 90 -121 238q0 66 29 127
q44 93 139.5 140.5t206.5 45.5q170 -3 289 -110q33 -29 62 -71l-195 -130q-14 18 -24 27q-41 37 -105.5 48.5t-115.5 -10.5q-32 -14 -45 -44t7 -60q13 -18 40.5 -27.5t41.5 -10.5t50 -3q240 -11 329 -185zM140 1471h172l166 -216l167 216h172l-157 -323h-363z" />
    <glyph glyph-name="umacron" unicode="&#x16b;" horiz-adv-x="1177" 
d="M794 1000h235v-998h-235v74q-89 -96 -216 -96q-122 0 -226 60.5t-164.5 165t-60.5 226.5v568h235v-568q0 -89 63.5 -152.5t152.5 -63.5t152.5 63.5t63.5 152.5v568zM877 1412v-235h-598v235h598z" />
    <glyph glyph-name="ubreve" unicode="&#x16d;" horiz-adv-x="1177" 
d="M794 1000h235v-998h-235v74q-89 -96 -216 -96q-122 0 -226 60.5t-164.5 165t-60.5 226.5v568h235v-568q0 -89 63.5 -152.5t152.5 -63.5t152.5 63.5t63.5 152.5v568zM765 1225q-77 -77 -187 -77t-187 77q-78 78 -78 187h197q0 -28 20 -48t48 -20q29 0 49 20t20 48h196
q0 -109 -78 -187z" />
    <glyph glyph-name="Ydieresis" unicode="&#x178;" horiz-adv-x="1222" 
d="M905 1412h295l-471 -706v-706h-236v706l-470 706h294l294 -441zM552 1793v-235h-235v235h235zM905 1793v-235h-235v235h235z" />
    <glyph glyph-name="Zcaron" unicode="&#x17d;" horiz-adv-x="1243" 
d="M1174 216v-216h-1108v98l78 118l651 981h-671v215h1021v-98l-79 -117l-651 -981h759zM281 1883h172l167 -216l166 216h172l-157 -323h-363z" />
    <glyph glyph-name="zcaron" unicode="&#x17e;" horiz-adv-x="1050" 
d="M183 1470h172l166 -216l167 216h172l-157 -324h-363zM443 216h520v-216h-883v118l490 667h-431v215h794v-118z" />
    <glyph glyph-name="circumflex" unicode="&#x2c6;" horiz-adv-x="788" 
d="M732 1148h-172l-166 215l-167 -215h-172l157 323h363z" />
    <glyph glyph-name="caron" unicode="&#x2c7;" horiz-adv-x="735" 
d="M29 1471h171l167 -215l167 215h171l-156 -323h-363z" />
    <glyph glyph-name="ring" unicode="&#x2da;" horiz-adv-x="591" 
d="M296 1456q89 0 152 -63.5t63 -152.5t-63 -152.5t-152 -63.5t-152.5 63.5t-63.5 152.5t63.5 152.5t152.5 63.5zM296 1142q40 0 69 29t29 69t-29 69t-69 29t-69 -29t-29 -69t29 -69t69 -29z" />
    <glyph glyph-name="ilde" unicode="&#x2dc;" horiz-adv-x="796" 
d="M587 1442l146 -21q-9 -73 -10 -79q-9 -50 -24 -80q-43 -86 -133 -99q-51 -7 -103 10q-24 8 -66 33t-49 28q-121 64 -132 -25l-5 -56l-145 21q8 73 9 79q9 50 24 80q43 86 134 99q50 7 102 -10q18 -6 37 -16t41.5 -23.5t35.5 -20.5q122 -64 133 24z" />
    <glyph glyph-name="endash" unicode="&#x2013;" horiz-adv-x="1093" 
d="M1027 618v-235h-961v235h961z" />
    <glyph glyph-name="emdash" unicode="&#x2014;" horiz-adv-x="1818" 
d="M1753 618v-235h-1687v235h1687z" />
    <glyph glyph-name="quoteleft" unicode="&#x2018;" horiz-adv-x="561" 
d="M484 1412l-177 -529h-235l235 529h177z" />
    <glyph glyph-name="quoteright" unicode="&#x2019;" horiz-adv-x="563" 
d="M78 883l176 529h236l-236 -529h-176z" />
    <glyph glyph-name="quotesinglbase" unicode="&#x201a;" horiz-adv-x="430" 
d="M-39 -294l177 529h235l-235 -529h-177z" />
    <glyph glyph-name="quotedblleft" unicode="&#x201c;" horiz-adv-x="1032" 
d="M484 1412l-177 -529h-235l235 529h177zM954 1412l-176 -529h-235l235 529h176z" />
    <glyph glyph-name="quotedblright" unicode="&#x201d;" horiz-adv-x="1034" 
d="M549 883l176 529h236l-236 -529h-176zM78 883l176 529h236l-236 -529h-176z" />
    <glyph glyph-name="quotedblbase" unicode="&#x201e;" horiz-adv-x="901" 
d="M432 -294l176 529h236l-236 -529h-176zM-39 -294l177 529h235l-235 -529h-177z" />
    <glyph glyph-name="dagger" unicode="&#x2020;" horiz-adv-x="1130" 
d="M1036 1000v-235h-353v-1177h-236v1177h-353v235h353v412h236v-412h353z" />
    <glyph glyph-name="daggerdbl" unicode="&#x2021;" horiz-adv-x="1204" 
d="M1073 765h-353v-294h353v-236h-353v-647h-236v647h-353v236h353v294h-353v235h353v412h236v-412h353v-235z" />
    <glyph glyph-name="bullet" unicode="&#x2022;" horiz-adv-x="366" 
d="M301 618v-235h-235v235h235z" />
    <glyph glyph-name="ellipsis" unicode="&#x2026;" horiz-adv-x="1191" 
d="M301 235v-235h-235v235h235zM713 235v-235h-235v235h235zM1125 235v-235h-236v235h236z" />
    <glyph glyph-name="guilsinglleft" unicode="&#x2039;" horiz-adv-x="743" 
d="M628 912v-235l-318 -177l318 -176v-236l-530 295v235z" />
    <glyph glyph-name="guilsinglright" unicode="&#x203a;" horiz-adv-x="743" 
d="M115 677v235l529 -294v-235l-529 -295v236l317 176z" />
    <glyph glyph-name="fraction" unicode="&#x2044;" horiz-adv-x="911" 
d="M191 0h-117l647 1412h118z" />
    <glyph glyph-name="zerosuperior" unicode="&#x2070;" horiz-adv-x="716" 
d="M358 1432q131 0 191.5 -102.5t60.5 -270.5t-60.5 -270t-191.5 -102t-191.5 102t-60.5 270t60.5 270.5t191.5 102.5zM479 1059q0 252 -121 252t-121 -251v-1q0 -251 121 -251t121 251z" />
    <glyph glyph-name="foursuperior" unicode="&#x2074;" horiz-adv-x="731" 
d="M523 961h118v-108h-118v-147h-117v147h-324v59l382 500h59v-451zM406 961v182l-138 -182h138z" />
    <glyph glyph-name="fivesuperior" unicode="&#x2075;" horiz-adv-x="710" 
d="M344 1214q109 0 186 -77t77 -187t-76.5 -186.5t-186.5 -76.5q-81 0 -147.5 45t-96.5 117l111 46q17 -40 53 -64.5t80 -24.5q60 0 102 42t42 102t-42 102t-102 42q-47 0 -85 -27q-5 -3 -13 -11l-111 13l15 343h403v-109h-284l-4 -101q37 12 79 12z" />
    <glyph glyph-name="sixsuperior" unicode="&#x2076;" horiz-adv-x="722" 
d="M514 1164q50 -37 79.5 -93t29.5 -121q0 -110 -76.5 -186.5t-186.5 -76.5t-187 77t-77 186q0 20 3 39t11 39t13.5 33.5t19.5 35t20 30.5t23.5 33.5l22.5 31.5l161 220h139l-155 -213h1q8 3 22 5.5t55.5 -5.5t81.5 -35zM360 806q60 0 102 42t42 102t-42 102t-102 42
t-102 -42t-42 -102t42 -102t102 -42z" />
    <glyph glyph-name="sevensuperior" unicode="&#x2077;" horiz-adv-x="610" 
d="M86 1412h441v-58l-269 -648h-128l250 599h-294v107z" />
    <glyph glyph-name="eightsuperior" unicode="&#x2078;" horiz-adv-x="733" 
d="M528 1106q47 -33 74 -81.5t27 -103.5q0 -97 -76.5 -165.5t-186.5 -68.5t-187 68.5t-77 165.5q0 55 27 103.5t74 81.5q-41 54 -41 122q0 84 60 144t144 60t144 -60t60 -144q0 -67 -42 -122zM282 1228q0 -50 47 -74q17 -9 37 -9t37 9q46 23 46 74q0 35 -24.5 59.5
t-58.5 24.5t-59 -25t-25 -59zM366 808q53 0 90.5 33t37.5 80q0 37 -24 67t-63 41q-19 6 -41 6t-41 -6q-39 -11 -63.5 -41t-24.5 -67q0 -47 38 -80t91 -33z" />
    <glyph glyph-name="ninesuperior" unicode="&#x2079;" horiz-adv-x="718" 
d="M206 955q-51 37 -80.5 93t-29.5 121q0 109 77 186t187 77t186.5 -77t76.5 -186q0 -20 -2.5 -38.5t-11 -39t-13 -33t-19.5 -36t-20 -30.5t-24 -34t-22 -31l-161 -221h-139l154 214q-8 -3 -22 -5.5t-55.5 5.5t-81.5 35zM360 1313q-60 0 -102 -42t-42 -102t42 -102.5
t102 -42.5t102 42.5t42 102.5t-42 102t-102 42z" />
    <glyph glyph-name="zeroinferior" unicode="&#x2080;" horiz-adv-x="716" 
d="M358 726q131 0 191.5 -102.5t60.5 -270.5t-60.5 -270.5t-191.5 -102.5t-191.5 102.5t-60.5 270.5t60.5 270.5t191.5 102.5zM479 353q0 252 -121 252t-121 -252t121 -252t121 252z" />
    <glyph glyph-name="oneinferior" unicode="&#x2081;" horiz-adv-x="415" 
d="M300 706v-706h-118v598h-88v108h206z" />
    <glyph glyph-name="twoinferior" unicode="&#x2082;" horiz-adv-x="686" 
d="M576 441q-12 -46 -79 -123q-28 -33 -85.5 -99.5t-86.5 -99.5h246v-119h-477v59l306 339q52 51 44.5 113.5t-72.5 86.5q-57 20 -103 -13q-16 -12 -32 -32.5t-20 -35.5q-11 3 -61 23t-49 22q25 72 88 118t142 46q12 0 32 -2q57 -7 104.5 -40t75.5 -83q47 -83 27 -160z" />
    <glyph glyph-name="threeinferior" unicode="&#x2083;" horiz-adv-x="698" 
d="M445 482q68 -32 109 -96t41 -142q0 -110 -77 -187t-186 -77q-81 0 -147 45t-97 118l110 46q17 -40 53.5 -64.5t80.5 -24.5q60 0 102 42t42 102t-42 102t-102 42q-38 0 -60 -10v70l104 149h-233v109h417v-59z" />
    <glyph glyph-name="fourinferior" unicode="&#x2084;" horiz-adv-x="733" 
d="M523 255h118v-108h-118v-147h-117v147h-324v59l382 500h59v-451zM406 255v182l-138 -182h138z" />
    <glyph glyph-name="fiveinferior" unicode="&#x2085;" horiz-adv-x="710" 
d="M344 507q110 0 186.5 -76.5t76.5 -186.5t-77 -187t-186 -77q-81 0 -147 45t-97 118l111 46q17 -40 53 -64.5t80 -24.5q60 0 102 42t42 102t-42 102t-102 42q-47 0 -85 -27q-5 -3 -13 -11l-111 13l15 343h403v-109h-284l-4 -102q38 12 79 12z" />
    <glyph glyph-name="sixinferior" unicode="&#x2086;" horiz-adv-x="720" 
d="M514 458q50 -37 79.5 -93t29.5 -121q0 -110 -77 -187t-186 -77q-110 0 -187 77t-77 187q0 20 3 39t11 39t13.5 33.5t19.5 35t20 30.5t23.5 33.5l22.5 31.5l161 220h139l-155 -214h1q8 3 22 5.5t55.5 -5t81.5 -34.5zM360 100q60 0 102 42t42 102t-42 102t-102 42t-102 -42
t-42 -102t42 -102t102 -42z" />
    <glyph glyph-name="seveninferior" unicode="&#x2087;" horiz-adv-x="610" 
d="M86 706h441v-59l-269 -647h-128l250 598h-294v108z" />
    <glyph glyph-name="eightinferior" unicode="&#x2088;" horiz-adv-x="733" 
d="M528 400q47 -33 74 -81.5t27 -103.5q0 -98 -77 -166.5t-186 -68.5q-110 0 -187 69t-77 166q0 55 27 103.5t74 81.5q-41 54 -41 122q0 84 60 144t144 60t144 -60t60 -144q0 -67 -42 -122zM282 522q0 -52 47 -75q15 -8 37 -8t37 8q46 23 46 75q0 35 -24.5 59.5t-58.5 24.5
t-59 -25t-25 -59zM366 101q53 0 90.5 33.5t37.5 80.5q0 37 -24 67t-63 41q-20 6 -41 6q-22 0 -41 -6q-39 -11 -63.5 -41t-24.5 -67q0 -47 38 -80.5t91 -33.5z" />
    <glyph glyph-name="nineinferior" unicode="&#x2089;" horiz-adv-x="722" 
d="M208 249q-51 37 -80.5 92.5t-29.5 120.5q0 110 77 187t187 77q109 0 186 -77.5t77 -186.5q0 -20 -3 -39t-10.5 -38.5t-13 -33t-19.5 -35.5t-20 -30.5t-24 -33.5t-22 -31l-161 -221h-139l154 214q-8 -3 -22 -5.5t-55.5 5.5t-81.5 35zM362 607q-60 0 -102 -42.5t-42 -102.5
t42 -102t102 -42t102 42t42 102t-42 102.5t-102 42.5z" />
    <glyph glyph-name="Euro" unicode="&#x20ac;" horiz-adv-x="1789" 
d="M1481 434l197 -131q-99 -149 -258.5 -236t-345.5 -87q-219 0 -398.5 119.5t-265.5 314.5h-287v235h228q0 6 -1 18t-1.5 21.5t-0.5 17.5q0 31 3 61h-228v235h288q86 193 265.5 311.5t397.5 118.5q186 0 345.5 -87t258.5 -235l-197 -132q-67 100 -174.5 159t-232.5 59
q-117 0 -219.5 -52t-170.5 -142h498v-235h-593q-4 -40 -4 -61q0 -28 3 -57h594v-235h-500q68 -91 171 -144t221 -53q125 0 232.5 58.5t174.5 158.5z" />
    <glyph glyph-name="trademark" unicode="&#x2122;" horiz-adv-x="1458" 
d="M372 706h-118v599h-176v107h471v-107h-177v-599zM1225 1412h118v-706h-118v471l-191 -353h-88l-191 353v-471h-118v706h118l235 -407z" />
    <glyph glyph-name="onethird" unicode="&#x2153;" horiz-adv-x="1355" 
d="M311 0h-118l648 1412h117zM115 1412h206v-706h-118v599h-88v107zM1091 482q68 -32 109 -96t41 -142q0 -110 -77 -187t-186 -77q-81 0 -147 45t-97 118l110 46q17 -40 53.5 -64.5t80.5 -24.5q60 0 102 42t42 102t-42 102t-102 42q-38 0 -60 -10v70l104 149h-233v109h417
v-59z" />
    <glyph glyph-name="twothirds" unicode="&#x2154;" horiz-adv-x="1554" 
d="M511 2h-118l648 1412h117zM1291 482q68 -32 109 -96t41 -142q0 -110 -77 -187t-186 -77q-81 0 -147 45t-97 118l111 46q17 -40 53 -64.5t80 -24.5q60 0 102 42t42 102t-42 102t-102 42q-38 0 -60 -10v70l105 149h-234v109h417v-59zM584 1147q-6 -22 -21 -46.5t-24 -36
t-34 -39.5q-28 -33 -86 -99.5t-86 -99.5h247v-120h-478v59l306 339q52 51 44.5 113.5t-72.5 86.5q-57 20 -102 -13q-16 -12 -33 -32.5t-20 -35.5q-11 3 -61 23t-49 22q25 72 88.5 118t142.5 46q11 0 31 -2q57 -7 104.5 -40t75.5 -83q47 -83 27 -160z" />
    <glyph glyph-name="arrowleft" unicode="&#x2190;" horiz-adv-x="1705" 
d="M560 1118l167 -166l-197 -197h1080v-235h-1080l197 -197l-167 -166l-480 481z" />
    <glyph glyph-name="arrowup" unicode="&#x2191;" horiz-adv-x="1122" 
d="M1041 1050l-166 -167l-197 197v-1080h-235v1080l-197 -197l-166 167l480 480z" />
    <glyph glyph-name="arrowright" unicode="&#x2192;" horiz-adv-x="1705" 
d="M977 952l167 166l480 -480l-480 -481l-167 166l197 197h-1080v235h1080z" />
    <glyph glyph-name="arrowdown" unicode="&#x2193;" horiz-adv-x="1118" 
d="M873 529l166 -166l-481 -481l-480 481l166 166l197 -196v1079h235v-1079z" />
    <glyph glyph-name="arrowupleft" unicode="&#x2196;" horiz-adv-x="1343" 
d="M358 321h-235v679h680v-235h-278l763 -763l-166 -167l-764 764v-278z" />
    <glyph glyph-name="arrowupright" unicode="&#x2197;" horiz-adv-x="1343" 
d="M1221 321h-236v278l-763 -764l-167 167l764 763h-278v235h680v-679z" />
    <glyph glyph-name="arrowdownright" unicode="&#x2198;" horiz-adv-x="1361" 
d="M1004 680h235v-680h-680v235h278l-763 764l166 166l764 -763v278z" />
    <glyph glyph-name="arrowdownleft" unicode="&#x2199;" horiz-adv-x="1361" 
d="M123 680h235v-278l764 763l166 -166l-763 -764h278v-235h-680v680z" />
    <glyph glyph-name="f.alt1" unicode="&#xf009;" horiz-adv-x="845" 
d="M785 1177h-265v-177h265v-215h-265v-785h-235v785h-226v215h226v412h500v-235z" />
    <glyph glyph-name="j.alt1" unicode="&#xf00a;" horiz-adv-x="532" 
d="M148 1412h236v-235h-236v235zM148 1000h236v-1412h-501v216h265v1196z" />
    <glyph glyph-name="c.alt1" unicode="&#xf00b;" horiz-adv-x="1069" 
d="M147 0v1000h824v-215h-588v-569h588v-216h-824z" />
    <glyph glyph-name="n.alt1" unicode="&#xf00c;" horiz-adv-x="1198" 
d="M147 1000h903v-1000h-236v785h-431v-785h-236v1000z" />
    <glyph glyph-name="r.alt1" unicode="&#xf00d;" horiz-adv-x="833" 
d="M775 785h-392v-785h-236v1000h628v-215z" />
    <glyph glyph-name="t.alt1" unicode="&#xf00e;" horiz-adv-x="884" 
d="M785 785h-265v-569h265v-216h-500v785h-226v215h226v295h235v-295h265v-215z" />
    <glyph glyph-name="u.alt1" unicode="&#xf00f;" horiz-adv-x="1198" 
d="M814 1000h236v-1000h-903v1000h236v-784h431v784z" />
    <glyph glyph-name="h.alt1" unicode="&#xf010;" horiz-adv-x="1198" 
d="M383 1000h667v-1000h-236v785h-431v-785h-236v1412h236v-412z" />
    <glyph glyph-name="g.alt1" unicode="&#xf011;" 
d="M901 999h235v-1411h-932v216h697v285q-112 -109 -285 -109q-106 0 -202 41t-166 111t-111 166t-41 202t41 202t111 166t166 111t202 41q174 0 285 -108v87zM616 216q118 0 201.5 83t83.5 201t-83.5 201.5t-201.5 83.5t-201 -83.5t-83 -201.5t83 -201t201 -83z" />
    <glyph glyph-name="verticalbar.alt1" unicode="&#xf012;" horiz-adv-x="563" 
d="M399 -432h-235v2316h235v-2316z" />
    </font>
</defs>
</svg>
