<?xml version="1.0" standalone="no"?>
<!DOCTYPE svg PUBLIC "-//W3C//DTD SVG 1.1//EN" "http://www.w3.org/Graphics/SVG/1.1/DTD/svg11.dtd" >
<svg xmlns="http://www.w3.org/2000/svg" xmlns:xlink="http://www.w3.org/1999/xlink" version="1.1">
<metadata>
Created by FontForge 20190801 at Thu Sep  2 06:50:29 2021
 By Unknown
</metadata>
<defs>
<font id="IIVorkursLight" horiz-adv-x="1093" >
  <font-face 
    font-family="II Vorkurs Light"
    font-weight="300"
    font-stretch="normal"
    units-per-em="2048"
    panose-1="0 0 0 0 0 0 0 0 0 0"
    ascent="1638"
    descent="-410"
    x-height="942"
    cap-height="1412"
    bbox="-139 -432 2388 1884"
    underline-thickness="102"
    underline-position="-307"
    unicode-range="U+000A-F011"
  />
<missing-glyph horiz-adv-x="1079" 
d="M102 1434h875v-1434h-875v1434zM160 1393l379 -633l381 633h-760zM514 717l-369 614v-1231zM541 674l-379 -631h758zM565 717l371 -621v1239z" />
    <glyph glyph-name=".notdef" horiz-adv-x="1079" 
d="M102 1434h875v-1434h-875v1434zM160 1393l379 -633l381 633h-760zM514 717l-369 614v-1231zM541 674l-379 -631h758zM565 717l371 -621v1239z" />
    <glyph glyph-name=".null" horiz-adv-x="0" 
 />
    <glyph glyph-name=".null" horiz-adv-x="0" 
 />
    <glyph glyph-name="nonmarkingreturn" horiz-adv-x="682" 
 />
    <glyph glyph-name="controlLF" unicode="&#xa;" horiz-adv-x="0" 
 />
    <glyph glyph-name="controlCR" unicode="&#xd;" horiz-adv-x="0" 
 />
    <glyph glyph-name="space" unicode=" " horiz-adv-x="512" 
 />
    <glyph glyph-name="exclam" unicode="!" horiz-adv-x="448" 
d="M164 0v118h118v-118h-118zM282 353h-118l1 1001h118z" />
    <glyph glyph-name="quotedbl" unicode="&#x22;" horiz-adv-x="716" 
d="M637 1412l-147 -412h-118l177 412h88zM343 1412l-147 -412h-118l176 412h89z" />
    <glyph glyph-name="numbersign" unicode="#" horiz-adv-x="1136" 
d="M1010 863h-196l-48 -353h185v-78h-196l-59 -434h-79l59 434h-274l-59 -434h-79l59 434h-196v78h207l48 353h-196v79h207l48 351h78l-48 -351h275l48 351h78l-47 -351h185v-79zM687 510l48 353h-274l-48 -353h274z" />
    <glyph glyph-name="dollar" unicode="$" horiz-adv-x="1175" 
d="M1029 370q5 -125 -68 -222q-61 -83 -162 -127q-76 -33 -156 -39v-159h-118v163q-155 22 -261 116q-65 58 -102 136q-14 31 -23 59l110 46q20 -89 93 -153q76 -67 183 -85q44 -7 78 -7q14 0 40 2q57 6 109 29q72 32 114 88q48 65 45.5 148.5t-54.5 147.5q-67 82 -214 141
q-32 13 -118 44q-22 8 -64 24q-173 69 -236 178q-66 114 -27 250q22 74 72 135.5t117 95.5q65 33 138 45v163h118v-159q118 -11 211 -71q106 -69 146 -185l-109 -45q-6 21 -22 49q-28 48 -79 82q-63 41 -147 52q-62 8 -118 -4q-60 -13 -104 -43q-76 -51 -106 -137t12 -169
q48 -83 198 -136q74 -26 108 -38q2 -1 5 -2t5 -1q213 -80 306 -195q75 -94 80 -217z" />
    <glyph glyph-name="percent" unicode="%" horiz-adv-x="1894" 
d="M667 0h-88l648 1412h88zM495 1432q155 0 264 -109t109 -264t-109 -264t-263 -109t-263.5 109t-109.5 264t109 264t263 109zM496 775q117 0 200 83.5t83 200.5t-83.5 200t-200.5 83t-200 -83t-83 -200t83.5 -200.5t200.5 -83.5zM1398 726q154 0 263.5 -109t109.5 -264
t-109 -264t-263 -109q-155 0 -264 109t-109 264t109 264t263 109zM1399 70q117 0 200 83t83 200t-83.5 200t-200.5 83t-200 -83t-83 -200t83.5 -200t200.5 -83z" />
    <glyph glyph-name="ampersand" unicode="&#x26;" horiz-adv-x="1380" 
d="M1258 86l-83 -83l-134 134q-87 -75 -196 -116t-220 -41q-196 0 -338 120q-68 58 -106 133q-40 82 -40 167q0 36 8 74q32 151 165 248q39 28 89 50l-28 28l-8 8q-53 53 -79 116q-28 66 -28 143q0 76 28 142q26 63 79 116q52 52 116 78q69 29 142 29t142 -29
q66 -27 117 -78q52 -52 78 -116q29 -69 29 -142q0 -151 -105 -254q-100 -100 -246 -111l399 -397q92 121 92 272h118q0 -199 -126 -356zM625 1314q-102 0 -174.5 -72.5t-72.5 -174.5q0 -64 29 -116.5t77 -82t103.5 -40t113.5 7t102 61.5q70 70 70 170q0 102 -73 174.5
t-175 72.5zM625 98q185 0 332 122l-462 460q-62 -17 -112 -54q-97 -71 -119 -176q-5 -27 -5 -50q0 -125 107.5 -213.5t258.5 -88.5z" />
    <glyph glyph-name="quotesingle" unicode="'" horiz-adv-x="423" 
d="M343 1412l-147 -412h-118l176 412h89z" />
    <glyph glyph-name="parenleft" unicode="(" horiz-adv-x="669" 
d="M561 -340l-93 -72q-144 188 -224 429q-82 251 -82 519q0 269 82 520q79 240 224 428l93 -72q-135 -174 -206 -393q-75 -229 -75 -483q0 -252 75 -482q72 -220 206 -394z" />
    <glyph glyph-name="parenright" unicode=")" horiz-adv-x="669" 
d="M424 17q-80 -241 -224 -429l-94 72q134 174 206 394q76 233 76 482q0 250 -76 483q-71 219 -206 393l94 72q145 -188 224 -428q82 -251 82 -520q0 -268 -82 -519z" />
    <glyph glyph-name="asterisk" unicode="*" horiz-adv-x="876" 
d="M779 1157l-282 -117l183 -269l-65 -44l-178 261l-177 -261l-65 44l183 269l-282 117l30 72l272 -113v295h79v-295l272 113z" />
    <glyph glyph-name="plus" unicode="+" horiz-adv-x="1134" 
d="M1038 530v-118h-412v-412h-118v412h-412v118h412v412h118v-412h412z" />
    <glyph glyph-name="comma" unicode="," horiz-adv-x="258" 
d="M-55 -294l147 412h118l-177 -412h-88z" />
    <glyph glyph-name="hyphen" unicode="-" horiz-adv-x="583" 
d="M532 530v-118h-481v118h481z" />
    <glyph glyph-name="period" unicode="." horiz-adv-x="225" 
d="M171 118v-118h-118v118h118z" />
    <glyph glyph-name="slash" unicode="/" horiz-adv-x="952" 
d="M212 0h-118l648 1412h117z" />
    <glyph glyph-name="zero" unicode="0" horiz-adv-x="1257" 
d="M629 1432q118 0 209.5 -56.5t147.5 -156.5t84.5 -230t28.5 -283t-28.5 -283t-84.5 -230t-147.5 -156.5t-209.5 -56.5t-209.5 56.5t-148 156.5t-85 230t-28.5 283t28.5 283t85 230t148 156.5t209.5 56.5zM629 98q93 0 162.5 47t110 131.5t60.5 192t20 237.5t-20 237.5
t-60.5 192t-110 131.5t-162.5 47t-162.5 -47t-110.5 -131.5t-61 -192t-20 -237.5t20 -237.5t61 -192t110.5 -131.5t162.5 -47z" />
    <glyph glyph-name="one" unicode="1" horiz-adv-x="657" 
d="M119 1412h353v-1412h-118v1295h-235v117z" />
    <glyph glyph-name="two" unicode="2" horiz-adv-x="1155" 
d="M1006 118v-118h-883v59q403 438 522 567q15 16 45 47.5t47.5 50.5t44 50.5t41.5 55t31.5 56.5t22 62t5 64t-10.5 70q-30 102 -116 167t-191 65q-115 0 -203.5 -71.5t-112.5 -180.5l-110 45q18 67 58 127q63 96 165.5 146.5t208 49t207 -54t162.5 -150.5q45 -72 60 -155
t-6 -166q-11 -42 -36 -89q-36 -68 -118 -163q-25 -29 -146.5 -162.5t-230.5 -252.5l-110 -119h654z" />
    <glyph glyph-name="three" unicode="3" horiz-adv-x="1214" 
d="M655 955q178 -27 296 -163.5t118 -319.5q0 -203 -143.5 -347.5t-346.5 -144.5q-162 0 -289.5 94.5t-176.5 244.5l109 45q35 -117 133.5 -191.5t223.5 -74.5q155 0 264 109t109 264t-109 264t-264 109q-29 0 -68 -7q-42 -8 -79 -24v89l341 393h-537v117h765v-58z" />
    <glyph glyph-name="four" unicode="4" horiz-adv-x="1284" 
d="M928 471h246v-118h-246v-353h-117v353h-707v58l766 1001h58v-941zM811 471v672l-514 -672h514z" />
    <glyph glyph-name="five" unicode="5" horiz-adv-x="1239" 
d="M604 961q203 0 347 -143t144 -346t-144 -347.5t-347 -144.5q-161 0 -289.5 95.5t-177.5 245.5l109 45q34 -117 133 -192.5t225 -75.5q154 0 263.5 109t109.5 264t-109.5 264t-263.5 109q-126 0 -228 -79l-143 20l28 627h726v-117h-614l-17 -401q114 67 248 67z" />
    <glyph glyph-name="six" unicode="6" horiz-adv-x="1247" 
d="M866 898q114 -64 181 -179.5t67 -246.5q0 -203 -143.5 -347.5t-346.5 -144.5t-347 144.5t-144 347.5q0 38 6 77q18 116 89 213q104 140 474 650h147l-346 -476q51 23 121 25q124 3 242 -63zM624 98q154 0 263 109t109 264t-109 264t-263 109t-263.5 -109t-109.5 -264
t109.5 -264t263.5 -109z" />
    <glyph glyph-name="seven" unicode="7" horiz-adv-x="1028" 
d="M102 1412h824v-58l-598 -1354h-137l572 1295h-661v117z" />
    <glyph glyph-name="eight" unicode="8" horiz-adv-x="1214" 
d="M817 796q114 -55 182 -158t68 -226q0 -117 -61.5 -216.5t-168 -157.5t-231.5 -58t-231.5 58t-168 157.5t-61.5 216.5q0 123 68.5 226t182.5 158q-66 49 -104.5 123.5t-38.5 159.5q0 146 103.5 249.5t249.5 103.5t249.5 -103.5t103.5 -249.5q0 -85 -38 -159.5t-104 -123.5
zM606 1314q-98 0 -166.5 -69t-68.5 -166t68.5 -166t166.5 -69t167 69t69 166t-69 166t-167 69zM606 98q142 0 243 92t101 222t-101 222t-243 92t-242.5 -92t-100.5 -222t100.5 -222t242.5 -92z" />
    <glyph glyph-name="nine" unicode="9" horiz-adv-x="1245" 
d="M622 1432q203 0 346.5 -144t143.5 -347q0 -39 -6 -78q-18 -116 -89 -213q-104 -140 -474 -650h-147l346 477q-53 -24 -120 -26q-125 -3 -243 63q-114 64 -181 180t-67 247q0 203 144 347t347 144zM622 569q154 0 263 109t109 264q0 154 -109 263t-263 109
q-155 0 -264 -109t-109 -263t109.5 -263.5t263.5 -109.5z" />
    <glyph glyph-name="colon" unicode=":" horiz-adv-x="270" 
d="M193 118v-118h-117v118h117zM193 942v-118h-117v118h117z" />
    <glyph glyph-name="semicolon" unicode=";" horiz-adv-x="301" 
d="M228 942v-118h-118v118h118zM-37 -294l147 412h118l-177 -412h-88z" />
    <glyph glyph-name="less" unicode="&#x3c;" horiz-adv-x="677" 
d="M569 794v-118l-366 -206l366 -206v-117l-471 264v118z" />
    <glyph glyph-name="equal" unicode="=" horiz-adv-x="995" 
d="M919 706v-118h-843v118h843zM919 353v-118h-843v118h843z" />
    <glyph glyph-name="greater" unicode="&#x3e;" horiz-adv-x="677" 
d="M109 676v118l470 -265v-118l-470 -264v117l366 206z" />
    <glyph glyph-name="question" unicode="?" 
d="M524 118v-118h-118v118h118zM931 1163q34 -80 34 -172t-34 -172q-32 -77 -95 -140t-140 -95q-82 -35 -172 -35v-196h-118v314q66 0 97.5 1.5t84 9.5t91.5 28.5t74 55.5q95 95 95 229t-95 229q-94 94 -229 94t-229 -94q-70 -70 -88 -165l-111 45q8 35 21 63q32 77 95 140
q61 61 140 94q82 35 172 35t172 -35q79 -33 140 -94q63 -63 95 -140z" />
    <glyph glyph-name="at" unicode="@" horiz-adv-x="1738" 
d="M1104 909v118h79v-630h-79v116q-41 -61 -106 -95.5t-144 -34.5q-136 0 -232 96t-96 232t96 232.5t232 96.5q78 0 143 -35t107 -96zM1104 711q0 103 -73 176.5t-177 73.5q-103 0 -176 -73t-73 -177q0 -103 72.5 -176t176.5 -73t177 73t73 176zM1538 989q57 -135 57 -283
q0 -147 -57 -282q-57 -132 -156 -231q-100 -100 -230 -156q-135 -57 -283 -57q-147 0 -282 57q-132 57 -231 156t-156 231q-57 135 -57 282q0 148 57 283q56 130 156 230q99 99 231 156q135 57 282 57q148 0 283 -57q130 -56 230 -156t156 -230zM1466 454q51 120 51 252
t-51 252q-50 117 -139 206t-206 139q-120 51 -252 51t-252 -51q-117 -50 -206 -139q-87 -87 -138 -206q-51 -120 -51 -252t51 -252q51 -119 138 -206t206 -138q120 -51 252 -51t252 51q119 51 206 138q89 89 139 206z" />
    <glyph glyph-name="A" unicode="A" horiz-adv-x="1343" 
d="M730 1412l559 -1412h-118l-151 382h-698l-151 -382h-118l559 1412h118zM369 500h604l-302 764z" />
    <glyph glyph-name="B" unicode="B" horiz-adv-x="1302" 
d="M955 733q103 -45 166.5 -139.5t63.5 -210.5q0 -158 -112.5 -270.5t-270.5 -112.5h-500h-118v1412h530q158 0 270.5 -112t112.5 -270q0 -88 -38 -165.5t-104 -131.5zM714 1295h-412v-530h412q110 0 187.5 77.5t77.5 187.5t-77.5 187.5t-187.5 77.5zM802 118
q110 0 187.5 78t77.5 187t-77.5 186.5t-187.5 77.5h-500v-529h500z" />
    <glyph glyph-name="C" unicode="C" horiz-adv-x="1533" 
d="M838 98q156 0 290 73t217 198l98 -65q-99 -149 -259 -236.5t-346 -87.5q-148 0 -282 57.5t-231 154.5t-154.5 231.5t-57.5 282.5t57.5 282.5t154.5 231.5t231 154.5t282 57.5q185 0 345 -87t259 -235l-98 -65q-83 124 -217 196.5t-289 72.5q-165 0 -305 -81.5
t-221.5 -221.5t-81.5 -305t81.5 -305t221.5 -221.5t305 -81.5z" />
    <glyph glyph-name="D" unicode="D" horiz-adv-x="1472" 
d="M655 1412q144 0 274.5 -56t225 -150.5t150.5 -225t56 -274.5t-56 -274.5t-150.5 -225t-225 -150.5t-274.5 -56h-471v1412h471zM655 118q160 0 295.5 78.5t214.5 214t79 295.5t-79 295.5t-214.5 214.5t-295.5 79h-353v-1177h353z" />
    <glyph glyph-name="E" unicode="E" horiz-adv-x="1218" 
d="M1126 1295h-824v-530h706v-118h-706v-529h824v-118h-942v1412h942v-117z" />
    <glyph glyph-name="F" unicode="F" horiz-adv-x="1189" 
d="M1126 1295h-824v-589h706v-117h-706v-589h-118v1412h942v-117z" />
    <glyph glyph-name="G" unicode="G" horiz-adv-x="1656" 
d="M838 706l726 -1q0 -60 -9 -117q-28 -170 -129.5 -309t-256 -219t-331.5 -80q-148 0 -282 57.5t-231 154.5t-154.5 231.5t-57.5 282.5t57.5 282.5t154.5 231.5t231 154.5t282 57.5q186 0 345.5 -87t258.5 -236l-99 -63q-83 124 -216.5 196t-288.5 72q-165 0 -305 -81.5
t-221.5 -221.5t-81.5 -305t81.5 -305t221.5 -221.5t305 -81.5q219 0 387 139.5t210 350.5l-597 1v117z" />
    <glyph glyph-name="H" unicode="H" horiz-adv-x="1429" 
d="M184 1412h118v-647h824v647h118v-1412h-118v647h-824v-647h-118v1412z" />
    <glyph glyph-name="I" unicode="I" horiz-adv-x="487" 
d="M302 0h-118v1412h118v-1412z" />
    <glyph glyph-name="J" unicode="J" horiz-adv-x="925" 
d="M633 1412h118v-1079q0 -146 -103.5 -249.5t-249.5 -103.5q-127 0 -225 81t-122 203l116 23q16 -82 81 -135.5t150 -53.5q98 0 166.5 69t68.5 166v1079z" />
    <glyph glyph-name="K" unicode="K" horiz-adv-x="1148" 
d="M420 706l677 -706h-177l-618 645v-645h-118v1412h118v-645l608 645h157z" />
    <glyph glyph-name="L" unicode="L" horiz-adv-x="991" 
d="M949 108v-108h-765v1412h118v-1304h647z" />
    <glyph glyph-name="M" unicode="M" horiz-adv-x="1665" 
d="M1361 1414h118v-1414h-118v1187l-470 -922h-118l-471 922v-1187h-118v1412h118l530 -1000l529 1000v2z" />
    <glyph glyph-name="N" unicode="N" horiz-adv-x="1486" 
d="M1185 1412h118v-1412h-118l-883 1216v-1216h-118v1412h118l883 -1216v1216z" />
    <glyph glyph-name="O" unicode="O" horiz-adv-x="1677" 
d="M838 1432q148 0 282.5 -57.5t231.5 -154.5t154.5 -231.5t57.5 -282.5t-57.5 -282.5t-154.5 -231.5t-231.5 -154.5t-282.5 -57.5t-282 57.5t-231 154.5t-154.5 231.5t-57.5 282.5t57.5 282.5t154.5 231.5t231 154.5t282 57.5zM838 98q165 0 305.5 81.5t222 221.5t81.5 305
t-81.5 305t-222 221.5t-305.5 81.5t-305 -81.5t-221.5 -221.5t-81.5 -305t81.5 -305t221.5 -221.5t305 -81.5z" />
    <glyph glyph-name="P" unicode="P" horiz-adv-x="1216" 
d="M685 1412q183 0 312 -129t129 -312t-129 -312t-312 -129h-383v-530h-118v1412h501zM685 647q134 0 228.5 95t94.5 229t-94.5 229t-228.5 95h-383v-648h383z" />
    <glyph glyph-name="Q" unicode="Q" horiz-adv-x="1693" 
d="M1447 707q0 124 -48.5 236.5t-130 193.5t-194 129t-236.5 48q-165 0 -305 -81t-221.5 -221t-81.5 -305t81.5 -305t221.5 -221.5t305 -81.5q218 0 386 138l-392 393l83 83l393 -393q139 168 139 387zM1392 236l171 -171l-83 -84l-172 172q-203 -173 -470 -173
q-148 0 -282 57.5t-231 154.5t-154.5 231.5t-57.5 282.5v1q0 148 57.5 282.5t154.5 231.5t231 154.5t282 57.5t282.5 -57.5t231.5 -154.5t154.5 -231.5t57.5 -282.5v-1q0 -268 -172 -470z" />
    <glyph glyph-name="R" unicode="R" horiz-adv-x="1261" 
d="M796 544l359 -544h-137l-350 530h-366v-530h-118v1412h501q183 0 312 -129t129 -312q0 -152 -93 -271t-237 -156zM302 647h383q134 0 228.5 95t94.5 229t-94.5 229t-228.5 95h-383v-648z" />
    <glyph glyph-name="S" unicode="S" horiz-adv-x="1110" 
d="M994 370q5 -125 -68 -222q-61 -83 -162 -127q-91 -41 -196 -41q-202 0 -339 122q-65 58 -102 136q-14 31 -23 59l110 46q20 -89 93 -153q103 -92 261 -92q78 0 149 31q72 32 114 88q48 65 45.5 148.5t-54.5 147.5q-33 41 -86.5 76t-93 51.5t-115 43.5t-101.5 38
q-173 69 -236 178q-66 114 -27 250q22 74 72 135.5t117 95.5q108 56 237 50q131 -6 231 -72q105 -69 145 -185l-109 -45q-6 21 -22 49q-28 48 -79 82q-81 53 -183.5 55t-184.5 -50q-77 -51 -107.5 -137t12.5 -169q17 -30 43 -54t63 -42.5t62.5 -29t73 -26.5t64.5 -22
q103 -38 182 -84t134 -114q77 -96 80 -217z" />
    <glyph glyph-name="T" unicode="T" horiz-adv-x="966" 
d="M541 0h-118v1295h-382v117h883v-117h-383v-1295z" />
    <glyph glyph-name="U" unicode="U" horiz-adv-x="1277" 
d="M1110 1412v-961q0 -195 -138 -333t-333 -138t-333 138t-138 333v961h118v-961q0 -146 103.5 -249.5t249.5 -103.5t249.5 103.5t103.5 249.5v961h118z" />
    <glyph glyph-name="V" unicode="V" horiz-adv-x="1284" 
d="M1103 1412h127l-524 -1399l-5 -13h-118l-5 13l-525 1399h128l461 -1229z" />
    <glyph glyph-name="W" unicode="W" horiz-adv-x="1873" 
d="M1682 1412h127l-412 -1412h-117l-344 1226l-343 -1226h-118l-412 1412h128l343 -1226l344 1226h117l344 -1226z" />
    <glyph glyph-name="X" unicode="X" horiz-adv-x="1210" 
d="M1145 1412l-471 -706l471 -706h-138l-402 603l-402 -603h-137l470 706l-470 706h137l402 -603l402 603h138z" />
    <glyph glyph-name="Y" unicode="Y" horiz-adv-x="1153" 
d="M978 1412h138l-481 -720v-692h-117v692l-481 720h137l402 -603z" />
    <glyph glyph-name="Z" unicode="Z" horiz-adv-x="1177" 
d="M254 118h853v-118h-1039v59l824 1236h-766v117h952v-58z" />
    <glyph glyph-name="bracketleft" unicode="[" horiz-adv-x="657" 
d="M184 -412v1824h353v-117h-235v-1589h235v-118h-353z" />
    <glyph glyph-name="backslash" unicode="\" horiz-adv-x="952" 
d="M857 0h-117l-648 1412h118z" />
    <glyph glyph-name="bracketright" unicode="]" horiz-adv-x="657" 
d="M472 1412v-1824h-353v118h235v1589h-235v117h353z" />
    <glyph glyph-name="underscore" unicode="_" horiz-adv-x="950" 
d="M897 118v-118h-844v118h844z" />
    <glyph glyph-name="grave" unicode="`" horiz-adv-x="405" 
d="M242 1089l-176 294h147l117 -294h-88z" />
    <glyph glyph-name="a" unicode="a" horiz-adv-x="1255" 
d="M974 943h118v-942h-118v174q-62 -91 -159 -143t-214 -52q-203 0 -346.5 144t-143.5 347t143.5 346.5t346.5 143.5q117 0 214 -52t159 -143v177zM601 98q155 0 264 109t109 264t-109 264t-264 109t-264 -109t-109 -264t109 -264t264 -109z" />
    <glyph glyph-name="b" unicode="b" horiz-adv-x="1253" 
d="M1143 471q0 -203 -144 -347t-347 -144q-117 0 -213.5 52t-158.5 143v-175h-118v1412h118v-646q62 91 158.5 143t213.5 52q203 0 347 -143.5t144 -346.5zM1025 471q0 155 -109.5 264t-263.5 109q-151 0 -259 -105.5t-113 -256.5v-22q5 -151 113 -256.5t259 -105.5
q154 0 263.5 109t109.5 264z" />
    <glyph glyph-name="c" unicode="c" horiz-adv-x="1103" 
d="M601 98q95 0 177 45t133 121l98 -66q-67 -100 -175 -159t-233 -59q-203 0 -346.5 144t-143.5 347t143.5 346.5t346.5 143.5q125 0 233 -59t175 -159l-98 -65q-51 76 -133 121t-177 45q-155 0 -264 -109t-109 -264t109 -264t264 -109z" />
    <glyph glyph-name="d" unicode="d" horiz-adv-x="1253" 
d="M601 -20q-203 0 -346.5 144t-143.5 347t143.5 346.5t346.5 143.5q117 0 214 -52t159 -143v646h117v-1412h-117v175q-62 -91 -159 -143t-214 -52zM601 844q-155 0 -264 -109t-109 -264t109 -264t264 -109q151 0 259.5 105.5t113.5 256.5v22q-5 151 -113.5 256.5
t-259.5 105.5z" />
    <glyph glyph-name="e" unicode="e" horiz-adv-x="1191" 
d="M1091 441h-862q11 -144 118 -243.5t254 -99.5q95 0 177 45t133 121l98 -66q-67 -100 -175 -159t-233 -59q-195 0 -337 134t-153 327q-1 0 -1 15l1 15q0 42 8 88q32 173 167.5 287.5t314.5 114.5t315 -114.5t168 -287.5q7 -41 7 -88l1 -15q0 -15 -1 -15zM239 559h724
q-30 124 -131 204.5t-231 80.5t-231 -80.5t-131 -204.5z" />
    <glyph glyph-name="f" unicode="f" horiz-adv-x="772" 
d="M415 1123v-181h294v-108h-294v-834h-118v834h-236v108h236v186q2 126 92 215t217 89q58 0 110 -20l-24 -118q-40 20 -86 20q-80 0 -135.5 -56t-55.5 -135z" />
    <glyph glyph-name="g" unicode="g" horiz-adv-x="1255" 
d="M974 942h118v-883q0 -203 -144 -347t-347 -144q-128 0 -237 60.5t-175 163.5l99 65q50 -79 133 -125t180 -46q155 0 264 109t109 264v116q-62 -91 -159 -143t-214 -52q-203 0 -346.5 144t-143.5 347t143.5 346.5t346.5 143.5q117 0 214 -52t159 -143v176zM974 471
q0 155 -109 264t-264 109t-264 -109t-109 -264t109 -264t264 -109t264 109t109 264z" />
    <glyph glyph-name="h" unicode="h" 
d="M829 0v569q0 114 -80.5 194.5t-194.5 80.5t-194 -80.5t-80 -194.5v-569h-118v1412h118v-580q105 129 274 129q163 0 278 -114.5t115 -277.5v-569h-118z" />
    <glyph glyph-name="i" unicode="i" horiz-adv-x="444" 
d="M280 1295v-118h-118v118h118zM163 942h118l-1 -942h-118z" />
    <glyph glyph-name="j" unicode="j" horiz-adv-x="442" 
d="M279 942v-1070q-2 -126 -92 -215t-217 -89q-57 0 -109 20l23 119q-2 -5 35 -14q13 -4 41 -6q81 -5 141.5 52t60.5 138v1065h117zM280 1295v-118h-118v118h118z" />
    <glyph glyph-name="k" unicode="k" horiz-adv-x="1009" 
d="M947 0h-167l-500 474v-474h-118v1412h118v-835l441 365h167l-491 -412z" />
    <glyph glyph-name="l" unicode="l" horiz-adv-x="444" 
d="M163 1412h118l-1 -1412h-118z" />
    <glyph glyph-name="m" unicode="m" horiz-adv-x="1740" 
d="M1594 0h-118v569q0 114 -80 194.5t-194 80.5q-92 0 -165 -55t-99 -141q9 -47 9 -79v-569h-118v569q0 114 -80.5 194.5t-194.5 80.5t-194 -80.5t-80 -194.5v-569h-118v941h118v-109q105 129 274 129q104 0 192.5 -50.5t141.5 -136.5q46 86 128.5 136.5t185.5 50.5
q163 0 277.5 -114.5t114.5 -277.5v-569z" />
    <glyph glyph-name="n" unicode="n" 
d="M947 0h-118v569q0 114 -80.5 194.5t-194.5 80.5t-194 -80.5t-80 -194.5v-569h-118v941h118v-109q105 129 274 129q163 0 278 -114.5t115 -277.5v-569z" />
    <glyph glyph-name="o" unicode="o" horiz-adv-x="1204" 
d="M601 961q203 0 347 -143.5t144 -346.5t-144 -347t-347 -144t-346.5 144t-143.5 347t143.5 346.5t346.5 143.5zM601 98q155 0 264 109t109 264t-109 264t-264 109t-264 -109t-109 -264t109 -264t264 -109z" />
    <glyph glyph-name="p" unicode="p" horiz-adv-x="1253" 
d="M652 961q203 0 347 -143.5t144 -346.5t-144 -347t-347 -144q-117 0 -213.5 52t-158.5 143v-587h-118v1354h118v-176q62 91 158.5 143t213.5 52zM652 98q154 0 263.5 109t109.5 264t-109.5 264t-263.5 109q-151 0 -259 -105.5t-113 -256.5v-22q5 -151 113 -256.5
t259 -105.5z" />
    <glyph glyph-name="q" unicode="q" horiz-adv-x="1253" 
d="M111 471q0 203 143.5 346.5t346.5 143.5q117 0 214 -52t159 -143v176h117v-1354h-117v587q-62 -91 -159 -143t-214 -52q-203 0 -346.5 144t-143.5 347zM228 471q0 -155 109 -264t264 -109q151 0 259.5 105.5t113.5 256.5v22q-5 151 -113.5 256.5t-259.5 105.5
q-155 0 -264 -109t-109 -264z" />
    <glyph glyph-name="r" unicode="r" horiz-adv-x="770" 
d="M584 961q68 0 126 -19l-23 -117q-48 18 -103 18q-126 0 -215 -89t-89 -215v-539h-118v942h118v-129q53 70 131 109t173 39z" />
    <glyph glyph-name="s" unicode="s" horiz-adv-x="923" 
d="M780 382q29 -56 29 -117q0 -66 -33 -125.5t-92 -98.5q-58 -39 -134.5 -53t-151.5 -3.5t-140 40.5q-52 23 -93 56q-49 41 -71 72l98 66q59 -78 160 -104q71 -19 142 -14q77 5 125 37q60 40 69.5 106.5t-39.5 120.5q-31 33 -72 45.5t-102.5 15.5t-85.5 8q-82 16 -140 59
q-47 35 -73 84q-29 53 -29 117q0 56 24 107q23 49 65 85q85 76 226 76q173 0 285 -101q26 -23 48 -53l-98 -65q-45 59 -121 84q-43 14 -95 15.5t-101 -10.5t-82 -47.5t-33 -90.5q0 -131 212 -150q108 -10 184.5 -45t118.5 -117z" />
    <glyph glyph-name="t" unicode="t" horiz-adv-x="802" 
d="M692 119l24 -119q-52 -20 -110 -20q-127 0 -217 89t-92 215v550h-236v108h236v353h118v-353h294v-108h-294v-545q0 -81 60 -138t141 -53q33 1 76 21z" />
    <glyph glyph-name="u" unicode="u" horiz-adv-x="1091" 
d="M810 942h118v-942h-118v109q-105 -129 -274 -129q-163 0 -278 115t-115 278v569h118v-569q0 -114 80.5 -194.5t194.5 -80.5t194 80.5t80 194.5v569z" />
    <glyph glyph-name="v" unicode="v" horiz-adv-x="1019" 
d="M829 942h127l-382 -942h-128l-383 942h128l319 -785z" />
    <glyph glyph-name="w" unicode="w" horiz-adv-x="1548" 
d="M1362 942h118l-324 -942h-117l-265 770l-265 -770h-118l-323 942h117l265 -771l265 771h118l265 -771z" />
    <glyph glyph-name="x" unicode="x" horiz-adv-x="972" 
d="M898 942l-339 -471l339 -471h-147l-265 368l-265 -368h-147l338 471l-338 471h147l265 -369l265 369h147z" />
    <glyph glyph-name="y" unicode="y" horiz-adv-x="1019" 
d="M829 942h127l-549 -1354h-128l167 412l-383 942h128l319 -785z" />
    <glyph glyph-name="z" unicode="z" horiz-adv-x="966" 
d="M268 108h618v-108h-804v59l579 775h-540v108h726v-59z" />
    <glyph glyph-name="braceleft" unicode="{" horiz-adv-x="720" 
d="M500 1286q-59 -23 -92 -81q-42 -74 -21 -172q6 -27 28 -88q23 -63 32 -105q13 -64 6 -129q-9 -71 -41 -126q-29 -50 -74 -86q44 -35 74 -87q32 -55 41 -126q7 -64 -6 -129q-9 -42 -32 -105q-22 -61 -28 -88q-21 -98 21 -172q34 -60 92 -81q22 -9 75 -7q3 0 11 0.5t12 0.5
v-118h-21q-4 0 -11.5 -0.5t-11.5 -0.5q-56 0 -96 15q-49 18 -89 54q-36 32 -64 81q-31 57 -39 125q-8 63 6 128q9 39 32 104t28 89q20 97 -22 172q-29 52 -84 76q-23 10 -80 10q-3 0 -9 -0.5t-10 -0.5v119h19q59 0 80 9q55 24 84 76q42 75 22 173q-5 24 -28 89
q-24 66 -32 103q-14 65 -6 128q8 69 39 126q27 47 64 80q40 36 89 54q44 17 119 15q4 0 11 -0.5t10 -0.5v-117h-23q-53 2 -75 -7z" />
    <glyph glyph-name="verticalbar" unicode="|" horiz-adv-x="487" 
d="M302 1589v-1766h-118v1766h118z" />
    <glyph glyph-name="braceright" unicode="}" horiz-adv-x="720" 
d="M312 1205q-33 58 -91 81q-22 9 -76 7h-22v117q3 0 9.5 0.5t10.5 0.5q76 2 120 -15q47 -18 88 -54q39 -35 65 -80q31 -57 39 -126q8 -63 -6 -128q-7 -30 -33 -103q-21 -58 -27 -89q-20 -98 22 -173q29 -52 83 -76q21 -9 80 -9h20v-119q-4 0 -10.5 0.5t-9.5 0.5
q-57 0 -80 -10q-54 -24 -83 -76q-42 -75 -22 -172q6 -31 27 -89q26 -71 33 -104q14 -65 6 -128q-8 -68 -39 -125q-27 -47 -65 -81q-41 -36 -88 -54q-40 -15 -96 -15q-4 0 -12 0.5t-12 0.5h-20v118q4 0 11.5 -0.5t10.5 -0.5q54 -2 76 7q57 21 91 81q41 76 21 172
q-7 33 -27 88q-25 70 -33 105q-13 61 -5 129q9 71 41 126q30 52 74 87q-45 36 -74 86q-32 55 -41 126q-8 68 5 129q8 35 33 105q20 55 27 88q20 96 -21 172z" />
    <glyph glyph-name="nonbreakingspace" unicode="&#xa0;" horiz-adv-x="512" 
 />
    <glyph glyph-name="exclamdown" unicode="&#xa1;" horiz-adv-x="378" 
d="M247 942v-118h-117v118h117zM130 589h118l-1 -1001h-118z" />
    <glyph glyph-name="cent" unicode="&#xa2;" horiz-adv-x="1163" 
d="M1039 212q-58 -94 -152.5 -155t-206.5 -74v-160h-117v160q-183 22 -307.5 161t-124.5 326t124.5 326t307.5 161v161h117v-161q112 -13 205.5 -73.5t152.5 -154.5l-98 -65q-51 82 -135 130.5t-183 48.5q-154 0 -263.5 -109.5t-109.5 -263.5t109.5 -263.5t263.5 -109.5
q100 0 184.5 49t134.5 131z" />
    <glyph glyph-name="sterling" unicode="&#xa3;" horiz-adv-x="1161" 
d="M1037 118v-118h-912v118q177 0 264 144q51 83 60.5 187.5t-22.5 197.5h-243v118h193q-24 58 -39.5 107t-25.5 105.5t-5 112t26 108.5q40 102 122 166q88 68 200 68q77 0 147 -33q67 -31 118 -88q54 -60 81 -134l-102 -68q-24 90 -91.5 147.5t-152.5 57.5
q-80 0 -139 -54.5t-81 -132.5t-7 -153q14 -73 72 -188q4 -7 10 -21h321v-118h-280q18 -80 17 -159q-2 -162 -79 -288q-28 -46 -64 -82h612z" />
    <glyph glyph-name="yen" unicode="&#xa5;" horiz-adv-x="1333" 
d="M1206 1412l-314 -470h245v-118h-323l-89 -132v-103h412v-118h-412v-471h-117v471h-412v118h412v103l-89 132h-323v118h245l-314 470h137l314 -470l79 -118h19l79 118l314 470h137z" />
    <glyph glyph-name="section" unicode="&#xa7;" horiz-adv-x="1193" 
d="M946 112q37 -72 40 -154q5 -125 -68 -222q-61 -83 -162 -127q-91 -41 -196 -41q-202 0 -339 122q-65 58 -102 136q-14 31 -23 59l110 46q20 -88 93 -152q104 -93 261 -93q78 0 149 31q72 32 114 88q37 50 44 113.5t-16 120.5q-13 31 -37 62q-10 12 -32 34
q-34 32 -83.5 60t-88 43t-101.5 38t-91 35q-173 70 -236 177q-66 114 -27 250q26 88 89 156l-3 6q-67 115 -28 250q22 74 72 135.5t117 95.5q108 56 237 50q131 -6 231 -72q105 -69 145 -185l-109 -45q-7 24 -21 49q-28 48 -79 82q-81 53 -184 55t-185 -50
q-75 -50 -106 -133t7 -165q0 -1 2 -4t3 -4q28 -47 81 -81q24 -15 55.5 -29.5t54.5 -23t61 -21.5t54 -19q220 -81 315 -198q76 -95 81 -217q5 -125 -68 -222q-15 -20 -31 -36zM882 217q48 65 45.5 148.5t-54.5 147.5q-33 41 -86.5 76t-93 51.5t-115 43.5t-101.5 38
q-98 41 -152 84q-49 -57 -62.5 -124.5t21.5 -134.5q15 -25 37.5 -46.5t45 -36t55 -29t55.5 -22.5t59 -20t54 -19q190 -70 285 -165q1 2 3.5 4.5z" />
    <glyph glyph-name="dieresis" unicode="&#xa8;" horiz-adv-x="428" 
d="M169 1295v-118h-118v118h118zM375 1295v-118h-118v118h118z" />
    <glyph glyph-name="copyright" unicode="&#xa9;" horiz-adv-x="1738" 
d="M881 295q105 0 195 49.5t147 133.5l66 -44q-67 -101 -174.5 -159.5t-233.5 -58.5q-203 0 -346.5 143.5t-143.5 346.5t143.5 347t346.5 144q125 0 233 -59t175 -159l-66 -44q-56 84 -146.5 133t-195.5 49q-170 0 -290.5 -120.5t-120.5 -290.5t120.5 -290.5t290.5 -120.5z
M1538 989q57 -135 57 -283q0 -147 -57 -282q-57 -132 -156 -231q-100 -100 -230 -156q-135 -57 -283 -57q-147 0 -282 57q-132 57 -231 156t-156 231q-57 135 -57 282q0 148 57 283q56 130 156 230q99 99 231 156q135 57 282 57q148 0 283 -57q130 -56 230 -156t156 -230z
M1466 454q51 120 51 252t-51 252q-50 117 -139 206t-206 139q-120 51 -252 51t-252 -51q-117 -50 -206 -139q-87 -87 -138 -206q-51 -120 -51 -252t51 -252q51 -119 138 -206t206 -138q120 -51 252 -51t252 51q119 51 206 138q89 89 139 206z" />
    <glyph glyph-name="ordfeminine" unicode="&#xaa;" horiz-adv-x="696" 
d="M529 1412h59v-470h-59v87q-66 -97 -186 -97q-101 0 -173 72t-72 173t72 172.5t173 71.5q120 0 186 -97v88zM343 991q77 0 131.5 54.5t54.5 131.5t-54.5 131.5t-131.5 54.5t-131.5 -54.5t-54.5 -131.5t54.5 -131.5t131.5 -54.5z" />
    <glyph glyph-name="guillemotleft" unicode="&#xab;" horiz-adv-x="1208" 
d="M569 795v-118l-366 -206l366 -206v-118l-471 265v118zM1099 795v-118l-366 -206l366 -206v-118l-471 265v118z" />
    <glyph glyph-name="softhyphen" unicode="&#xad;" horiz-adv-x="0" 
 />
    <glyph glyph-name="registered" unicode="&#xae;" horiz-adv-x="1738" 
d="M1538 989q57 -135 57 -283q0 -147 -57 -282q-57 -132 -156 -231q-100 -100 -230 -156q-135 -57 -283 -57q-147 0 -282 57q-132 57 -231 156t-156 231q-57 135 -57 282q0 148 57 283q56 130 156 230q99 99 231 156q135 57 282 57q148 0 283 -57q130 -56 230 -156t156 -230
zM1466 454q51 120 51 252t-51 252q-50 117 -139 206t-206 139q-120 51 -252 51t-252 -51q-117 -50 -206 -139q-87 -87 -138 -206q-51 -120 -51 -252t51 -252q51 -119 138 -206t206 -138q120 -51 252 -51t252 51q119 51 206 138q89 89 139 206zM1203 883q0 -102 -62 -181
t-158 -104l239 -363h-91l-234 354h-244v-354h-78v942h333q122 0 208.5 -86t86.5 -208zM653 667h255q89 0 152.5 63.5t63.5 152.5t-63.5 152.5t-152.5 63.5h-255v-432z" />
    <glyph glyph-name="degree" unicode="&#xb0;" horiz-adv-x="688" 
d="M343 1421q101 0 173 -71.5t72 -172.5t-72 -173t-173 -72t-173 72t-72 173t72 172.5t173 71.5zM343 991q77 0 131.5 54.5t54.5 131.5t-54.5 131.5t-131.5 54.5t-131.5 -54.5t-54.5 -131.5t54.5 -131.5t131.5 -54.5z" />
    <glyph glyph-name="twosuperior" unicode="&#xb2;" horiz-adv-x="669" 
d="M553 766v-60h-449v30q205 222 266 288q7 8 22.5 24t24.5 25.5t22.5 26t21 28t16 28.5t11.5 31.5t2.5 32.5t-5.5 36q-15 51 -58.5 84.5t-97.5 33.5q-58 0 -103.5 -36t-57.5 -92l-56 23q8 30 30 64q43 65 116 88.5t146 -1.5t115 -91q50 -81 28 -163q-6 -26 -18 -46
q-17 -33 -60 -83l-248 -271h332z" />
    <glyph glyph-name="threesuperior" unicode="&#xb3;" horiz-adv-x="702" 
d="M375 1181q90 -14 150 -83.5t60 -161.5q0 -103 -72.5 -176t-175.5 -73q-82 0 -147.5 47.5t-89.5 123.5l56 23q17 -59 67 -97t114 -38q78 0 133.5 55.5t55.5 133.5t-55.5 133.5t-133.5 55.5q-19 0 -35 -3q-20 -4 -40 -12v45l173 199h-272v59h388v-29z" />
    <glyph glyph-name="acute" unicode="&#xb4;" horiz-adv-x="403" 
d="M337 1373l-177 -294h-88l117 294h148z" />
    <glyph glyph-name="mu" unicode="&#xb5;" horiz-adv-x="1085" 
d="M816 942h118v-942h-118v109q-105 -129 -274 -129q-159 0 -275 113v-505h-117v1354h117v-569q0 -114 80.5 -194.5t194.5 -80.5t194 80.5t80 194.5v569z" />
    <glyph glyph-name="paragraph" unicode="&#xb6;" horiz-adv-x="1359" 
d="M1239 1412v-117h-176v-1707h-118v1707h-235v-1707h-118v902q-91 0 -179 37q-84 35 -147 98q-64 65 -99 147q-36 86 -36 179q0 95 36 180q34 81 99 146t147 99q85 36 179 36h647zM592 608v687q-142 0 -243 -101q-100 -100 -100 -243q0 -142 100 -242q101 -101 243 -101z
" />
    <glyph glyph-name="periodcentered" unicode="&#xb7;" horiz-adv-x="382" 
d="M309 618v-235h-235v235h235z" />
    <glyph glyph-name="cedilla" unicode="&#xb8;" horiz-adv-x="0" 
d="M-111 -235l95 235h127l-94 -235h-128z" />
    <glyph glyph-name="onesuperior" unicode="&#xb9;" horiz-adv-x="411" 
d="M104 1412h177v-706h-59v648h-118v58z" />
    <glyph glyph-name="ordmasculine" unicode="&#xba;" horiz-adv-x="688" 
d="M343 1421q101 0 173 -71.5t72 -172.5t-72 -173t-173 -72t-173 72t-72 173t72 172.5t173 71.5zM343 991q77 0 131.5 54.5t54.5 131.5t-54.5 131.5t-131.5 54.5t-131.5 -54.5t-54.5 -131.5t54.5 -131.5t131.5 -54.5z" />
    <glyph glyph-name="guillemotright" unicode="&#xbb;" horiz-adv-x="1208" 
d="M638 676v118l471 -265v-118l-471 -264v117l366 206zM109 676v118l470 -265v-118l-470 -264v117l366 206z" />
    <glyph glyph-name="onequarter" unicode="&#xbc;" horiz-adv-x="1343" 
d="M325 0h-59l647 1412h59zM119 1412h176v-706h-59v648h-117v58zM1105 235h122v-58h-122v-177h-59v177h-353v29l382 500h30v-471zM1046 235v336l-257 -336h257z" />
    <glyph glyph-name="onehalf" unicode="&#xbd;" horiz-adv-x="1384" 
d="M325 0h-59l647 1412h59zM119 1412h176v-706h-59v648h-117v58zM923 60h332v-60h-448v30q204 222 265 288q7 8 22.5 24t24.5 25.5t22.5 26t21 28t16 28.5t11.5 31.5t2.5 32.5t-5.5 36q-15 51 -58.5 84.5t-97.5 33.5q-58 0 -103.5 -36.5t-57.5 -92.5l-55 23q9 34 29 65
q43 65 116 88.5t146 -1.5t115 -91q51 -81 28 -164q-6 -24 -18 -45q-17 -33 -60 -83z" />
    <glyph glyph-name="threequarters" unicode="&#xbe;" horiz-adv-x="1490" 
d="M473 0h-59l647 1412h59zM1253 235h122v-58h-122v-177h-59v177h-353v29l382 500h30v-471zM1194 235v336l-257 -336h257zM387 1181q90 -14 150.5 -83.5t60.5 -161.5q0 -103 -73 -176t-176 -73q-82 0 -147 47.5t-89 123.5l55 23q17 -59 67 -97t114 -38q78 0 133.5 55.5
t55.5 133.5t-55.5 133.5t-133.5 55.5q-19 0 -35 -3q-20 -4 -40 -12v45l173 199h-272v59h388v-29z" />
    <glyph glyph-name="questiondown" unicode="&#xbf;" horiz-adv-x="763" 
d="M536 824v118h117v-118h-117zM129 -162q-35 82 -35 172t35 172q33 79 94 140t141 94q82 35 172 35v138h117v-256q-56 0 -77.5 -0.5t-69 -5t-74.5 -13.5t-62 -28t-63 -47q-95 -95 -95 -229t95 -229t229 -95q133 0 228 95q71 71 89 165l110 -46q-8 -33 -21 -62
q-33 -79 -94 -140q-62 -62 -141 -95q-82 -35 -171 -35q-90 0 -172 35q-79 33 -141 95q-61 61 -94 140z" />
    <glyph glyph-name="Agrave" unicode="&#xc0;" horiz-adv-x="1343" 
d="M730 1412l559 -1412h-118l-151 382h-698l-151 -382h-118l559 1412h118zM369 500h604l-302 764zM593 1560l-177 294h147l118 -294h-88z" />
    <glyph glyph-name="Aacute" unicode="&#xc1;" horiz-adv-x="1343" 
d="M730 1412l559 -1412h-118l-151 382h-698l-151 -382h-118l559 1412h118zM369 500h604l-302 764zM759 1560h-88l118 294h147z" />
    <glyph glyph-name="Acircumflex" unicode="&#xc2;" horiz-adv-x="1343" 
d="M921 1560h-88l-162 232l-162 -232h-88l177 294h147zM730 1412l559 -1412h-118l-151 382h-698l-151 -382h-118l559 1412h118zM369 500h604l-302 764z" />
    <glyph glyph-name="Atilde" unicode="&#xc3;" horiz-adv-x="1343" 
d="M782 1522q-50 5 -111 38q-7 4 -32.5 18.5t-39.5 21.5q-55 28 -93 0q-8 -6 -14 -14.5t-9.5 -15t-6 -21t-3.5 -18.5t-2.5 -22t-1.5 -20l-92 12q12 104 36 142q25 40 64 58.5t83 13.5q42 -4 98 -31q13 -7 42.5 -23.5t45.5 -24.5q56 -25 91 1q8 6 14 14.5t9.5 15t6 21
t3.5 18.5t2.5 22t1.5 20l91 -12q-1 -4 -2.5 -20.5t-2.5 -22.5t-3 -20t-4 -21.5t-5.5 -19t-8 -20.5t-9.5 -18q-25 -40 -64.5 -58.5t-83.5 -13.5zM730 1412l559 -1412h-118l-151 382h-698l-151 -382h-118l559 1412h118zM369 500h604l-302 764z" />
    <glyph glyph-name="Adieresis" unicode="&#xc4;" horiz-adv-x="1343" 
d="M627 1677v-117h-118v117h118zM833 1677v-117h-118v117h118zM730 1412l559 -1412h-118l-151 382h-698l-151 -382h-118l559 1412h118zM369 500h604l-302 764z" />
    <glyph glyph-name="Aring" unicode="&#xc5;" horiz-adv-x="1343" 
d="M734 1404l555 -1404h-118l-151 382h-698l-151 -382h-118l556 1404q-55 20 -89.5 67.5t-34.5 107.5q0 77 54.5 132t131.5 55t132 -55t55 -132q0 -60 -34.5 -107.5t-89.5 -67.5zM573 1579q0 -41 28.5 -69.5t69.5 -28.5t69.5 28.5t28.5 69.5t-28.5 69.5t-69.5 28.5
t-69.5 -28.5t-28.5 -69.5zM369 500h604l-302 764z" />
    <glyph glyph-name="AE" unicode="&#xc6;" horiz-adv-x="1765" 
d="M848 1295v-530h706v-118h-706v-529h824v-118h-942v382h-408l-151 -382h-118l559 1412h1060v-117h-824zM730 500v795h-49l-312 -795h361z" />
    <glyph glyph-name="Ccedilla" unicode="&#xc7;" horiz-adv-x="1533" 
d="M1443 304q-96 -143 -248 -229.5t-330 -93.5l-86 -216h-128l89 222q-175 24 -318.5 124.5t-226 257.5t-82.5 337q0 148 57.5 282.5t154.5 231.5t231 154.5t282 57.5q185 0 345 -87t259 -235l-98 -65q-83 124 -217 196.5t-289 72.5q-165 0 -305 -81.5t-221.5 -221.5
t-81.5 -305t81.5 -305t221.5 -221.5t305 -81.5q156 0 290 73t217 198z" />
    <glyph glyph-name="Egrave" unicode="&#xc8;" horiz-adv-x="1220" 
d="M1126 1295h-824v-530h706v-118h-706v-529h824v-118h-942v1412h942v-117zM699 1561l-176 295h147l118 -295h-89z" />
    <glyph glyph-name="Eacute" unicode="&#xc9;" horiz-adv-x="1220" 
d="M1126 1295h-824v-530h706v-118h-706v-529h824v-118h-942v1412h942v-117zM788 1854l-177 -294h-88l117 294h148z" />
    <glyph glyph-name="Ecircumflex" unicode="&#xca;" horiz-adv-x="1220" 
d="M1126 1295h-824v-530h706v-118h-706v-529h824v-118h-942v1412h942v-117zM905 1560h-88l-162 232l-162 -232h-88l177 294h147z" />
    <glyph glyph-name="Edieresis" unicode="&#xcb;" horiz-adv-x="1220" 
d="M1126 1295h-824v-530h706v-118h-706v-529h824v-118h-942v1412h942v-117zM611 1677v-117h-118v117h118zM817 1677v-117h-118v117h118z" />
    <glyph glyph-name="Igrave" unicode="&#xcc;" horiz-adv-x="487" 
d="M302 0h-118v1412h118v-1412zM213 1561l-176 295h147l118 -295h-89z" />
    <glyph glyph-name="Iacute" unicode="&#xcd;" horiz-adv-x="487" 
d="M302 0h-118v1412h118v-1412zM449 1854l-176 -294h-89l118 294h147z" />
    <glyph glyph-name="Icircumflex" unicode="&#xce;" horiz-adv-x="489" 
d="M303 0h-118v1412h118v-1412zM494 1560h-88l-162 232l-162 -232h-88l176 294h148z" />
    <glyph glyph-name="Idieresis" unicode="&#xcf;" horiz-adv-x="489" 
d="M303 0h-118v1412h118v-1412zM200 1677v-117h-118v117h118zM406 1677v-117h-118v117h118z" />
    <glyph glyph-name="Eth" unicode="&#xd0;" horiz-adv-x="1568" 
d="M751 1412q144 0 274.5 -56t225 -150.5t150.5 -225t56 -274.5t-56 -274.5t-150.5 -225t-225 -150.5t-274.5 -56h-471v647h-206v118h206v647h471zM751 118q120 0 229 46.5t187.5 125t125 187.5t46.5 229q0 160 -78.5 295.5t-214 214.5t-295.5 79h-354v-530h501v-118h-501
v-529h354z" />
    <glyph glyph-name="Ntilde" unicode="&#xd1;" horiz-adv-x="1486" 
d="M1185 1412h118v-1412h-118l-883 1216v-1216h-118v1412h118l883 -1216v1216zM854 1522q-49 5 -110 38q-4 2 -31 17.5t-42 22.5q-55 28 -93 0q-8 -6 -14 -14.5t-9.5 -15t-6 -21t-3.5 -18.5t-2.5 -22t-1.5 -20l-92 12q12 104 36 142q25 40 64.5 58.5t83.5 13.5q40 -4 97 -31
q13 -7 43 -23.5t46 -24.5q55 -25 90 1q8 6 14 14.5t9.5 15t6 21t3.5 18.5t2.5 22t1.5 20l92 -12q-12 -104 -36 -142q-25 -40 -64.5 -58.5t-83.5 -13.5z" />
    <glyph glyph-name="Ograve" unicode="&#xd2;" horiz-adv-x="1677" 
d="M838 1432q148 0 282.5 -57.5t231.5 -154.5t154.5 -231.5t57.5 -282.5t-57.5 -282.5t-154.5 -231.5t-231.5 -154.5t-282.5 -57.5t-282 57.5t-231 154.5t-154.5 231.5t-57.5 282.5t57.5 282.5t154.5 231.5t231 154.5t282 57.5zM838 98q165 0 305.5 81.5t222 221.5t81.5 305
t-81.5 305t-222 221.5t-305.5 81.5t-305 -81.5t-221.5 -221.5t-81.5 -305t81.5 -305t221.5 -221.5t305 -81.5zM883 1561l-177 295h147l118 -295h-88z" />
    <glyph glyph-name="Oacute" unicode="&#xd3;" horiz-adv-x="1677" 
d="M838 1432q148 0 282.5 -57.5t231.5 -154.5t154.5 -231.5t57.5 -282.5t-57.5 -282.5t-154.5 -231.5t-231.5 -154.5t-282.5 -57.5t-282 57.5t-231 154.5t-154.5 231.5t-57.5 282.5t57.5 282.5t154.5 231.5t231 154.5t282 57.5zM838 98q165 0 305.5 81.5t222 221.5t81.5 305
t-81.5 305t-222 221.5t-305.5 81.5t-305 -81.5t-221.5 -221.5t-81.5 -305t81.5 -305t221.5 -221.5t305 -81.5zM971 1854l-177 -294h-88l118 294h147z" />
    <glyph glyph-name="Ocircumflex" unicode="&#xd4;" horiz-adv-x="1677" 
d="M838 1432q148 0 282.5 -57.5t231.5 -154.5t154.5 -231.5t57.5 -282.5t-57.5 -282.5t-154.5 -231.5t-231.5 -154.5t-282.5 -57.5t-282 57.5t-231 154.5t-154.5 231.5t-57.5 282.5t57.5 282.5t154.5 231.5t231 154.5t282 57.5zM838 98q165 0 305.5 81.5t222 221.5t81.5 305
t-81.5 305t-222 221.5t-305.5 81.5t-305 -81.5t-221.5 -221.5t-81.5 -305t81.5 -305t221.5 -221.5t305 -81.5zM1089 1560h-89l-162 232l-161 -232h-89l177 294h147z" />
    <glyph glyph-name="Otilde" unicode="&#xd5;" horiz-adv-x="1677" 
d="M838 1432q148 0 282.5 -57.5t231.5 -154.5t154.5 -231.5t57.5 -282.5t-57.5 -282.5t-154.5 -231.5t-231.5 -154.5t-282.5 -57.5t-282 57.5t-231 154.5t-154.5 231.5t-57.5 282.5t57.5 282.5t154.5 231.5t231 154.5t282 57.5zM838 98q165 0 305.5 81.5t222 221.5t81.5 305
t-81.5 305t-222 221.5t-305.5 81.5t-305 -81.5t-221.5 -221.5t-81.5 -305t81.5 -305t221.5 -221.5t305 -81.5zM949 1522q-49 5 -110 38q-4 2 -31 17.5t-42 22.5q-55 28 -93 0q-8 -6 -14 -14.5t-9.5 -15t-6 -21t-3.5 -18.5t-2.5 -22t-1.5 -20l-92 12q12 104 36 142
q25 40 64.5 58.5t83.5 13.5q40 -4 97 -31q13 -7 43 -23.5t46 -24.5q55 -25 90 1q8 6 14 14.5t9.5 15t6 21t3.5 18.5t2.5 22t1.5 20l92 -12q-12 -104 -36 -142q-25 -40 -64.5 -58.5t-83.5 -13.5z" />
    <glyph glyph-name="Odieresis" unicode="&#xd6;" horiz-adv-x="1677" 
d="M838 1432q148 0 282.5 -57.5t231.5 -154.5t154.5 -231.5t57.5 -282.5t-57.5 -282.5t-154.5 -231.5t-231.5 -154.5t-282.5 -57.5t-282 57.5t-231 154.5t-154.5 231.5t-57.5 282.5t57.5 282.5t154.5 231.5t231 154.5t282 57.5zM838 98q165 0 305.5 81.5t222 221.5t81.5 305
t-81.5 305t-222 221.5t-305.5 81.5t-305 -81.5t-221.5 -221.5t-81.5 -305t81.5 -305t221.5 -221.5t305 -81.5zM794 1677v-117h-117v117h117zM1000 1677v-117h-117v117h117z" />
    <glyph glyph-name="multiply" unicode="&#xd7;" horiz-adv-x="962" 
d="M856 762l-292 -292l292 -291l-84 -83l-291 291l-291 -291l-84 83l292 291l-292 292l84 83l291 -291l291 291z" />
    <glyph glyph-name="Oslash" unicode="&#xd8;" horiz-adv-x="1689" 
d="M1342 1235q107 -101 167.5 -238.5t60.5 -290.5q0 -148 -57.5 -282.5t-154.5 -231.5t-231 -154.5t-282 -57.5q-240 0 -430 141l-118 -141l-68 57l118 141q-107 101 -167.5 238t-60.5 290q0 148 57.5 282.5t154.5 231.5t231.5 154.5t282.5 57.5q240 0 430 -141l117 141
l68 -56zM236 706q0 -127 49 -239.5t137 -197.5l777 931q-158 114 -354 114q-165 0 -305.5 -81.5t-222 -221.5t-81.5 -305zM845 98q165 0 305 81.5t221.5 221.5t81.5 305q0 127 -49 240t-137 198l-777 -932q158 -114 355 -114z" />
    <glyph glyph-name="Ugrave" unicode="&#xd9;" horiz-adv-x="1277" 
d="M683 1560l-177 294h147l118 -294h-88zM1110 1412v-961q0 -195 -138 -333t-333 -138t-333 138t-138 333v961h118v-961q0 -146 103.5 -249.5t249.5 -103.5t249.5 103.5t103.5 249.5v961h118z" />
    <glyph glyph-name="Uacute" unicode="&#xda;" horiz-adv-x="1277" 
d="M1110 1412v-961q0 -195 -138 -333t-333 -138t-333 138t-138 333v961h118v-961q0 -146 103.5 -249.5t249.5 -103.5t249.5 103.5t103.5 249.5v961h118zM707 1560h-88l118 294h147z" />
    <glyph glyph-name="Ucircumflex" unicode="&#xdb;" horiz-adv-x="1277" 
d="M889 1560h-88l-162 232l-162 -232h-88l176 294h147zM1110 1412v-961q0 -195 -138 -333t-333 -138t-333 138t-138 333v961h118v-961q0 -146 103.5 -249.5t249.5 -103.5t249.5 103.5t103.5 249.5v961h118z" />
    <glyph glyph-name="Udieresis" unicode="&#xdc;" horiz-adv-x="1277" 
d="M595 1677v-117h-118v117h118zM801 1677v-117h-118v117h118zM1110 1412v-961q0 -195 -138 -333t-333 -138t-333 138t-138 333v961h118v-961q0 -146 103.5 -249.5t249.5 -103.5t249.5 103.5t103.5 249.5v961h118z" />
    <glyph glyph-name="Yacute" unicode="&#xdd;" horiz-adv-x="1153" 
d="M979 1412h137l-481 -720v-692h-118v692l-480 720h137l402 -603zM782 1854l-176 -294h-89l118 294h147z" />
    <glyph glyph-name="Thorn" unicode="&#xde;" horiz-adv-x="1218" 
d="M685 1148q183 0 312 -129.5t129 -312.5t-129 -312t-312 -129h-383v-265h-118v1412h118v-264h383zM685 383q134 0 228.5 94.5t94.5 228.5t-94.5 229t-228.5 95h-383v-647h383z" />
    <glyph glyph-name="germandbls" unicode="&#xdf;" horiz-adv-x="1144" 
d="M799 733q106 -46 171 -143.5t65 -216.5q0 -163 -115 -278t-278 -115q-121 0 -218 66l66 98q70 -46 152 -46q114 0 194.5 80.5t80.5 194.5q0 111 -78.5 191t-189.5 83h-159v118h64q114 0 194.5 80.5t80.5 194.5t-80.5 194t-194.5 80t-194.5 -80t-80.5 -194v-1040h-117
v1040q0 163 114.5 277.5t277.5 114.5t277.5 -114.5t114.5 -277.5q0 -92 -39 -172t-108 -135z" />
    <glyph glyph-name="agrave" unicode="&#xe0;" horiz-adv-x="1255" 
d="M974 943h118v-942h-118v174q-62 -91 -159 -143t-214 -52q-203 0 -346.5 144t-143.5 347t143.5 346.5t346.5 143.5q117 0 214 -51.5t159 -142.5v176zM601 98q155 0 264 109t109 264t-109 264t-264 109t-264 -109t-109 -264t109 -264t264 -109zM660 1089l-177 294h148
l117 -294h-88z" />
    <glyph glyph-name="aacute" unicode="&#xe1;" horiz-adv-x="1255" 
d="M974 943h118v-942h-118v174q-62 -91 -159 -143t-214 -52q-203 0 -346.5 144t-143.5 347t143.5 346.5t346.5 143.5q117 0 214 -51.5t159 -142.5v176zM601 98q155 0 264 109t109 264t-109 264t-264 109t-264 -109t-109 -264t109 -264t264 -109zM866 1383l-177 -294h-88
l118 294h147z" />
    <glyph glyph-name="acircumflex" unicode="&#xe2;" horiz-adv-x="1255" 
d="M866 1089h-88l-162 232l-162 -232h-88l176 294h147zM974 943h118v-942h-118v174q-62 -91 -159 -143t-214 -52q-203 0 -346.5 144t-143.5 347t143.5 346.5t346.5 143.5q117 0 214 -51.5t159 -142.5v176zM601 98q155 0 264 109t109 264t-109 264t-264 109t-264 -109
t-109 -264t109 -264t264 -109z" />
    <glyph glyph-name="atilde" unicode="&#xe3;" horiz-adv-x="1255" 
d="M974 943h118v-942h-118v174q-62 -91 -159 -143t-214 -52q-203 0 -346.5 144t-143.5 347t143.5 346.5t346.5 143.5q117 0 214 -51.5t159 -142.5v176zM601 98q155 0 264 109t109 264t-109 264t-264 109t-264 -109t-109 -264t109 -264t264 -109zM712 1139q-48 5 -111 39
q-8 4 -22.5 12.5t-26.5 15t-23 11.5q-55 28 -93 0q-8 -6 -14 -14.5t-9.5 -15t-6 -21t-3.5 -18.5t-2.5 -22t-1.5 -20l-92 13q12 104 36 142q25 40 64 58.5t83 13.5q39 -3 98 -32q13 -7 42.5 -23.5t45.5 -24.5q55 -25 91 2q8 6 14 14.5t9.5 15t6 21t3.5 18.5t2.5 22t1.5 20
l91 -13q-1 -4 -2.5 -20.5t-2.5 -22.5t-3 -20t-4 -21.5t-5.5 -19t-8 -20.5t-9.5 -18q-25 -40 -64.5 -58.5t-83.5 -13.5z" />
    <glyph glyph-name="adieresis" unicode="&#xe4;" horiz-adv-x="1255" 
d="M974 943h118v-942h-118v174q-62 -91 -159 -143t-214 -52q-203 0 -346.5 144t-143.5 347t143.5 346.5t346.5 143.5q117 0 214 -51.5t159 -142.5v176zM601 98q155 0 264 109t109 264t-109 264t-264 109t-264 -109t-109 -264t109 -264t264 -109zM572 1295v-118h-118v118h118
zM778 1295v-118h-118v118h118z" />
    <glyph glyph-name="aring" unicode="&#xe5;" horiz-adv-x="1255" 
d="M974 943h118v-942h-118v174q-62 -91 -159 -143t-214 -52q-203 0 -346.5 144t-143.5 347t143.5 346.5t346.5 143.5q117 0 214 -52t159 -143v177zM601 98q155 0 264 109t109 264t-109 264t-264 109t-264 -109t-109 -264t109 -264t264 -109zM631 1412q77 0 131.5 -54.5
t54.5 -131.5t-54.5 -131.5t-131.5 -54.5t-132 54.5t-55 131.5t55 131.5t132 54.5zM631 1128q41 0 69.5 29t28.5 69t-28.5 69t-69.5 29t-69.5 -29t-28.5 -69t28.5 -69t69.5 -29z" />
    <glyph glyph-name="ae" unicode="&#xe6;" horiz-adv-x="2058" 
d="M1955 471q0 -21 -4 -59h-855q21 -134 125 -224t243 -90q95 0 177 45t133 121l98 -66q-67 -100 -175 -159t-233 -59q-110 0 -206.5 46t-165.5 126v-149h-118v173q-62 -91 -159 -142.5t-214 -51.5q-203 0 -346.5 143.5t-143.5 346.5t143.5 347t346.5 144q117 0 214 -52
t159 -143v176h118v-154q69 80 165.5 125.5t206.5 45.5q187 0 326 -124t161 -307q4 -38 4 -59zM601 99q152 0 260.5 106t112.5 258v8v8q-3 152 -112 259t-261 107q-155 0 -264 -109.5t-109 -263.5t109 -263.5t264 -109.5zM1096 530h736q-21 134 -125 224t-243 90t-243 -90
t-125 -224z" />
    <glyph glyph-name="ccedilla" unicode="&#xe7;" horiz-adv-x="1103" 
d="M601 98q95 0 177 45t133 121l98 -66q-61 -91 -155 -148t-206 -67l-87 -218h-128l89 222q-176 29 -293.5 165.5t-117.5 318.5q0 203 143.5 346.5t346.5 143.5q125 0 233 -59t175 -159l-98 -65q-51 76 -133 121t-177 45q-155 0 -264 -109t-109 -264t109 -264t264 -109z" />
    <glyph glyph-name="egrave" unicode="&#xe8;" horiz-adv-x="1191" 
d="M660 1092l-177 294h148l117 -294h-88zM1091 441h-862q11 -144 118 -243.5t254 -99.5q95 0 177 45t133 121l98 -66q-67 -100 -175 -159t-233 -59q-195 0 -337 134t-153 327q-1 0 -1 15l1 15q0 42 8 88q32 173 167.5 287.5t314.5 114.5t315 -114.5t168 -287.5q7 -41 7 -88
l1 -15q0 -15 -1 -15zM239 559h724q-30 124 -131 204.5t-231 80.5t-231 -80.5t-131 -204.5z" />
    <glyph glyph-name="eacute" unicode="&#xe9;" horiz-adv-x="1191" 
d="M866 1383l-177 -294h-88l118 294h147zM1091 441h-862q11 -144 118 -243.5t254 -99.5q95 0 177 45t133 121l98 -66q-67 -100 -175 -159t-233 -59q-195 0 -337 134t-153 327q-1 0 -1 15l1 15q0 42 8 88q32 173 167.5 287.5t314.5 114.5t315 -114.5t168 -287.5q7 -41 7 -88
l1 -15q0 -15 -1 -15zM239 559h724q-30 124 -131 204.5t-231 80.5t-231 -80.5t-131 -204.5z" />
    <glyph glyph-name="ecircumflex" unicode="&#xea;" horiz-adv-x="1191" 
d="M866 1089h-88l-162 232l-162 -232h-88l176 294h147zM1091 441h-862q11 -144 118 -243.5t254 -99.5q95 0 177 45t133 121l98 -66q-67 -100 -175 -159t-233 -59q-195 0 -337 134t-153 327q-1 0 -1 15l1 15q0 42 8 88q32 173 167.5 287.5t314.5 114.5t315 -114.5t168 -287.5
q7 -41 7 -88l1 -15q0 -15 -1 -15zM239 559h724q-30 124 -131 204.5t-231 80.5t-231 -80.5t-131 -204.5z" />
    <glyph glyph-name="edieresis" unicode="&#xeb;" horiz-adv-x="1191" 
d="M572 1295v-118h-118v118h118zM778 1295v-118h-118v118h118zM1091 441h-862q11 -144 118 -243.5t254 -99.5q95 0 177 45t133 121l98 -66q-67 -100 -175 -159t-233 -59q-195 0 -337 134t-153 327q-1 0 -1 15l1 15q0 42 8 88q32 173 167.5 287.5t314.5 114.5t315 -114.5
t168 -287.5q7 -41 7 -88l1 -15q0 -15 -1 -15zM239 559h724q-30 124 -131 204.5t-231 80.5t-231 -80.5t-131 -204.5z" />
    <glyph glyph-name="igrave" unicode="&#xec;" horiz-adv-x="442" 
d="M161 942h118l-1 -942h-118zM191 1089l-177 294h147l118 -294h-88z" />
    <glyph glyph-name="iacute" unicode="&#xed;" horiz-adv-x="442" 
d="M163 942h118l-2 -942h-117zM428 1383l-177 -294h-88l118 294h147z" />
    <glyph glyph-name="icircumflex" unicode="&#xee;" horiz-adv-x="444" 
d="M163 942h118l-1 -942h-118zM472 1089h-89l-162 232l-161 -232h-89l177 294h147z" />
    <glyph glyph-name="idieresis" unicode="&#xef;" horiz-adv-x="444" 
d="M163 942h118l-1 -942h-118zM177 1295v-118h-118v118h118zM383 1295v-118h-118v118h118z" />
    <glyph glyph-name="eth" unicode="&#xf0;" horiz-adv-x="1202" 
d="M1085 549q6 -39 6 -77q0 -203 -143.5 -347.5t-346.5 -144.5t-346.5 144.5t-143.5 347.5q0 131 67 246.5t181 179.5q118 66 242 63q69 -2 120 -25l-166 230l-180 -120l-49 73l177 118l-128 175h148q24 -32 79 -109l163 109l49 -73l-160 -107q52 -71 134 -184t137.5 -189.5
t70.5 -96.5q71 -97 89 -213zM601 98q155 0 264 109t109 264t-109 264t-264 109t-264 -109t-109 -264t109 -264t264 -109z" />
    <glyph glyph-name="ntilde" unicode="&#xf1;" horiz-adv-x="1091" 
d="M827 0v569q0 114 -80.5 194.5t-194.5 80.5t-194.5 -80.5t-80.5 -194.5v-569h-117v942h117v-110q105 129 275 129q163 0 277.5 -114.5t114.5 -277.5v-569h-117zM643 1130q-47 5 -110 39q-64 35 -73 39q-55 28 -93 0q-8 -6 -14 -14.5t-9.5 -15t-6 -21t-3.5 -18.5t-2.5 -22
t-1.5 -20l-92 13q12 104 36 142q25 39 64.5 57.5t83.5 13.5q40 -4 97 -31q13 -7 43 -23.5t46 -24.5q55 -25 90 1q8 6 14 14.5t9.5 15.5t6 21t3.5 19t2.5 22.5t1.5 19.5l92 -13q-12 -104 -36 -142q-25 -40 -64.5 -58.5t-83.5 -13.5z" />
    <glyph glyph-name="ograve" unicode="&#xf2;" horiz-adv-x="1204" 
d="M601 961q203 0 347 -143.5t144 -346.5t-144 -347t-347 -144t-346.5 144t-143.5 347t143.5 346.5t346.5 143.5zM601 98q155 0 264 109t109 264t-109 264t-264 109t-264 -109t-109 -264t109 -264t264 -109zM660 1089l-177 294h148l117 -294h-88z" />
    <glyph glyph-name="oacute" unicode="&#xf3;" horiz-adv-x="1204" 
d="M601 961q203 0 347 -143.5t144 -346.5t-144 -347t-347 -144t-346.5 144t-143.5 347t143.5 346.5t346.5 143.5zM601 98q155 0 264 109t109 264t-109 264t-264 109t-264 -109t-109 -264t109 -264t264 -109zM866 1384l-177 -294h-88l118 294h147z" />
    <glyph glyph-name="ocircumflex" unicode="&#xf4;" horiz-adv-x="1204" 
d="M601 961q203 0 347 -143.5t144 -346.5t-144 -347t-347 -144t-346.5 144t-143.5 347t143.5 346.5t346.5 143.5zM601 98q155 0 264 109t109 264t-109 264t-264 109t-264 -109t-109 -264t109 -264t264 -109zM866 1089h-88l-162 232l-162 -232h-88l176 294h147z" />
    <glyph glyph-name="otilde" unicode="&#xf5;" horiz-adv-x="1204" 
d="M601 961q203 0 347 -143.5t144 -346.5t-144 -347t-347 -144t-346.5 144t-143.5 347t143.5 346.5t346.5 143.5zM601 98q155 0 264 109t109 264t-109 264t-264 109t-264 -109t-109 -264t109 -264t264 -109zM712 1132q-50 5 -111 38q-7 4 -32.5 18.5t-39.5 21.5
q-55 28 -93 0q-8 -6 -14 -14.5t-9.5 -15t-6 -21t-3.5 -18.5t-2.5 -22t-1.5 -20l-92 12q12 104 36 142q25 40 64 58.5t83 13.5q42 -4 98 -31q13 -7 42.5 -23.5t45.5 -24.5q56 -25 91 1q8 6 14 14.5t9.5 15t6 21t3.5 18.5t2.5 22t1.5 20l91 -13q-1 -4 -2.5 -20.5t-2.5 -22.5
t-3 -20t-4 -21.5t-5.5 -19t-8 -20.5t-9.5 -18q-25 -39 -64.5 -57.5t-83.5 -13.5z" />
    <glyph glyph-name="odieresis" unicode="&#xf6;" horiz-adv-x="1204" 
d="M601 961q203 0 347 -143.5t144 -346.5t-144 -347t-347 -144t-346.5 144t-143.5 347t143.5 346.5t346.5 143.5zM601 98q155 0 264 109t109 264t-109 264t-264 109t-264 -109t-109 -264t109 -264t264 -109zM572 1295v-118h-118v118h118zM778 1295v-118h-118v118h118z" />
    <glyph glyph-name="divide" unicode="&#xf7;" horiz-adv-x="954" 
d="M536 942v-118h-118v118h118zM536 118v-118h-118v118h118zM899 530v-118h-844v118h844z" />
    <glyph glyph-name="oslash" unicode="&#xf8;" horiz-adv-x="1212" 
d="M938 831q74 -69 116 -162t42 -198q0 -203 -144 -347t-347 -144q-157 0 -287 93l-60 -74l-46 38l61 73q-74 69 -116 162.5t-42 198.5q0 203 143.5 346.5t346.5 143.5q159 0 287 -92l60 73l46 -37zM232 471q0 -159 115 -269l471 575q-96 67 -213 67q-155 0 -264 -109
t-109 -264zM605 98q155 0 264 109t109 264q0 159 -115 269l-470 -576q94 -66 212 -66z" />
    <glyph glyph-name="ugrave" unicode="&#xf9;" 
d="M597 1092l-177 294h147l118 -294h-88zM812 373v569h118v-942h-118v109q-105 -129 -274 -129q-163 0 -278 115t-115 278v569h118v-569q0 -114 80.5 -194.5t194.5 -80.5t194 80.5t80 194.5z" />
    <glyph glyph-name="uacute" unicode="&#xfa;" 
d="M803 1383l-177 -294h-88l118 294h147zM812 373v569h118v-942h-118v109q-105 -129 -274 -129q-163 0 -278 115t-115 278v569h118v-569q0 -114 80.5 -194.5t194.5 -80.5t194 80.5t80 194.5z" />
    <glyph glyph-name="ucircumflex" unicode="&#xfb;" 
d="M803 1089h-89l-161 232l-162 -232h-89l177 294h147zM812 373v569h118v-942h-118v109q-105 -129 -274 -129q-163 0 -278 115t-115 278v569h118v-569q0 -114 80.5 -194.5t194.5 -80.5t194 80.5t80 194.5z" />
    <glyph glyph-name="udieresis" unicode="&#xfc;" 
d="M508 1295v-118h-117v118h117zM714 1295v-118h-117v118h117zM812 942h118v-942h-118v109q-105 -129 -274 -129q-163 0 -278 115t-115 278v569h118v-569q0 -114 80.5 -194.5t194.5 -80.5t194 80.5t80 194.5v569z" />
    <glyph glyph-name="yacute" unicode="&#xfd;" horiz-adv-x="1019" 
d="M829 942h127l-549 -1354h-128l167 412l-383 942h128l319 -785zM775 1383l-177 -294h-88l118 294h147z" />
    <glyph glyph-name="thorn" unicode="&#xfe;" horiz-adv-x="1253" 
d="M652 961q203 0 347 -143.5t144 -346.5t-144 -347t-347 -144q-117 0 -214 52t-159 143v-587h-117v1825h117v-646q62 91 159 142.5t214 51.5zM652 98q154 0 263.5 109t109.5 264t-109.5 264t-263.5 109q-151 0 -259.5 -105.5t-113.5 -256.5v-22q5 -151 113.5 -256.5
t259.5 -105.5z" />
    <glyph glyph-name="ydieresis" unicode="&#xff;" horiz-adv-x="1019" 
d="M480 1295v-118h-117v118h117zM686 1295v-118h-117v118h117zM829 942h127l-549 -1354h-128l167 412l-383 942h128l319 -785z" />
    <glyph glyph-name="dotlessi" unicode="&#x131;" horiz-adv-x="440" 
d="M161 942h118l-2 -942h-117z" />
    <glyph glyph-name="Lslash" unicode="&#x141;" horiz-adv-x="1079" 
d="M386 108h647v-108h-765v586l-186 -115v118l186 114v709h118v-636l402 247v-118l-402 -247v-550z" />
    <glyph glyph-name="lslash" unicode="&#x142;" horiz-adv-x="634" 
d="M568 942v-118l-186 -114v-710h-118l1 637l-187 -115v118l187 115v657h118v-585z" />
    <glyph glyph-name="OE" unicode="&#x152;" horiz-adv-x="2484" 
d="M2388 1412v-117h-824v-530h707v-118h-707v-529h824v-118h-941v310q-100 -152 -260.5 -241t-348.5 -89q-148 0 -282 57.5t-231 154.5t-154.5 231.5t-57.5 282.5t57.5 282.5t154.5 231.5t231 154.5t282 57.5q188 0 349 -89t260 -240v309h941zM838 98q165 0 305.5 81.5
t222 221.5t81.5 305t-81.5 305t-222 221.5t-305.5 81.5t-305 -81.5t-221.5 -221.5t-81.5 -305t81.5 -305t221.5 -221.5t305 -81.5z" />
    <glyph glyph-name="oe" unicode="&#x153;" horiz-adv-x="2058" 
d="M1955 471q0 -21 -4 -59h-855q21 -134 125 -224t243 -90q95 0 177 45t133 121l98 -66q-67 -100 -175 -159t-233 -59q-138 0 -253.5 70.5t-178.5 187.5q-63 -117 -178.5 -186.5t-252.5 -69.5q-203 0 -346.5 144t-143.5 347t143.5 346.5t346.5 143.5q138 0 253.5 -70.5
t178.5 -187.5q63 117 178.5 186.5t252.5 69.5q187 0 326 -124t161 -307q4 -38 4 -59zM601 100q151 0 259.5 105t113.5 255v11v12q-5 151 -113.5 256.5t-259.5 105.5q-155 0 -264 -109t-109 -263q0 -155 109 -264t264 -109zM1096 530h736q-21 134 -125 224t-243 90t-243 -90
t-125 -224z" />
    <glyph glyph-name="Scaron" unicode="&#x160;" horiz-adv-x="1110" 
d="M994 370q5 -125 -68 -222q-61 -83 -162 -127q-91 -41 -196 -41q-202 0 -339 122q-65 58 -102 136q-14 31 -23 59l110 46q20 -89 93 -153q103 -92 261 -92q78 0 149 31q72 32 114 88q48 65 45.5 148.5t-54.5 147.5q-33 41 -86.5 76t-93 51.5t-115 43.5t-101.5 38
q-173 69 -236 178q-66 114 -27 250q22 74 72 135.5t117 95.5q110 57 237 51q129 -6 231 -73q105 -69 145 -185l-109 -45q-6 21 -22 49q-28 48 -79 82q-81 53 -183.5 55t-184.5 -50q-76 -51 -106.5 -137t11.5 -169q17 -30 43 -54t63 -42.5t62.5 -29t73 -26.5t64.5 -22
q103 -38 182 -84t134 -114q75 -94 80 -217zM299 1854h89l161 -233l162 233h89l-177 -294h-147z" />
    <glyph glyph-name="scaron" unicode="&#x161;" horiz-adv-x="925" 
d="M781 381q28 -55 28 -117q0 -66 -33 -125.5t-91 -98.5t-135 -53t-152 -3.5t-140 40.5q-49 22 -92 56q-11 9 -43 40t-29 33l98 65q59 -78 160 -104q72 -19 143 -14q75 4 124 38q60 40 69.5 106t-39.5 120q-31 33 -72 45.5t-102.5 15.5t-85.5 8q-80 16 -139 59
q-48 36 -74 84q-29 53 -29 117q0 54 25 107q24 50 64 85q85 76 226 76q173 0 285 -101q26 -23 48 -53q-11 -7 -16 -10.5t-9 -6.5t-22.5 -15t-49.5 -33q-45 59 -122 85q-43 14 -95 15.5t-101 -10.5t-82 -48t-33 -91q0 -131 212 -150q108 -10 185 -45t119 -117zM202 1383h88
l162 -233l162 233h88l-177 -294h-147z" />
    <glyph glyph-name="umacron" unicode="&#x16b;" 
d="M812 942h118v-942h-118v109q-105 -129 -274 -129q-163 0 -278 115t-115 278v569h118v-569q0 -114 80.5 -194.5t194.5 -80.5t194 80.5t80 194.5v569zM778 1295v-118h-481v118h481z" />
    <glyph glyph-name="ubreve" unicode="&#x16d;" 
d="M812 942h118v-942h-118v109q-105 -129 -274 -129q-163 0 -278 115t-115 278v569h118v-569q0 -114 80.5 -194.5t194.5 -80.5t194 80.5t80 194.5v569zM734 1295q0 -81 -57.5 -138.5t-138.5 -57.5t-138.5 57.5t-57.5 138.5h117q0 -32 23.5 -55.5t55.5 -23.5t55 23.5t23 55.5
h118z" />
    <glyph glyph-name="Ydieresis" unicode="&#x178;" horiz-adv-x="1153" 
d="M979 1412h137l-481 -720v-692h-118v692l-480 720h137l402 -603zM532 1677v-117h-118v117h118zM738 1677v-117h-118v117h118z" />
    <glyph glyph-name="Zcaron" unicode="&#x17d;" horiz-adv-x="1179" 
d="M256 118h853v-118h-1039v59l824 1236h-766v117h952v-58zM339 1854h89l162 -233l161 233h89l-177 -294h-147z" />
    <glyph glyph-name="zcaron" unicode="&#x17e;" horiz-adv-x="968" 
d="M236 1383h88l162 -233l162 233h88l-176 -294h-147zM270 108h618v-108h-804v59l579 775h-540v108h726v-59z" />
    <glyph glyph-name="circumflex" unicode="&#x2c6;" horiz-adv-x="641" 
d="M570 1089h-88l-162 232l-162 -232h-88l176 294h147z" />
    <glyph glyph-name="caron" unicode="&#x2c7;" horiz-adv-x="632" 
d="M66 1383h88l162 -233l162 233h88l-177 -294h-147z" />
    <glyph glyph-name="ring" unicode="&#x2da;" horiz-adv-x="548" 
d="M274 1412q77 0 132 -54.5t55 -131.5t-55 -131.5t-132 -54.5t-131.5 54.5t-54.5 131.5t54.5 131.5t131.5 54.5zM274 1128q41 0 70 29t29 69t-29 69t-70 29q-40 0 -69 -29t-29 -69t29 -69t69 -29z" />
    <glyph glyph-name="ilde" unicode="&#x2dc;" horiz-adv-x="733" 
d="M477 1137q-50 5 -111 38q-4 2 -31 17.5t-42 22.5q-54 28 -92 0q-8 -6 -14 -14.5t-9.5 -15t-6 -21t-3.5 -18.5t-2.5 -22t-1.5 -20l-92 13q1 4 2.5 20.5t2.5 22.5t3 20t4 21.5t5.5 19t8 20.5t9.5 18q25 39 64.5 57.5t83.5 13.5q42 -4 98 -31q13 -7 42.5 -23.5t45.5 -24.5
q55 -25 90 1q8 6 14 14.5t9.5 15t6 21t3.5 18.5t2.5 22t1.5 20l92 -12q-1 -4 -2.5 -20.5t-2.5 -22.5t-3 -20t-4 -21.5t-5.5 -19t-8 -20.5t-9.5 -18q-25 -40 -64.5 -58.5t-83.5 -13.5z" />
    <glyph glyph-name="endash" unicode="&#x2013;" horiz-adv-x="946" 
d="M895 530v-118h-844v118h844z" />
    <glyph glyph-name="emdash" unicode="&#x2014;" horiz-adv-x="1673" 
d="M1621 412h-1570v118h1570v-118z" />
    <glyph glyph-name="quoteleft" unicode="&#x2018;" horiz-adv-x="423" 
d="M343 1412l-147 -412h-118l176 412h89z" />
    <glyph glyph-name="quoteright" unicode="&#x2019;" horiz-adv-x="423" 
d="M80 1000l147 412h118l-177 -412h-88z" />
    <glyph glyph-name="quotesinglbase" unicode="&#x201a;" horiz-adv-x="446" 
d="M-31 -294l177 529h235l-235 -529h-177z" />
    <glyph glyph-name="quotedblleft" unicode="&#x201c;" horiz-adv-x="716" 
d="M637 1412l-147 -412h-118l177 412h88zM343 1412l-147 -412h-118l176 412h89z" />
    <glyph glyph-name="quotedblright" unicode="&#x201d;" horiz-adv-x="716" 
d="M80 1000l147 412h118l-177 -412h-88zM374 1000l147 412h118l-177 -412h-88z" />
    <glyph glyph-name="quotedblbase" unicode="&#x201e;" horiz-adv-x="550" 
d="M-55 -294l147 412h118l-177 -412h-88zM239 -294l147 412h118l-177 -412h-88z" />
    <glyph glyph-name="dagger" unicode="&#x2020;" horiz-adv-x="1142" 
d="M1042 942v-118h-412v-1236h-118v1236h-412v118h412v470h118v-470h412z" />
    <glyph glyph-name="daggerdbl" unicode="&#x2021;" horiz-adv-x="1208" 
d="M1075 824h-412v-412h412v-118h-412v-706h-118v706h-412v118h412v412h-412v118h412v470h118v-470h412v-118z" />
    <glyph glyph-name="bullet" unicode="&#x2022;" horiz-adv-x="221" 
d="M169 530v-118h-118v118h118z" />
    <glyph glyph-name="ellipsis" unicode="&#x2026;" horiz-adv-x="755" 
d="M171 118v-118h-118v118h118zM436 118v-118h-118v118h118zM701 118v-118h-118v118h118z" />
    <glyph glyph-name="guilsinglleft" unicode="&#x2039;" horiz-adv-x="677" 
d="M569 647v-117l-366 -206l366 -206v-118l-471 265v118z" />
    <glyph glyph-name="guilsinglright" unicode="&#x203a;" horiz-adv-x="677" 
d="M109 530v117l470 -264v-118l-470 -265v118l366 206z" />
    <glyph glyph-name="fraction" unicode="&#x2044;" horiz-adv-x="892" 
d="M153 0h-59l648 1412h58z" />
    <glyph glyph-name="zerosuperior" unicode="&#x2070;" horiz-adv-x="727" 
d="M363 1432q119 0 180 -104.5t61 -268.5t-61 -268t-180 -104t-180.5 104t-61.5 268t61.5 268.5t180.5 104.5zM363 747q63 0 104.5 43t59 111t17.5 158t-17.5 158t-59 111.5t-104.5 43.5q-93 0 -137.5 -87t-44.5 -226t44.5 -225.5t137.5 -86.5z" />
    <glyph glyph-name="foursuperior" unicode="&#x2074;" horiz-adv-x="731" 
d="M506 942h123v-59h-123v-177h-59v177h-353v29l383 500h29v-470zM447 942v336l-256 -336h256z" />
    <glyph glyph-name="fivesuperior" unicode="&#x2075;" horiz-adv-x="712" 
d="M349 1184q103 0 176 -72.5t73 -175.5t-73 -176t-176 -73q-82 0 -147 48t-89 124l55 23q18 -59 67.5 -97.5t113.5 -38.5q78 0 133.5 55.5t55.5 133.5t-55.5 133.5t-133.5 55.5q-65 0 -115 -39l-73 9l14 318h368v-59h-311l-9 -203q57 34 126 34z" />
    <glyph glyph-name="sixsuperior" unicode="&#x2076;" horiz-adv-x="716" 
d="M357 1184q64 1 123 -32q58 -32 92 -91t34 -125q0 -103 -73 -176t-176 -73t-175.5 73t-72.5 176q0 20 3 39q9 58 45 108q12 15 66.5 90.5t112 154t61.5 84.5h74l-175 -241q27 11 61 13zM357 746q78 0 133.5 55.5t55.5 133.5t-55.5 133.5t-133.5 55.5t-133.5 -55.5
t-55.5 -133.5t55.5 -133.5t133.5 -55.5z" />
    <glyph glyph-name="sevensuperior" unicode="&#x2077;" horiz-adv-x="602" 
d="M96 1412h412v-29l-299 -677h-69l287 648h-331v58z" />
    <glyph glyph-name="eightsuperior" unicode="&#x2078;" horiz-adv-x="708" 
d="M462 1105q58 -28 93 -81t35 -116q0 -92 -69.5 -156.5t-167.5 -64.5t-167 64.5t-69 156.5q0 63 35 116t93 81q-73 55 -73 146q0 75 53 128t128 53t128.5 -53t53.5 -128q0 -91 -73 -146zM353 1372q-50 0 -85 -35.5t-35 -85.5t35 -85.5t85 -35.5t85.5 35.5t35.5 85.5
t-35.5 85.5t-85.5 35.5zM353 747q73 0 125 47t52 114t-52 114t-125 47t-124.5 -47t-51.5 -114t51.5 -114t124.5 -47z" />
    <glyph glyph-name="ninesuperior" unicode="&#x2079;" horiz-adv-x="714" 
d="M357 935q-64 -1 -123 32q-57 32 -91 91t-34 125q0 103 72.5 176t175.5 73t176 -73t73 -176q0 -19 -3 -39q-9 -56 -46 -108q-16 -21 -128 -176l-112 -154h-74l175 242q-27 -11 -61 -13zM357 1372q-78 0 -133.5 -55.5t-55.5 -133.5t55.5 -133t133.5 -55t133.5 55t55.5 133
t-55.5 133.5t-133.5 55.5z" />
    <glyph glyph-name="zeroinferior" unicode="&#x2080;" horiz-adv-x="727" 
d="M363 726q119 0 180 -104.5t61 -268.5t-61 -268.5t-180 -104.5t-180.5 104.5t-61.5 268.5t61.5 268.5t180.5 104.5zM363 41q63 0 104.5 43t59 111t17.5 158t-17.5 158t-59 111t-104.5 43q-93 0 -137.5 -86.5t-44.5 -225.5t44.5 -225.5t137.5 -86.5z" />
    <glyph glyph-name="oneinferior" unicode="&#x2081;" horiz-adv-x="411" 
d="M104 706h177v-706h-59v647h-118v59z" />
    <glyph glyph-name="twoinferior" unicode="&#x2082;" horiz-adv-x="673" 
d="M555 60v-60h-449v30q205 222 266 288q7 8 22.5 24t24.5 25.5t22.5 26t21 28t16 28.5t11.5 31.5t2.5 32.5t-5.5 36q-15 51 -58.5 84.5t-97.5 33.5q-58 0 -103.5 -36t-57.5 -92l-56 22q8 31 30 65q43 65 116 88.5t146 -1.5t115 -91q51 -81 28 -164q-6 -24 -18 -45
q-17 -33 -60 -83l-248 -271h332z" />
    <glyph glyph-name="threeinferior" unicode="&#x2083;" horiz-adv-x="700" 
d="M375 475q90 -14 150 -83.5t60 -162.5q0 -103 -72.5 -176t-175.5 -73q-82 0 -147.5 48t-89.5 124l56 23q17 -59 67 -97t114 -38q78 0 133.5 55.5t55.5 133.5t-55.5 133.5t-133.5 55.5q-19 0 -35 -3q-20 -4 -40 -12v45l173 199h-272v59h388v-30z" />
    <glyph glyph-name="fourinferior" unicode="&#x2084;" horiz-adv-x="733" 
d="M506 235h123v-58h-123v-177h-59v177h-353v29l383 500h29v-471zM447 235v336l-256 -336h256z" />
    <glyph glyph-name="fiveinferior" unicode="&#x2085;" horiz-adv-x="710" 
d="M347 478q103 0 176 -73t73 -176t-73 -176t-176 -73q-82 0 -147 48.5t-89 124.5l55 23q18 -59 67.5 -97.5t113.5 -38.5q78 0 133.5 55.5t55.5 133.5t-55.5 133.5t-133.5 55.5q-64 0 -115 -40l-73 10l14 318h368v-59h-311l-9 -203q57 34 126 34z" />
    <glyph glyph-name="sixinferior" unicode="&#x2086;" horiz-adv-x="714" 
d="M357 478q63 1 123 -33q58 -32 92 -91t34 -125q0 -103 -73 -176t-176 -73t-175.5 73t-72.5 176q0 21 3 40q9 58 45 108q12 15 66.5 90.5t112 154t61.5 84.5h74l-175 -241q27 11 61 13zM357 40q78 0 133.5 55.5t55.5 133.5t-55.5 133.5t-133.5 55.5t-133.5 -55.5
t-55.5 -133.5t55.5 -133.5t133.5 -55.5z" />
    <glyph glyph-name="seveninferior" unicode="&#x2087;" horiz-adv-x="602" 
d="M96 706h412v-29l-299 -677h-69l287 647h-331v59z" />
    <glyph glyph-name="eightinferior" unicode="&#x2088;" horiz-adv-x="708" 
d="M462 399q58 -28 93 -81t35 -116q0 -92 -69.5 -157t-167.5 -65t-167 65t-69 157q0 63 35 116t93 81q-73 55 -73 146q0 75 53 128t128 53t128.5 -53t53.5 -128q0 -91 -73 -146zM353 665q-50 0 -85 -35t-35 -85t35 -85.5t85 -35.5t85.5 35.5t35.5 85.5t-35.5 85t-85.5 35z
M353 41q73 0 125 47t52 114t-52 114t-125 47t-124.5 -47t-51.5 -114t51.5 -114t124.5 -47z" />
    <glyph glyph-name="nineinferior" unicode="&#x2089;" horiz-adv-x="716" 
d="M359 229q-64 -1 -123 32q-57 32 -91 91t-34 125q0 103 72.5 176t175.5 73t176 -73t73 -176q0 -19 -3 -39q-9 -56 -46 -108q-16 -21 -128 -176l-112 -154h-74l175 242q-27 -11 -61 -13zM359 666q-78 0 -133.5 -55.5t-55.5 -133.5t55.5 -133.5t133.5 -55.5t133.5 55.5
t55.5 133.5t-55.5 133.5t-133.5 55.5z" />
    <glyph glyph-name="Euro" unicode="&#x20ac;" horiz-adv-x="1765" 
d="M1538 369l98 -65q-99 -149 -259 -236t-346 -87q-236 0 -424 136.5t-262 353.5h-216v118h186q-9 57 -9 117q0 61 9 118h-186v118h216q75 217 262.5 353.5t423.5 136.5q185 0 344.5 -86.5t258.5 -234.5l-97 -66q-83 124 -217 197t-289 73q-186 0 -338.5 -103t-222.5 -270
h601v-118h-636q-12 -65 -12 -118q0 -52 12 -117h636v-118h-600q70 -167 222 -270t338 -103q156 0 290 73t217 198z" />
    <glyph glyph-name="trademark" unicode="&#x2122;" horiz-adv-x="1390" 
d="M275 707v647h-191v58h441v-58h-191v-647h-59zM1202 1412h58v-706h-58v593l-236 -460h-58l-236 460v-593h-58v706h58l265 -500z" />
    <glyph glyph-name="onethird" unicode="&#x2153;" horiz-adv-x="1378" 
d="M325 0h-59l647 1412h59zM119 1412h176v-706h-59v648h-117v58zM1037 475q90 -14 150 -83.5t60 -162.5q0 -103 -73 -176t-176 -73q-82 0 -147 48t-89 124l55 23q17 -59 67 -97t114 -38q78 0 133.5 55.5t55.5 133.5t-55.5 133.5t-133.5 55.5q-18 0 -34 -3q-20 -4 -40 -12v45
l173 199h-273v59h388v-30z" />
    <glyph glyph-name="twothirds" unicode="&#x2154;" horiz-adv-x="1517" 
d="M463 0h-59l647 1412h59zM1175 475q90 -14 150 -83.5t60 -162.5q0 -103 -73 -176t-176 -73q-82 0 -147 48t-89 124l55 23q17 -59 67 -97t114 -38q78 0 133.5 55.5t55.5 133.5t-55.5 133.5t-133.5 55.5q-18 0 -34 -3q-20 -4 -40 -12v45l173 199h-273v59h388v-30zM237 766
h332v-60h-448v30q204 222 265 288q7 8 22.5 24t24.5 25.5t22.5 26t21 28t16 28.5t11.5 31.5t2.5 32.5t-5.5 36q-15 51 -58.5 84.5t-97.5 33.5q-58 0 -103 -36t-57 -92l-56 23q8 32 29 64q43 65 116 88.5t146 -1.5t115 -91q50 -81 28 -163q-6 -26 -18 -46q-17 -33 -60 -83z
" />
    <glyph glyph-name="arrowleft" unicode="&#x2190;" horiz-adv-x="1601" 
d="M563 250l-83 -83l-388 387l388 387l83 -83l-246 -245h1188v-118h-1188z" />
    <glyph glyph-name="arrowup" unicode="&#x2191;" horiz-adv-x="972" 
d="M873 1025l-83 -83l-246 245v-1187h-117v1187l-245 -245l-84 83l388 387z" />
    <glyph glyph-name="arrowright" unicode="&#x2192;" horiz-adv-x="1601" 
d="M1121 167l-83 83l245 245h-1187v118h1187l-245 245l83 83l388 -387z" />
    <glyph glyph-name="arrowdown" unicode="&#x2193;" horiz-adv-x="968" 
d="M788 471l83 -83l-387 -388l-388 388l83 83l246 -246v1187h117v-1187z" />
    <glyph glyph-name="arrowupleft" unicode="&#x2196;" horiz-adv-x="1226" 
d="M247 393h-118v548h548v-118h-347l839 -839l-83 -83l-839 839v-347z" />
    <glyph glyph-name="arrowupright" unicode="&#x2197;" horiz-adv-x="1226" 
d="M1100 394h-118v347l-839 -840l-84 83l840 840h-347v117l548 1v-548z" />
    <glyph glyph-name="arrowdownright" unicode="&#x2198;" horiz-adv-x="1253" 
d="M1124 548v-548h-548v118h348l-840 839l83 83l840 -839l-1 347h118z" />
    <glyph glyph-name="arrowdownleft" unicode="&#x2199;" horiz-adv-x="1251" 
d="M129 547h118v-347l839 840l83 -84l-839 -839h347v-117l-548 -1v548z" />
    <glyph glyph-name="f.alt1" unicode="&#xf008;" horiz-adv-x="761" 
d="M699 1295h-285l1 -353h284v-108h-284v-834h-118v834h-236v108h236v470h402v-117z" />
    <glyph glyph-name="g.alt1" unicode="&#xf009;" horiz-adv-x="1255" 
d="M974 941h118l-1 -1353h-882v108h765v479q-62 -91 -159 -143t-214 -52q-203 0 -346.5 144t-143.5 347t143.5 346.5t346.5 143.5q117 0 214 -52t159 -143v175zM601 98q155 0 264 109t109 264t-109 264t-264 109t-264 -109t-109 -264t109 -264t264 -109z" />
    <glyph glyph-name="j.alt1" unicode="&#xf00a;" horiz-adv-x="442" 
d="M280 1295v-118h-117v118h117zM280 942v-1354h-393v108h275v1246h118z" />
    <glyph glyph-name="c.alt1" unicode="&#xf00b;" horiz-adv-x="952" 
d="M866 942v-108h-589v-726h589v-108h-706v942h706z" />
    <glyph glyph-name="n.alt1" unicode="&#xf00c;" horiz-adv-x="1110" 
d="M946 0h-117v834h-550v-834h-117v942h784v-942z" />
    <glyph glyph-name="r.alt1" unicode="&#xf00d;" horiz-adv-x="741" 
d="M680 942v-108h-403v-834h-117v942h520z" />
    <glyph glyph-name="t.alt1" unicode="&#xf00e;" horiz-adv-x="675" 
d="M352 118h235v-118h-353v834h-166v108h166v353h118v-353h235v-108h-235v-716z" />
    <glyph glyph-name="u.alt1" unicode="&#xf00f;" horiz-adv-x="1110" 
d="M829 942h117v-942h-784v942h117v-834h550v834z" />
    <glyph glyph-name="h.alt1" unicode="&#xf010;" horiz-adv-x="1110" 
d="M279 942h667v-942h-117v834h-550v-834h-117v1412h117v-470z" />
    <glyph glyph-name="verticalbar.alt1" unicode="&#xf011;" horiz-adv-x="487" 
d="M302 -432h-118v2316h118v-2316z" />
    </font>
</defs>
</svg>
