<svg xmlns="http://www.w3.org/2000/svg" xmlns:xlink="http://www.w3.org/1999/xlink" width="234.399" height="677.953" viewBox="0 0 234.399 677.953">
  <defs>
    <clipPath id="clip-path">
      <rect width="234.399" height="677.953" fill="none"/>
    </clipPath>
  </defs>
  <g id="Grille_de_répétition_5" data-name="Grille de répétition 5" clip-path="url(#clip-path)">
    <g transform="translate(-1903.349 -735.563)">
      <g id="Groupe_17447" data-name="Groupe 17447" transform="translate(2905.35 14327.063) rotate(90)">
        <path id="Tracé_13552" data-name="Tracé 13552" d="M141.912,0h67.041L67.041,234.4H0Z" transform="translate(-13591.5 767.601)" fill="#ffc33b"/>
      </g>
    </g>
    <g transform="translate(-1903.349 -619.563)">
      <g id="Groupe_17447-2" data-name="Groupe 17447" transform="translate(2905.35 14327.063) rotate(90)">
        <path id="Tracé_13552-2" data-name="Tracé 13552" d="M141.912,0h67.041L67.041,234.4H0Z" transform="translate(-13591.5 767.601)" fill="#ffc33b"/>
      </g>
    </g>
    <g transform="translate(-1903.349 -503.563)">
      <g id="Groupe_17447-3" data-name="Groupe 17447" transform="translate(2905.35 14327.063) rotate(90)">
        <path id="Tracé_13552-3" data-name="Tracé 13552" d="M141.912,0h67.041L67.041,234.4H0Z" transform="translate(-13591.5 767.601)" fill="#ffc33b"/>
      </g>
    </g>
    <g transform="translate(-1903.349 -387.563)">
      <g id="Groupe_17447-4" data-name="Groupe 17447" transform="translate(2905.35 14327.063) rotate(90)">
        <path id="Tracé_13552-4" data-name="Tracé 13552" d="M141.912,0h67.041L67.041,234.4H0Z" transform="translate(-13591.5 767.601)" fill="#ffc33b"/>
      </g>
    </g>
    <g transform="translate(-1903.349 -271.563)">
      <g id="Groupe_17447-5" data-name="Groupe 17447" transform="translate(2905.35 14327.063) rotate(90)">
        <path id="Tracé_13552-5" data-name="Tracé 13552" d="M141.912,0h67.041L67.041,234.4H0Z" transform="translate(-13591.5 767.601)" fill="#ffc33b"/>
      </g>
    </g>
  </g>
</svg>
